LF.ufo
<glyph name="exclam" format="1">
  <advance width="250"/>
  <unicode hex="0021"/>
  <outline>
    <contour>
      <point x="30" y="694"/>
      <point x="24" y="692"/>
      <point x="22" y="690" type="curve" smooth="yes"/>
      <point x="18" y="686"/>
      <point x="18" y="685"/>
      <point x="18" y="666" type="curve" smooth="yes"/>
      <point x="19" y="643"/>
      <point x="23" y="614"/>
      <point x="28" y="593" type="curve" smooth="yes"/>
      <point x="31" y="580"/>
      <point x="33" y="563"/>
      <point x="37" y="512" type="curve" smooth="yes"/>
      <point x="38" y="499"/>
      <point x="41" y="482"/>
      <point x="42" y="473" type="curve" smooth="yes"/>
      <point x="44" y="464"/>
      <point x="45" y="452"/>
      <point x="45" y="445" type="curve" smooth="yes"/>
      <point x="45" y="438"/>
      <point x="46" y="429"/>
      <point x="47" y="425" type="curve" smooth="yes"/>
      <point x="48" y="421"/>
      <point x="50" y="403"/>
      <point x="52" y="387" type="curve" smooth="yes"/>
      <point x="54" y="370"/>
      <point x="56" y="348"/>
      <point x="58" y="337" type="curve" smooth="yes"/>
      <point x="59" y="326"/>
      <point x="61" y="312"/>
      <point x="62" y="305" type="curve" smooth="yes"/>
      <point x="64" y="283"/>
      <point x="67" y="267"/>
      <point x="70" y="263" type="curve" smooth="yes"/>
      <point x="78" y="255"/>
      <point x="94" y="252"/>
      <point x="141" y="252" type="curve" smooth="yes"/>
      <point x="163" y="251"/>
      <point x="166" y="252"/>
      <point x="172" y="256" type="curve" smooth="yes"/>
      <point x="176" y="258"/>
      <point x="180" y="262"/>
      <point x="181" y="265" type="curve" smooth="yes"/>
      <point x="182" y="270"/>
      <point x="184" y="300"/>
      <point x="185" y="317" type="curve" smooth="yes"/>
      <point x="185" y="329"/>
      <point x="192" y="377"/>
      <point x="195" y="394" type="curve" smooth="yes"/>
      <point x="196" y="399"/>
      <point x="199" y="419"/>
      <point x="200" y="438" type="curve" smooth="yes"/>
      <point x="202" y="458"/>
      <point x="204" y="478"/>
      <point x="206" y="484" type="curve" smooth="yes"/>
      <point x="207" y="489"/>
      <point x="209" y="503"/>
      <point x="210" y="515" type="curve" smooth="yes"/>
      <point x="211" y="526"/>
      <point x="213" y="546"/>
      <point x="215" y="559" type="curve" smooth="yes"/>
      <point x="217" y="572"/>
      <point x="219" y="589"/>
      <point x="219" y="597" type="curve" smooth="yes"/>
      <point x="220" y="605"/>
      <point x="221" y="617"/>
      <point x="223" y="623" type="curve" smooth="yes"/>
      <point x="224" y="629"/>
      <point x="225" y="641"/>
      <point x="226" y="651" type="curve" smooth="yes"/>
      <point x="227" y="661"/>
      <point x="229" y="671"/>
      <point x="230" y="675" type="curve" smooth="yes"/>
      <point x="231" y="682"/>
      <point x="226" y="690"/>
      <point x="219" y="692" type="curve" smooth="yes"/>
      <point x="216" y="693"/>
      <point x="187" y="694"/>
      <point x="153" y="694" type="curve" smooth="yes"/>
      <point x="120" y="694"/>
      <point x="82" y="695"/>
      <point x="68" y="695" type="curve" smooth="yes"/>
      <point x="54" y="696"/>
      <point x="39" y="696"/>
      <point x="34" y="695" type="curve" smooth="yes"/>
    </contour>
    <contour>
      <point x="49" y="186"/>
      <point x="37" y="186"/>
      <point x="34" y="185" type="curve" smooth="yes"/>
      <point x="27" y="183"/>
      <point x="25" y="175"/>
      <point x="24" y="147" type="curve" smooth="yes"/>
      <point x="24" y="124"/>
      <point x="23" y="32"/>
      <point x="24" y="18" type="curve" smooth="yes"/>
      <point x="24" y="15"/>
      <point x="26" y="10"/>
      <point x="29" y="6" type="curve" smooth="yes"/>
      <point x="35" y="0" type="line"/>
      <point x="118" y="0" type="line" smooth="yes"/>
      <point x="209" y="0"/>
      <point x="213" y="0"/>
      <point x="217" y="11" type="curve" smooth="yes"/>
      <point x="220" y="18"/>
      <point x="221" y="161"/>
      <point x="218" y="173" type="curve" smooth="yes"/>
      <point x="215" y="185"/>
      <point x="211" y="187"/>
      <point x="181" y="187" type="curve" smooth="yes"/>
      <point x="147" y="186"/>
      <point x="125" y="185"/>
      <point x="121" y="183" type="curve" smooth="yes"/>
      <point x="119" y="182"/>
      <point x="116" y="182"/>
      <point x="114" y="183" type="curve" smooth="yes"/>
      <point x="112" y="184"/>
      <point x="108" y="185"/>
      <point x="105" y="185" type="curve" smooth="yes"/>
      <point x="101" y="186"/>
      <point x="96" y="186"/>
      <point x="93" y="186" type="curve" smooth="yes"/>
      <point x="90" y="187"/>
      <point x="76" y="187"/>
      <point x="63" y="187" type="curve" smooth="yes"/>
    </contour>
  </outline>
</glyph>
<glyph name="dollar" format="1">
  <advance width="650"/>
  <unicode hex="0024"/>
  <outline>
    <contour>
      <point x="280" y="722"/>
      <point x="278" y="722"/>
      <point x="273" y="712" type="curve" smooth="yes"/>
      <point x="265" y="699"/>
      <point x="260" y="696"/>
      <point x="243" y="692" type="curve" smooth="yes"/>
      <point x="226" y="689"/>
      <point x="200" y="681"/>
      <point x="194" y="677" type="curve" smooth="yes"/>
      <point x="192" y="676"/>
      <point x="187" y="674"/>
      <point x="183" y="672" type="curve" smooth="yes"/>
      <point x="168" y="668"/>
      <point x="153" y="661"/>
      <point x="144" y="655" type="curve" smooth="yes"/>
      <point x="139" y="651"/>
      <point x="132" y="647"/>
      <point x="128" y="646" type="curve" smooth="yes"/>
      <point x="119" y="642"/>
      <point x="84" y="606"/>
      <point x="73" y="589" type="curve" smooth="yes"/>
      <point x="57" y="564"/>
      <point x="48" y="537"/>
      <point x="43" y="500" type="curve" smooth="yes"/>
      <point x="39" y="468"/>
      <point x="41" y="444"/>
      <point x="51" y="415" type="curve" smooth="yes"/>
      <point x="55" y="401"/>
      <point x="61" y="388"/>
      <point x="64" y="384" type="curve" smooth="yes"/>
      <point x="67" y="380"/>
      <point x="72" y="374"/>
      <point x="74" y="370" type="curve" smooth="yes"/>
      <point x="76" y="367"/>
      <point x="78" y="364"/>
      <point x="78" y="364" type="curve" smooth="yes"/>
      <point x="79" y="364"/>
      <point x="82" y="360"/>
      <point x="86" y="355" type="curve" smooth="yes"/>
      <point x="93" y="345"/>
      <point x="119" y="323"/>
      <point x="134" y="314" type="curve" smooth="yes"/>
      <point x="139" y="310"/>
      <point x="149" y="306"/>
      <point x="156" y="304" type="curve" smooth="yes"/>
      <point x="163" y="301"/>
      <point x="176" y="297"/>
      <point x="186" y="293" type="curve" smooth="yes"/>
      <point x="195" y="289"/>
      <point x="206" y="286"/>
      <point x="211" y="284" type="curve" smooth="yes"/>
      <point x="216" y="283"/>
      <point x="225" y="280"/>
      <point x="231" y="278" type="curve" smooth="yes"/>
      <point x="238" y="276"/>
      <point x="247" y="274"/>
      <point x="251" y="274" type="curve" smooth="yes"/>
      <point x="262" y="274"/>
      <point x="271" y="270"/>
      <point x="272" y="264" type="curve" smooth="yes"/>
      <point x="272" y="260"/>
      <point x="272" y="207"/>
      <point x="271" y="157" type="curve" smooth="yes"/>
      <point x="271" y="132"/>
      <point x="271" y="132"/>
      <point x="266" y="130" type="curve" smooth="yes"/>
      <point x="263" y="129"/>
      <point x="259" y="129"/>
      <point x="255" y="130" type="curve" smooth="yes"/>
      <point x="252" y="131"/>
      <point x="241" y="134"/>
      <point x="232" y="137" type="curve" smooth="yes"/>
      <point x="223" y="140"/>
      <point x="214" y="143"/>
      <point x="212" y="146" type="curve" smooth="yes"/>
      <point x="210" y="148"/>
      <point x="207" y="150"/>
      <point x="205" y="150" type="curve" smooth="yes"/>
      <point x="201" y="150"/>
      <point x="184" y="159"/>
      <point x="171" y="168" type="curve" smooth="yes"/>
      <point x="165" y="173"/>
      <point x="158" y="178"/>
      <point x="155" y="180" type="curve" smooth="yes"/>
      <point x="152" y="181"/>
      <point x="147" y="185"/>
      <point x="144" y="188" type="curve" smooth="yes"/>
      <point x="138" y="195"/>
      <point x="124" y="204"/>
      <point x="119" y="204" type="curve" smooth="yes"/>
      <point x="113" y="204"/>
      <point x="102" y="194"/>
      <point x="89" y="178" type="curve" smooth="yes"/>
      <point x="84" y="171"/>
      <point x="74" y="160"/>
      <point x="67" y="152" type="curve" smooth="yes"/>
      <point x="23" y="104"/>
      <point x="25" y="107"/>
      <point x="25" y="98" type="curve" smooth="yes"/>
      <point x="25" y="91"/>
      <point x="26" y="89"/>
      <point x="37" y="80" type="curve" smooth="yes"/>
      <point x="43" y="74"/>
      <point x="49" y="70"/>
      <point x="49" y="70" type="curve" smooth="yes"/>
      <point x="50" y="70"/>
      <point x="54" y="67"/>
      <point x="58" y="64" type="curve" smooth="yes"/>
      <point x="62" y="60"/>
      <point x="72" y="54"/>
      <point x="80" y="51" type="curve" smooth="yes"/>
      <point x="88" y="47"/>
      <point x="96" y="42"/>
      <point x="98" y="41" type="curve" smooth="yes"/>
      <point x="103" y="36"/>
      <point x="156" y="15"/>
      <point x="167" y="13" type="curve" smooth="yes"/>
      <point x="171" y="12"/>
      <point x="179" y="11"/>
      <point x="184" y="10" type="curve" smooth="yes"/>
      <point x="210" y="3"/>
      <point x="222" y="1"/>
      <point x="242" y="0" type="curve" smooth="yes"/>
      <point x="272" y="-2"/>
      <point x="272" y="-2"/>
      <point x="271" y="-29" type="curve" smooth="yes"/>
      <point x="270" y="-41"/>
      <point x="269" y="-60"/>
      <point x="267" y="-71" type="curve" smooth="yes"/>
      <point x="265" y="-95"/>
      <point x="266" y="-101"/>
      <point x="273" y="-104" type="curve" smooth="yes"/>
      <point x="275" y="-105"/>
      <point x="279" y="-107"/>
      <point x="280" y="-108" type="curve" smooth="yes"/>
      <point x="286" y="-114"/>
      <point x="366" y="-114"/>
      <point x="377" y="-109" type="curve" smooth="yes"/>
      <point x="386" y="-104"/>
      <point x="388" y="-93"/>
      <point x="387" y="-55" type="curve" smooth="yes"/>
      <point x="386" y="-37"/>
      <point x="386" y="-20"/>
      <point x="386" y="-15" type="curve" smooth="yes"/>
      <point x="388" y="-5"/>
      <point x="394" y="-1"/>
      <point x="410" y="0" type="curve" smooth="yes"/>
      <point x="442" y="3"/>
      <point x="471" y="11"/>
      <point x="505" y="28" type="curve" smooth="yes"/>
      <point x="529" y="40"/>
      <point x="542" y="50"/>
      <point x="563" y="71" type="curve" smooth="yes"/>
      <point x="588" y="96"/>
      <point x="600" y="114"/>
      <point x="612" y="143" type="curve" smooth="yes"/>
      <point x="624" y="175"/>
      <point x="629" y="231"/>
      <point x="621" y="258" type="curve" smooth="yes"/>
      <point x="619" y="265"/>
      <point x="616" y="276"/>
      <point x="616" y="282" type="curve" smooth="yes"/>
      <point x="614" y="294"/>
      <point x="601" y="320"/>
      <point x="591" y="332" type="curve" smooth="yes"/>
      <point x="587" y="337"/>
      <point x="579" y="347"/>
      <point x="573" y="354" type="curve" smooth="yes"/>
      <point x="565" y="364"/>
      <point x="556" y="372"/>
      <point x="540" y="382" type="curve" smooth="yes"/>
      <point x="528" y="390"/>
      <point x="517" y="397"/>
      <point x="516" y="397" type="curve" smooth="yes"/>
      <point x="514" y="397"/>
      <point x="506" y="401"/>
      <point x="497" y="405" type="curve" smooth="yes"/>
      <point x="481" y="412"/>
      <point x="455" y="420"/>
      <point x="429" y="426" type="curve" smooth="yes"/>
      <point x="422" y="427"/>
      <point x="413" y="430"/>
      <point x="409" y="431" type="curve" smooth="yes"/>
      <point x="405" y="433"/>
      <point x="399" y="434"/>
      <point x="396" y="434" type="curve" smooth="yes"/>
      <point x="386" y="434"/>
      <point x="385" y="439"/>
      <point x="384" y="466" type="curve" smooth="yes"/>
      <point x="384" y="479"/>
      <point x="384" y="491"/>
      <point x="385" y="492" type="curve" smooth="yes"/>
      <point x="386" y="493"/>
      <point x="386" y="508"/>
      <point x="387" y="524" type="curve" smooth="yes"/>
      <point x="387" y="541"/>
      <point x="387" y="556"/>
      <point x="388" y="557" type="curve" smooth="yes"/>
      <point x="389" y="561"/>
      <point x="399" y="562"/>
      <point x="401" y="559" type="curve" smooth="yes"/>
      <point x="401" y="558"/>
      <point x="406" y="556"/>
      <point x="411" y="555" type="curve" smooth="yes"/>
      <point x="415" y="554"/>
      <point x="422" y="551"/>
      <point x="425" y="549" type="curve" smooth="yes"/>
      <point x="428" y="546"/>
      <point x="438" y="539"/>
      <point x="447" y="534" type="curve" smooth="yes"/>
      <point x="456" y="528"/>
      <point x="466" y="522"/>
      <point x="468" y="519" type="curve" smooth="yes"/>
      <point x="476" y="513"/>
      <point x="484" y="510"/>
      <point x="490" y="512" type="curve" smooth="yes"/>
      <point x="495" y="514"/>
      <point x="500" y="520"/>
      <point x="542" y="574" type="curve" smooth="yes"/>
      <point x="564" y="604"/>
      <point x="568" y="610"/>
      <point x="568" y="617" type="curve" smooth="yes"/>
      <point x="568" y="623"/>
      <point x="561" y="631"/>
      <point x="550" y="637" type="curve" smooth="yes"/>
      <point x="530" y="648"/>
      <point x="512" y="657"/>
      <point x="509" y="657" type="curve" smooth="yes"/>
      <point x="508" y="657"/>
      <point x="504" y="658"/>
      <point x="502" y="659" type="curve" smooth="yes"/>
      <point x="493" y="665"/>
      <point x="459" y="678"/>
      <point x="424" y="687" type="curve" smooth="yes"/>
      <point x="410" y="691"/>
      <point x="395" y="696"/>
      <point x="391" y="700" type="curve" smooth="yes"/>
      <point x="389" y="701"/>
      <point x="386" y="706"/>
      <point x="384" y="711" type="curve" smooth="yes"/>
      <point x="379" y="723"/>
      <point x="376" y="724"/>
      <point x="343" y="724" type="curve" smooth="yes"/>
      <point x="326" y="724"/>
      <point x="307" y="724"/>
      <point x="300" y="723" type="curve" smooth="yes"/>
    </contour>
    <contour>
      <point x="273" y="556"/>
      <point x="273" y="466"/>
      <point x="269" y="458" type="curve" smooth="yes"/>
      <point x="266" y="450"/>
      <point x="260" y="448"/>
      <point x="248" y="453" type="curve" smooth="yes"/>
      <point x="242" y="456"/>
      <point x="234" y="458"/>
      <point x="230" y="460" type="curve" smooth="yes"/>
      <point x="213" y="465"/>
      <point x="195" y="489"/>
      <point x="195" y="506" type="curve" smooth="yes"/>
      <point x="195" y="521"/>
      <point x="199" y="529"/>
      <point x="209" y="540" type="curve" smooth="yes"/>
      <point x="219" y="551"/>
      <point x="233" y="559"/>
      <point x="249" y="564" type="curve" smooth="yes"/>
      <point x="263" y="568"/>
      <point x="267" y="567"/>
      <point x="270" y="562" type="curve" smooth="yes"/>
    </contour>
    <contour>
      <point x="456" y="233"/>
      <point x="468" y="218"/>
      <point x="470" y="197" type="curve" smooth="yes"/>
      <point x="470" y="189"/>
      <point x="470" y="184"/>
      <point x="464" y="173" type="curve" smooth="yes"/>
      <point x="457" y="158"/>
      <point x="453" y="154"/>
      <point x="441" y="145" type="curve" smooth="yes"/>
      <point x="425" y="135"/>
      <point x="393" y="125"/>
      <point x="388" y="130" type="curve" smooth="yes"/>
      <point x="387" y="131"/>
      <point x="386" y="150"/>
      <point x="386" y="186" type="curve" smooth="yes"/>
      <point x="386" y="231"/>
      <point x="387" y="242"/>
      <point x="389" y="248" type="curve" smooth="yes"/>
      <point x="392" y="255" type="line"/>
      <point x="403" y="254" type="line" smooth="yes"/>
      <point x="410" y="254"/>
      <point x="419" y="251"/>
      <point x="429" y="246" type="curve" smooth="yes"/>
    </contour>
  </outline>
</glyph>
<glyph name="percent" format="1">
  <advance width="963"/>
  <unicode hex="0025"/>
  <outline>
    <contour>
      <point x="118" y="753"/>
      <point x="30" y="650"/>
      <point x="30" y="541" type="curve" smooth="yes"/>
      <point x="30" y="433"/>
      <point x="116" y="334"/>
      <point x="229" y="334" type="curve" smooth="yes"/>
      <point x="341" y="334"/>
      <point x="426" y="433"/>
      <point x="426" y="541" type="curve" smooth="yes"/>
      <point x="426" y="650"/>
      <point x="339" y="753"/>
      <point x="229" y="753" type="curve" smooth="yes"/>
    </contour>
    <contour>
      <point x="187" y="432"/>
      <point x="175" y="469"/>
      <point x="175" y="540" type="curve" smooth="yes"/>
      <point x="175" y="615"/>
      <point x="188" y="656"/>
      <point x="228" y="656" type="curve" smooth="yes"/>
      <point x="268" y="656"/>
      <point x="281" y="616"/>
      <point x="281" y="540" type="curve" smooth="yes"/>
      <point x="281" y="469"/>
      <point x="270" y="432"/>
      <point x="228" y="432" type="curve" smooth="yes"/>
    </contour>
    <contour>
      <point x="776" y="744"/>
      <point x="768" y="750"/>
      <point x="757" y="750" type="curve" smooth="yes"/>
      <point x="707" y="750" type="line" smooth="yes"/>
      <point x="696" y="750"/>
      <point x="688" y="750"/>
      <point x="679" y="737" type="curve" smooth="yes"/>
      <point x="210" y="31" type="line" smooth="yes"/>
      <point x="200" y="16"/>
      <point x="203" y="-2"/>
      <point x="224" y="-3" type="curve" smooth="yes"/>
      <point x="260" y="-4" type="line" smooth="yes"/>
      <point x="275" y="-4"/>
      <point x="283" y="-1"/>
      <point x="289" y="8" type="curve" smooth="yes"/>
      <point x="767" y="730" type="line" smooth="yes"/>
    </contour>
    <contour>
      <point x="625" y="409"/>
      <point x="537" y="306"/>
      <point x="537" y="197" type="curve" smooth="yes"/>
      <point x="537" y="89"/>
      <point x="623" y="-10"/>
      <point x="736" y="-10" type="curve" smooth="yes"/>
      <point x="848" y="-10"/>
      <point x="933" y="89"/>
      <point x="933" y="197" type="curve" smooth="yes"/>
      <point x="933" y="306"/>
      <point x="846" y="409"/>
      <point x="736" y="409" type="curve" smooth="yes"/>
    </contour>
    <contour>
      <point x="694" y="88"/>
      <point x="682" y="125"/>
      <point x="682" y="196" type="curve" smooth="yes"/>
      <point x="682" y="271"/>
      <point x="695" y="312"/>
      <point x="735" y="312" type="curve" smooth="yes"/>
      <point x="775" y="312"/>
      <point x="788" y="272"/>
      <point x="788" y="196" type="curve" smooth="yes"/>
      <point x="788" y="125"/>
      <point x="777" y="88"/>
      <point x="735" y="88" type="curve" smooth="yes"/>
    </contour>
  </outline>
</glyph>
<glyph name="ampersand" format="1">
  <advance width="878"/>
  <unicode hex="0026"/>
  <outline>
    <contour>
      <point x="259" y="753"/>
      <point x="156" y="676"/>
      <point x="156" y="570" type="curve" smooth="yes"/>
      <point x="156" y="524"/>
      <point x="179" y="471"/>
      <point x="217" y="429" type="curve" smooth="yes"/>
      <point x="229" y="415"/>
      <point x="228" y="411"/>
      <point x="215" y="404" type="curve" smooth="yes"/>
      <point x="92" y="337"/>
      <point x="39" y="274"/>
      <point x="39" y="195" type="curve" smooth="yes"/>
      <point x="39" y="67"/>
      <point x="132" y="-5"/>
      <point x="298" y="-5" type="curve" smooth="yes"/>
      <point x="398" y="-5"/>
      <point x="472" y="16"/>
      <point x="540" y="64" type="curve" smooth="yes"/>
      <point x="553" y="73"/>
      <point x="558" y="73"/>
      <point x="571" y="65" type="curve" smooth="yes"/>
      <point x="637" y="20"/>
      <point x="711" y="0"/>
      <point x="815" y="0" type="curve" smooth="yes"/>
      <point x="830" y="0"/>
      <point x="839" y="11"/>
      <point x="839" y="29" type="curve" smooth="yes"/>
      <point x="839" y="146" type="line" smooth="yes"/>
      <point x="839" y="161"/>
      <point x="832" y="167"/>
      <point x="816" y="168" type="curve" smooth="yes"/>
      <point x="775" y="171"/>
      <point x="743" y="179"/>
      <point x="717" y="195" type="curve" smooth="yes"/>
      <point x="705" y="202"/>
      <point x="705" y="204"/>
      <point x="715" y="217" type="curve" smooth="yes"/>
      <point x="761" y="279"/>
      <point x="781" y="311"/>
      <point x="803" y="357" type="curve" smooth="yes"/>
      <point x="808" y="370"/>
      <point x="800" y="386"/>
      <point x="786" y="390" type="curve" smooth="yes"/>
      <point x="685" y="422" type="line" smooth="yes"/>
      <point x="672" y="426"/>
      <point x="663" y="423"/>
      <point x="657" y="411" type="curve" smooth="yes"/>
      <point x="643" y="376"/>
      <point x="628" y="352"/>
      <point x="606" y="323" type="curve" smooth="yes"/>
      <point x="597" y="311"/>
      <point x="591" y="311"/>
      <point x="582" y="320" type="curve" smooth="yes"/>
      <point x="509" y="393" type="line" smooth="yes"/>
      <point x="501" y="401"/>
      <point x="502" y="405"/>
      <point x="512" y="410" type="curve" smooth="yes"/>
      <point x="588" y="448"/>
      <point x="648" y="528"/>
      <point x="648" y="589" type="curve" smooth="yes"/>
      <point x="648" y="686"/>
      <point x="546" y="753"/>
      <point x="400" y="753" type="curve" smooth="yes"/>
    </contour>
    <contour>
      <point x="450" y="638"/>
      <point x="477" y="614"/>
      <point x="477" y="578" type="curve" smooth="yes"/>
      <point x="477" y="546"/>
      <point x="457" y="519"/>
      <point x="429" y="504" type="curve" smooth="yes"/>
      <point x="423" y="501"/>
      <point x="414" y="499"/>
      <point x="408" y="505" type="curve" smooth="yes"/>
      <point x="371" y="550" type="line" smooth="yes"/>
      <point x="361" y="561"/>
      <point x="352" y="578"/>
      <point x="352" y="589" type="curve" smooth="yes"/>
      <point x="352" y="613"/>
      <point x="374" y="638"/>
      <point x="410" y="638" type="curve" smooth="yes"/>
    </contour>
    <contour>
      <point x="429" y="192" type="line" smooth="yes"/>
      <point x="439" y="180"/>
      <point x="434" y="174"/>
      <point x="426" y="167" type="curve" smooth="yes"/>
      <point x="406" y="151"/>
      <point x="369" y="140"/>
      <point x="343" y="140" type="curve" smooth="yes"/>
      <point x="294" y="140"/>
      <point x="254" y="180"/>
      <point x="254" y="221" type="curve" smooth="yes"/>
      <point x="254" y="250"/>
      <point x="274" y="280"/>
      <point x="305" y="300" type="curve" smooth="yes"/>
      <point x="314" y="306"/>
      <point x="321" y="308"/>
      <point x="332" y="296" type="curve" smooth="yes"/>
    </contour>
  </outline>
</glyph>
<glyph name="quotesingle" format="1">
  <advance width="253"/>
  <unicode hex="0027"/>
  <outline>
    <contour>
      <point x="223" y="735"/>
      <point x="215" y="742"/>
      <point x="203" y="742" type="curve" smooth="yes"/>
      <point x="58" y="742" type="line" smooth="yes"/>
      <point x="47" y="742"/>
      <point x="37" y="735"/>
      <point x="39" y="720" type="curve" smooth="yes"/>
      <point x="79" y="436" type="line" smooth="yes"/>
      <point x="81" y="419"/>
      <point x="86" y="411"/>
      <point x="106" y="411" type="curve" smooth="yes"/>
      <point x="148" y="411" type="line" smooth="yes"/>
      <point x="172" y="411"/>
      <point x="178" y="419"/>
      <point x="181" y="440" type="curve" smooth="yes"/>
      <point x="221" y="722" type="line" smooth="yes"/>
    </contour>
  </outline>
</glyph>
<glyph name="parenleft" format="1">
  <advance width="332"/>
  <unicode hex="0028"/>
  <outline>
    <contour>
      <point x="200" y="742" type="line" smooth="yes"/>
      <point x="187" y="742"/>
      <point x="179" y="737"/>
      <point x="172" y="728" type="curve" smooth="yes"/>
      <point x="89" y="603"/>
      <point x="35" y="451"/>
      <point x="35" y="285" type="curve" smooth="yes"/>
      <point x="35" y="114"/>
      <point x="92" y="-11"/>
      <point x="174" y="-152" type="curve" smooth="yes"/>
      <point x="180" y="-161"/>
      <point x="185" y="-165"/>
      <point x="195" y="-165" type="curve" smooth="yes"/>
      <point x="304" y="-165" type="line" smooth="yes"/>
      <point x="316" y="-165"/>
      <point x="319" y="-156"/>
      <point x="315" y="-148" type="curve" smooth="yes"/>
      <point x="245" y="2"/>
      <point x="207" y="133"/>
      <point x="207" y="284" type="curve" smooth="yes"/>
      <point x="207" y="443"/>
      <point x="249" y="596"/>
      <point x="315" y="727" type="curve" smooth="yes"/>
      <point x="319" y="734"/>
      <point x="317" y="742"/>
      <point x="305" y="742" type="curve" smooth="yes"/>
    </contour>
  </outline>
</glyph>
<glyph name="asterisk" format="1">
  <advance width="521"/>
  <unicode hex="002A"/>
  <outline>
    <contour>
      <point x="345" y="289"/>
      <point x="358" y="286"/>
      <point x="372" y="296" type="curve" smooth="yes"/>
      <point x="431" y="337" type="line" smooth="yes"/>
      <point x="446" y="347"/>
      <point x="447" y="359"/>
      <point x="440" y="367" type="curve" smooth="yes"/>
      <point x="350" y="472" type="line" smooth="yes"/>
      <point x="345" y="477"/>
      <point x="345" y="484"/>
      <point x="352" y="486" type="curve" smooth="yes"/>
      <point x="482" y="521" type="line" smooth="yes"/>
      <point x="494" y="524"/>
      <point x="499" y="533"/>
      <point x="495" y="545" type="curve" smooth="yes"/>
      <point x="472" y="618" type="line" smooth="yes"/>
      <point x="468" y="632"/>
      <point x="459" y="636"/>
      <point x="447" y="631" type="curve" smooth="yes"/>
      <point x="318" y="573" type="line" smooth="yes"/>
      <point x="310" y="570"/>
      <point x="307" y="573"/>
      <point x="308" y="581" type="curve" smooth="yes"/>
      <point x="322" y="726" type="line" smooth="yes"/>
      <point x="323" y="733"/>
      <point x="318" y="742"/>
      <point x="307" y="742" type="curve" smooth="yes"/>
      <point x="217" y="742" type="line" smooth="yes"/>
      <point x="206" y="742"/>
      <point x="201" y="733"/>
      <point x="202" y="726" type="curve" smooth="yes"/>
      <point x="214" y="582" type="line" smooth="yes"/>
      <point x="215" y="574"/>
      <point x="209" y="571"/>
      <point x="201" y="575" type="curve" smooth="yes"/>
      <point x="75" y="633" type="line" smooth="yes"/>
      <point x="64" y="638"/>
      <point x="58" y="633"/>
      <point x="54" y="623" type="curve" smooth="yes"/>
      <point x="27" y="549" type="line" smooth="yes"/>
      <point x="22" y="536"/>
      <point x="26" y="526"/>
      <point x="36" y="523" type="curve" smooth="yes"/>
      <point x="169" y="487" type="line" smooth="yes"/>
      <point x="178" y="485"/>
      <point x="179" y="478"/>
      <point x="175" y="473" type="curve" smooth="yes"/>
      <point x="81" y="364" type="line" smooth="yes"/>
      <point x="73" y="354"/>
      <point x="74" y="348"/>
      <point x="85" y="340" type="curve" smooth="yes"/>
      <point x="153" y="292" type="line" smooth="yes"/>
      <point x="164" y="284"/>
      <point x="176" y="286"/>
      <point x="181" y="294" type="curve" smooth="yes"/>
      <point x="255" y="421" type="line" smooth="yes"/>
      <point x="258" y="426"/>
      <point x="264" y="426"/>
      <point x="267" y="421" type="curve" smooth="yes"/>
      <point x="340" y="297" type="line" smooth="yes"/>
    </contour>
  </outline>
</glyph>
<glyph name="comma" format="1">
  <advance width="279"/>
  <unicode hex="002C"/>
  <outline>
    <contour>
      <point x="39" y="0"/>
      <point x="32" y="8"/>
      <point x="32" y="25" type="curve" smooth="yes"/>
      <point x="32" y="176" type="line" smooth="yes"/>
      <point x="32" y="191"/>
      <point x="40" y="198"/>
      <point x="51" y="198" type="curve" smooth="yes"/>
      <point x="224" y="198" type="line" smooth="yes"/>
      <point x="236" y="198"/>
      <point x="242" y="191"/>
      <point x="242" y="178" type="curve" smooth="yes"/>
      <point x="242" y="32" type="line" smooth="yes"/>
      <point x="242" y="25"/>
      <point x="241" y="22"/>
      <point x="238" y="17" type="curve" smooth="yes"/>
      <point x="124" y="-146" type="line" smooth="yes"/>
      <point x="113" y="-161"/>
      <point x="93" y="-169"/>
      <point x="78" y="-169" type="curve" smooth="yes"/>
      <point x="56" y="-169" type="line" smooth="yes"/>
      <point x="43" y="-169"/>
      <point x="35" y="-156"/>
      <point x="40" y="-144" type="curve" smooth="yes"/>
      <point x="90" y="-32" type="line" smooth="yes"/>
      <point x="98" y="-12"/>
      <point x="97" y="0"/>
      <point x="81" y="0" type="curve" smooth="yes"/>
      <point x="59" y="0" type="line" smooth="yes"/>
    </contour>
  </outline>
</glyph>
<glyph name="hyphen" format="1">
  <advance width="284"/>
  <unicode hex="002D"/>
  <outline>
    <contour>
      <point x="1" y="305"/>
      <point x="1" y="304"/>
      <point x="1" y="236" type="curve" smooth="yes"/>
      <point x="0" y="175" type="line"/>
      <point x="5" y="169" type="line"/>
      <point x="9" y="164" type="line"/>
      <point x="127" y="163" type="line" smooth="yes"/>
      <point x="270" y="162"/>
      <point x="264" y="162"/>
      <point x="273" y="166" type="curve" smooth="yes"/>
      <point x="285" y="172"/>
      <point x="285" y="175"/>
      <point x="284" y="242" type="curve" smooth="yes"/>
      <point x="284" y="276"/>
      <point x="282" y="303"/>
      <point x="281" y="305" type="curve" smooth="yes"/>
      <point x="276" y="315"/>
      <point x="271" y="315"/>
      <point x="112" y="313" type="curve" smooth="yes"/>
      <point x="92" y="313"/>
      <point x="68" y="313"/>
      <point x="59" y="315" type="curve" smooth="yes"/>
      <point x="33" y="318"/>
      <point x="20" y="317"/>
      <point x="13" y="313" type="curve" smooth="yes"/>
    </contour>
  </outline>
</glyph>
<glyph name="period" format="1">
  <advance width="250"/>
  <unicode hex="002E"/>
  <outline>
    <contour>
      <point x="146" y="192"/>
      <point x="129" y="192"/>
      <point x="108" y="191" type="curve" smooth="yes"/>
      <point x="87" y="190"/>
      <point x="69" y="189"/>
      <point x="68" y="189" type="curve" smooth="yes"/>
      <point x="67" y="189"/>
      <point x="61" y="190"/>
      <point x="56" y="191" type="curve" smooth="yes"/>
      <point x="46" y="192"/>
      <point x="35" y="189"/>
      <point x="28" y="182" type="curve" smooth="yes"/>
      <point x="25" y="178"/>
      <point x="24" y="151"/>
      <point x="23" y="49" type="curve" smooth="yes"/>
      <point x="23" y="11"/>
      <point x="23" y="10"/>
      <point x="36" y="3" type="curve" smooth="yes"/>
      <point x="41" y="1"/>
      <point x="83" y="-1"/>
      <point x="129" y="0" type="curve" smooth="yes"/>
      <point x="139" y="1"/>
      <point x="160" y="1"/>
      <point x="175" y="1" type="curve" smooth="yes"/>
      <point x="204" y="1"/>
      <point x="214" y="3"/>
      <point x="220" y="9" type="curve" smooth="yes"/>
      <point x="225" y="14"/>
      <point x="227" y="34"/>
      <point x="224" y="49" type="curve" smooth="yes"/>
      <point x="223" y="56"/>
      <point x="223" y="66"/>
      <point x="224" y="76" type="curve" smooth="yes"/>
      <point x="224" y="84"/>
      <point x="225" y="94"/>
      <point x="225" y="97" type="curve" smooth="yes"/>
      <point x="225" y="101"/>
      <point x="224" y="120"/>
      <point x="224" y="141" type="curve" smooth="yes"/>
      <point x="223" y="178" type="line"/>
      <point x="218" y="184" type="line" smooth="yes"/>
      <point x="214" y="187"/>
      <point x="209" y="190"/>
      <point x="204" y="191" type="curve" smooth="yes"/>
      <point x="197" y="192"/>
      <point x="147" y="194"/>
      <point x="146" y="193" type="curve" smooth="yes"/>
    </contour>
  </outline>
</glyph>
<glyph name="slash" format="1">
  <advance width="406"/>
  <unicode hex="002F"/>
  <outline>
    <contour>
      <point x="400" y="727"/>
      <point x="394" y="736"/>
      <point x="383" y="739" type="curve" smooth="yes"/>
      <point x="344" y="751" type="line" smooth="yes"/>
      <point x="334" y="754"/>
      <point x="326" y="747"/>
      <point x="319" y="733" type="curve" smooth="yes"/>
      <point x="13" y="31" type="line" smooth="yes"/>
      <point x="5" y="14"/>
      <point x="14" y="7"/>
      <point x="34" y="0" type="curve" smooth="yes"/>
      <point x="51" y="-6" type="line" smooth="yes"/>
      <point x="75" y="-14"/>
      <point x="80" y="-7"/>
      <point x="90" y="15" type="curve" smooth="yes"/>
      <point x="394" y="715" type="line" smooth="yes"/>
    </contour>
  </outline>
</glyph>
<glyph name="zero" format="1">
  <advance width="644"/>
  <unicode hex="0030"/>
  <outline>
    <contour>
      <point x="288" y="705"/>
      <point x="281" y="704"/>
      <point x="276" y="705" type="curve" smooth="yes"/>
      <point x="263" y="705"/>
      <point x="226" y="696"/>
      <point x="215" y="691" type="curve" smooth="yes"/>
      <point x="213" y="690"/>
      <point x="202" y="684"/>
      <point x="191" y="679" type="curve" smooth="yes"/>
      <point x="162" y="665"/>
      <point x="114" y="625"/>
      <point x="101" y="605" type="curve" smooth="yes"/>
      <point x="99" y="600"/>
      <point x="92" y="591"/>
      <point x="86" y="584" type="curve" smooth="yes"/>
      <point x="80" y="577"/>
      <point x="74" y="566"/>
      <point x="71" y="561" type="curve" smooth="yes"/>
      <point x="69" y="555"/>
      <point x="66" y="550"/>
      <point x="65" y="549" type="curve" smooth="yes"/>
      <point x="63" y="548"/>
      <point x="46" y="509"/>
      <point x="44" y="500" type="curve" smooth="yes"/>
      <point x="43" y="497"/>
      <point x="41" y="491"/>
      <point x="39" y="486" type="curve" smooth="yes"/>
      <point x="25" y="449"/>
      <point x="17" y="368"/>
      <point x="21" y="296" type="curve" smooth="yes"/>
      <point x="23" y="258"/>
      <point x="25" y="252"/>
      <point x="37" y="213" type="curve" smooth="yes"/>
      <point x="45" y="188"/>
      <point x="57" y="160"/>
      <point x="60" y="159" type="curve" smooth="yes"/>
      <point x="61" y="158"/>
      <point x="63" y="154"/>
      <point x="65" y="150" type="curve" smooth="yes"/>
      <point x="67" y="140"/>
      <point x="78" y="122"/>
      <point x="90" y="107" type="curve" smooth="yes"/>
      <point x="95" y="100"/>
      <point x="100" y="93"/>
      <point x="101" y="90" type="curve" smooth="yes"/>
      <point x="103" y="88"/>
      <point x="105" y="84"/>
      <point x="107" y="82" type="curve" smooth="yes"/>
      <point x="109" y="81"/>
      <point x="114" y="75"/>
      <point x="118" y="70" type="curve" smooth="yes"/>
      <point x="123" y="65"/>
      <point x="130" y="59"/>
      <point x="134" y="56" type="curve" smooth="yes"/>
      <point x="138" y="53"/>
      <point x="145" y="48"/>
      <point x="149" y="45" type="curve" smooth="yes"/>
      <point x="172" y="28"/>
      <point x="197" y="15"/>
      <point x="234" y="2" type="curve" smooth="yes"/>
      <point x="256" y="-5"/>
      <point x="291" y="-8"/>
      <point x="336" y="-7" type="curve" smooth="yes"/>
      <point x="372" y="-6"/>
      <point x="385" y="-4"/>
      <point x="407" y="3" type="curve" smooth="yes"/>
      <point x="414" y="6"/>
      <point x="425" y="9"/>
      <point x="432" y="11" type="curve" smooth="yes"/>
      <point x="444" y="14"/>
      <point x="467" y="27"/>
      <point x="476" y="34" type="curve" smooth="yes"/>
      <point x="478" y="36"/>
      <point x="486" y="41"/>
      <point x="492" y="44" type="curve" smooth="yes"/>
      <point x="505" y="50"/>
      <point x="538" y="82"/>
      <point x="543" y="93" type="curve" smooth="yes"/>
      <point x="545" y="96"/>
      <point x="551" y="104"/>
      <point x="556" y="110" type="curve" smooth="yes"/>
      <point x="562" y="117"/>
      <point x="570" y="129"/>
      <point x="574" y="138" type="curve" smooth="yes"/>
      <point x="578" y="146"/>
      <point x="584" y="158"/>
      <point x="587" y="164" type="curve" smooth="yes"/>
      <point x="595" y="179"/>
      <point x="603" y="200"/>
      <point x="603" y="207" type="curve" smooth="yes"/>
      <point x="603" y="210"/>
      <point x="604" y="214"/>
      <point x="605" y="216" type="curve" smooth="yes"/>
      <point x="607" y="218"/>
      <point x="610" y="227"/>
      <point x="613" y="235" type="curve" smooth="yes"/>
      <point x="617" y="248"/>
      <point x="619" y="255"/>
      <point x="619" y="274" type="curve" smooth="yes"/>
      <point x="620" y="287"/>
      <point x="621" y="301"/>
      <point x="622" y="304" type="curve" smooth="yes"/>
      <point x="623" y="308"/>
      <point x="624" y="330"/>
      <point x="624" y="352" type="curve" smooth="yes"/>
      <point x="624" y="384"/>
      <point x="623" y="396"/>
      <point x="621" y="404" type="curve" smooth="yes"/>
      <point x="619" y="410"/>
      <point x="618" y="420"/>
      <point x="617" y="427" type="curve" smooth="yes"/>
      <point x="617" y="442"/>
      <point x="610" y="476"/>
      <point x="604" y="492" type="curve" smooth="yes"/>
      <point x="594" y="520"/>
      <point x="581" y="547"/>
      <point x="569" y="565" type="curve" smooth="yes"/>
      <point x="565" y="571"/>
      <point x="562" y="577"/>
      <point x="562" y="578" type="curve" smooth="yes"/>
      <point x="562" y="578"/>
      <point x="557" y="585"/>
      <point x="551" y="593" type="curve" smooth="yes"/>
      <point x="519" y="636"/>
      <point x="494" y="656"/>
      <point x="451" y="677" type="curve" smooth="yes"/>
      <point x="411" y="697"/>
      <point x="397" y="700"/>
      <point x="353" y="704" type="curve" smooth="yes"/>
      <point x="316" y="707"/>
      <point x="297" y="708"/>
      <point x="291" y="706" type="curve" smooth="yes"/>
    </contour>
    <contour>
      <point x="350" y="564"/>
      <point x="358" y="560"/>
      <point x="363" y="557" type="curve" smooth="yes"/>
      <point x="369" y="553"/>
      <point x="373" y="550"/>
      <point x="374" y="550" type="curve" smooth="yes"/>
      <point x="378" y="550"/>
      <point x="393" y="527"/>
      <point x="400" y="512" type="curve" smooth="yes"/>
      <point x="408" y="493"/>
      <point x="415" y="457"/>
      <point x="416" y="429" type="curve" smooth="yes"/>
      <point x="419" y="387"/>
      <point x="419" y="354"/>
      <point x="417" y="313" type="curve" smooth="yes"/>
      <point x="416" y="288"/>
      <point x="415" y="262"/>
      <point x="414" y="255" type="curve" smooth="yes"/>
      <point x="413" y="216"/>
      <point x="399" y="177"/>
      <point x="380" y="154" type="curve" smooth="yes"/>
      <point x="371" y="144"/>
      <point x="365" y="141"/>
      <point x="345" y="136" type="curve" smooth="yes"/>
      <point x="316" y="128"/>
      <point x="289" y="133"/>
      <point x="273" y="149" type="curve" smooth="yes"/>
      <point x="260" y="163"/>
      <point x="254" y="170"/>
      <point x="251" y="178" type="curve" smooth="yes"/>
      <point x="249" y="183"/>
      <point x="246" y="188"/>
      <point x="245" y="190" type="curve" smooth="yes"/>
      <point x="242" y="196"/>
      <point x="236" y="230"/>
      <point x="235" y="246" type="curve" smooth="yes"/>
      <point x="230" y="320"/>
      <point x="230" y="317"/>
      <point x="233" y="408" type="curve" smooth="yes"/>
      <point x="235" y="463"/>
      <point x="240" y="492"/>
      <point x="252" y="518" type="curve" smooth="yes"/>
      <point x="260" y="536"/>
      <point x="272" y="550"/>
      <point x="283" y="557" type="curve" smooth="yes"/>
      <point x="300" y="566"/>
      <point x="326" y="570"/>
      <point x="344" y="565" type="curve" smooth="yes"/>
    </contour>
    <contour>
      <point x="500" y="63"/>
      <point x="499" y="63"/>
      <point x="499" y="64" type="curve" smooth="yes"/>
      <point x="499" y="66"/>
      <point x="502" y="69"/>
      <point x="503" y="68" type="curve" smooth="yes"/>
      <point x="503" y="67"/>
      <point x="503" y="66"/>
      <point x="501" y="64" type="curve" smooth="yes"/>
    </contour>
  </outline>
</glyph>
<glyph name="one" format="1">
  <advance width="530"/>
  <unicode hex="0031"/>
  <outline>
    <contour>
      <point x="407" y="164" type="line" smooth="yes"/>
      <point x="400" y="164"/>
      <point x="396" y="168"/>
      <point x="396" y="176" type="curve" smooth="yes"/>
      <point x="396" y="721" type="line" smooth="yes"/>
      <point x="396" y="734"/>
      <point x="389" y="742"/>
      <point x="378" y="742" type="curve" smooth="yes"/>
      <point x="293" y="742" type="line" smooth="yes"/>
      <point x="274" y="742"/>
      <point x="264" y="738"/>
      <point x="243" y="728" type="curve" smooth="yes"/>
      <point x="63" y="638" type="line" smooth="yes"/>
      <point x="49" y="631"/>
      <point x="45" y="626"/>
      <point x="45" y="609" type="curve" smooth="yes"/>
      <point x="45" y="525" type="line" smooth="yes"/>
      <point x="45" y="505"/>
      <point x="54" y="498"/>
      <point x="72" y="502" type="curve" smooth="yes"/>
      <point x="152" y="520" type="line" smooth="yes"/>
      <point x="165" y="523"/>
      <point x="169" y="519"/>
      <point x="169" y="507" type="curve" smooth="yes"/>
      <point x="169" y="173" type="line" smooth="yes"/>
      <point x="169" y="167"/>
      <point x="163" y="164"/>
      <point x="157" y="164" type="curve" smooth="yes"/>
      <point x="68" y="164" type="line" smooth="yes"/>
      <point x="54" y="164"/>
      <point x="46" y="159"/>
      <point x="46" y="145" type="curve" smooth="yes"/>
      <point x="46" y="21" type="line" smooth="yes"/>
      <point x="46" y="8"/>
      <point x="53" y="0"/>
      <point x="70" y="0" type="curve" smooth="yes"/>
      <point x="495" y="0" type="line" smooth="yes"/>
      <point x="512" y="0"/>
      <point x="520" y="10"/>
      <point x="520" y="22" type="curve" smooth="yes"/>
      <point x="520" y="145" type="line" smooth="yes"/>
      <point x="520" y="159"/>
      <point x="511" y="164"/>
      <point x="497" y="164" type="curve" smooth="yes"/>
    </contour>
  </outline>
</glyph>
<glyph name="two" format="1">
  <advance width="703"/>
  <unicode hex="0032"/>
  <outline>
    <contour>
      <point x="53" y="143"/>
      <point x="50" y="133"/>
      <point x="50" y="124" type="curve" smooth="yes"/>
      <point x="50" y="25" type="line" smooth="yes"/>
      <point x="50" y="5"/>
      <point x="57" y="0"/>
      <point x="77" y="0" type="curve" smooth="yes"/>
      <point x="636" y="0" type="line" smooth="yes"/>
      <point x="653" y="0"/>
      <point x="661" y="10"/>
      <point x="661" y="22" type="curve" smooth="yes"/>
      <point x="661" y="166" type="line" smooth="yes"/>
      <point x="661" y="180"/>
      <point x="652" y="185"/>
      <point x="638" y="185" type="curve" smooth="yes"/>
      <point x="353" y="185" type="line" smooth="yes"/>
      <point x="336" y="185"/>
      <point x="338" y="191"/>
      <point x="347" y="197" type="curve" smooth="yes"/>
      <point x="525" y="314" type="line" smooth="yes"/>
      <point x="624" y="378"/>
      <point x="657" y="439"/>
      <point x="657" y="516" type="curve" smooth="yes"/>
      <point x="657" y="656"/>
      <point x="544" y="747"/>
      <point x="363" y="747" type="curve" smooth="yes"/>
      <point x="228" y="747"/>
      <point x="132" y="696"/>
      <point x="58" y="575" type="curve" smooth="yes"/>
      <point x="49" y="561"/>
      <point x="51" y="543"/>
      <point x="67" y="536" type="curve" smooth="yes"/>
      <point x="186" y="479" type="line" smooth="yes"/>
      <point x="202" y="471"/>
      <point x="213" y="474"/>
      <point x="218" y="483" type="curve" smooth="yes"/>
      <point x="262" y="564"/>
      <point x="299" y="593"/>
      <point x="350" y="593" type="curve" smooth="yes"/>
      <point x="405" y="593"/>
      <point x="437" y="560"/>
      <point x="437" y="516" type="curve" smooth="yes"/>
      <point x="437" y="468"/>
      <point x="420" y="442"/>
      <point x="280" y="328" type="curve" smooth="yes"/>
      <point x="109" y="189" type="line" smooth="yes"/>
    </contour>
  </outline>
</glyph>
<glyph name="three" format="1">
  <advance width="674"/>
  <unicode hex="0033"/>
  <outline>
    <contour>
      <point x="142" y="528" type="line" smooth="yes"/>
      <point x="152" y="519"/>
      <point x="156" y="519"/>
      <point x="166" y="529" type="curve" smooth="yes"/>
      <point x="221" y="581"/>
      <point x="261" y="600"/>
      <point x="318" y="600" type="curve" smooth="yes"/>
      <point x="364" y="600"/>
      <point x="400" y="573"/>
      <point x="400" y="539" type="curve" smooth="yes"/>
      <point x="400" y="495"/>
      <point x="361" y="464"/>
      <point x="298" y="460" type="curve" smooth="yes"/>
      <point x="231" y="456" type="line" smooth="yes"/>
      <point x="218" y="454"/>
      <point x="210" y="449"/>
      <point x="210" y="439" type="curve" smooth="yes"/>
      <point x="210" y="318" type="line" smooth="yes"/>
      <point x="210" y="306"/>
      <point x="217" y="301"/>
      <point x="231" y="301" type="curve" smooth="yes"/>
      <point x="315" y="299" type="line" smooth="yes"/>
      <point x="379" y="297"/>
      <point x="421" y="264"/>
      <point x="421" y="217" type="curve" smooth="yes"/>
      <point x="421" y="174"/>
      <point x="384" y="146"/>
      <point x="322" y="146" type="curve" smooth="yes"/>
      <point x="249" y="146"/>
      <point x="212" y="171"/>
      <point x="151" y="233" type="curve" smooth="yes"/>
      <point x="145" y="240"/>
      <point x="137" y="240"/>
      <point x="124" y="232" type="curve" smooth="yes"/>
      <point x="23" y="162" type="line" smooth="yes"/>
      <point x="9" y="154"/>
      <point x="6" y="139"/>
      <point x="15" y="125" type="curve" smooth="yes"/>
      <point x="66" y="47"/>
      <point x="187" y="-10"/>
      <point x="310" y="-10" type="curve" smooth="yes"/>
      <point x="534" y="-10"/>
      <point x="644" y="67"/>
      <point x="644" y="221" type="curve" smooth="yes"/>
      <point x="644" y="294"/>
      <point x="592" y="358"/>
      <point x="508" y="387" type="curve" smooth="yes"/>
      <point x="493" y="392"/>
      <point x="494" y="403"/>
      <point x="509" y="408" type="curve" smooth="yes"/>
      <point x="584" y="431"/>
      <point x="621" y="497"/>
      <point x="621" y="554" type="curve" smooth="yes"/>
      <point x="621" y="673"/>
      <point x="510" y="752"/>
      <point x="322" y="752" type="curve" smooth="yes"/>
      <point x="207" y="752"/>
      <point x="93" y="707"/>
      <point x="45" y="644" type="curve" smooth="yes"/>
      <point x="38" y="633"/>
      <point x="38" y="626"/>
      <point x="45" y="618" type="curve" smooth="yes"/>
    </contour>
  </outline>
</glyph>
<glyph name="four" format="1">
  <advance width="665"/>
  <unicode hex="0034"/>
  <outline>
    <contour>
      <point x="343" y="701"/>
      <point x="336" y="694"/>
      <point x="325" y="679" type="curve" smooth="yes"/>
      <point x="321" y="674"/>
      <point x="314" y="665"/>
      <point x="309" y="660" type="curve" smooth="yes"/>
      <point x="298" y="647"/>
      <point x="298" y="646"/>
      <point x="281" y="624" type="curve" smooth="yes"/>
      <point x="273" y="614"/>
      <point x="265" y="604"/>
      <point x="264" y="602" type="curve" smooth="yes"/>
      <point x="262" y="601"/>
      <point x="258" y="595"/>
      <point x="255" y="590" type="curve" smooth="yes"/>
      <point x="250" y="579"/>
      <point x="234" y="558"/>
      <point x="230" y="557" type="curve" smooth="yes"/>
      <point x="229" y="556"/>
      <point x="224" y="551"/>
      <point x="221" y="545" type="curve" smooth="yes"/>
      <point x="217" y="540"/>
      <point x="211" y="531"/>
      <point x="207" y="526" type="curve" smooth="yes"/>
      <point x="203" y="521"/>
      <point x="200" y="516"/>
      <point x="200" y="515" type="curve" smooth="yes"/>
      <point x="200" y="514"/>
      <point x="197" y="510"/>
      <point x="193" y="507" type="curve" smooth="yes"/>
      <point x="189" y="504"/>
      <point x="183" y="498"/>
      <point x="179" y="492" type="curve" smooth="yes"/>
      <point x="173" y="482"/>
      <point x="163" y="470"/>
      <point x="157" y="463" type="curve" smooth="yes"/>
      <point x="152" y="456"/>
      <point x="137" y="437"/>
      <point x="129" y="425" type="curve" smooth="yes"/>
      <point x="125" y="419"/>
      <point x="115" y="406"/>
      <point x="107" y="397" type="curve" smooth="yes"/>
      <point x="99" y="388"/>
      <point x="90" y="376"/>
      <point x="86" y="371" type="curve" smooth="yes"/>
      <point x="68" y="347"/>
      <point x="49" y="321"/>
      <point x="39" y="310" type="curve" smooth="yes"/>
      <point x="35" y="306"/>
      <point x="30" y="297"/>
      <point x="27" y="290" type="curve" smooth="yes"/>
      <point x="21" y="279"/>
      <point x="21" y="278"/>
      <point x="21" y="245" type="curve" smooth="yes"/>
      <point x="21" y="226"/>
      <point x="20" y="201"/>
      <point x="20" y="189" type="curve" smooth="yes"/>
      <point x="20" y="163"/>
      <point x="21" y="158"/>
      <point x="32" y="152" type="curve" smooth="yes"/>
      <point x="39" y="149"/>
      <point x="45" y="149"/>
      <point x="116" y="150" type="curve" smooth="yes"/>
      <point x="301" y="151"/>
      <point x="323" y="151"/>
      <point x="326" y="147" type="curve" smooth="yes"/>
      <point x="328" y="145"/>
      <point x="328" y="132"/>
      <point x="327" y="97" type="curve" smooth="yes"/>
      <point x="326" y="11"/>
      <point x="326" y="13"/>
      <point x="333" y="7" type="curve" smooth="yes"/>
      <point x="342" y="-1"/>
      <point x="355" y="-2"/>
      <point x="433" y="0" type="curve" smooth="yes"/>
      <point x="478" y="1"/>
      <point x="505" y="5"/>
      <point x="516" y="10" type="curve" smooth="yes"/>
      <point x="527" y="16"/>
      <point x="528" y="17"/>
      <point x="529" y="83" type="curve" smooth="yes"/>
      <point x="530" y="138"/>
      <point x="531" y="144"/>
      <point x="534" y="147" type="curve" smooth="yes"/>
      <point x="537" y="150"/>
      <point x="542" y="151"/>
      <point x="579" y="150" type="curve" smooth="yes"/>
      <point x="627" y="150"/>
      <point x="633" y="151"/>
      <point x="640" y="161" type="curve" smooth="yes"/>
      <point x="645" y="168" type="line"/>
      <point x="645" y="221" type="line" smooth="yes"/>
      <point x="645" y="278"/>
      <point x="644" y="282"/>
      <point x="634" y="290" type="curve" smooth="yes"/>
      <point x="628" y="295"/>
      <point x="628" y="295"/>
      <point x="581" y="293" type="curve" smooth="yes"/>
      <point x="542" y="292"/>
      <point x="534" y="293"/>
      <point x="532" y="295" type="curve" smooth="yes"/>
      <point x="527" y="300"/>
      <point x="526" y="318"/>
      <point x="527" y="341" type="curve" smooth="yes"/>
      <point x="528" y="353"/>
      <point x="528" y="366"/>
      <point x="527" y="370" type="curve" smooth="yes"/>
      <point x="526" y="374"/>
      <point x="527" y="395"/>
      <point x="528" y="418" type="curve" smooth="yes"/>
      <point x="529" y="440"/>
      <point x="530" y="510"/>
      <point x="530" y="573" type="curve" smooth="yes"/>
      <point x="530" y="700"/>
      <point x="531" y="693"/>
      <point x="517" y="702" type="curve" smooth="yes"/>
      <point x="510" y="706"/>
      <point x="507" y="706"/>
      <point x="436" y="706" type="curve" smooth="yes"/>
      <point x="375" y="707"/>
      <point x="361" y="706"/>
      <point x="353" y="704" type="curve" smooth="yes"/>
    </contour>
    <contour>
      <point x="331" y="417"/>
      <point x="330" y="386"/>
      <point x="330" y="376" type="curve" smooth="yes"/>
      <point x="329" y="366"/>
      <point x="329" y="345"/>
      <point x="329" y="329" type="curve" smooth="yes"/>
      <point x="329" y="307"/>
      <point x="328" y="300"/>
      <point x="326" y="297" type="curve" smooth="yes"/>
      <point x="323" y="293"/>
      <point x="320" y="293"/>
      <point x="256" y="293" type="curve" smooth="yes"/>
      <point x="193" y="293"/>
      <point x="183" y="294"/>
      <point x="183" y="298" type="curve" smooth="yes"/>
      <point x="183" y="299"/>
      <point x="188" y="307"/>
      <point x="195" y="316" type="curve" smooth="yes"/>
      <point x="202" y="325"/>
      <point x="209" y="334"/>
      <point x="210" y="337" type="curve" smooth="yes"/>
      <point x="212" y="340"/>
      <point x="217" y="346"/>
      <point x="221" y="351" type="curve" smooth="yes"/>
      <point x="224" y="356"/>
      <point x="230" y="363"/>
      <point x="233" y="367" type="curve" smooth="yes"/>
      <point x="235" y="372"/>
      <point x="242" y="380"/>
      <point x="248" y="387" type="curve" smooth="yes"/>
      <point x="253" y="393"/>
      <point x="260" y="402"/>
      <point x="262" y="406" type="curve" smooth="yes"/>
      <point x="264" y="410"/>
      <point x="270" y="418"/>
      <point x="274" y="423" type="curve" smooth="yes"/>
      <point x="279" y="427"/>
      <point x="283" y="433"/>
      <point x="284" y="435" type="curve" smooth="yes"/>
      <point x="286" y="438"/>
      <point x="289" y="442"/>
      <point x="292" y="446" type="curve" smooth="yes"/>
      <point x="295" y="450"/>
      <point x="300" y="458"/>
      <point x="304" y="463" type="curve" smooth="yes"/>
      <point x="320" y="489"/>
      <point x="325" y="495"/>
      <point x="328" y="495" type="curve" smooth="yes"/>
      <point x="331" y="494"/>
      <point x="332" y="490"/>
      <point x="331" y="444" type="curve" smooth="yes"/>
    </contour>
  </outline>
</glyph>
<glyph name="five" format="1">
  <advance width="650"/>
  <unicode hex="0035"/>
  <outline>
    <contour>
      <point x="96" y="700"/>
      <point x="89" y="694"/>
      <point x="87" y="672" type="curve" smooth="yes"/>
      <point x="59" y="380" type="line" smooth="yes"/>
      <point x="57" y="358"/>
      <point x="60" y="351"/>
      <point x="72" y="345" type="curve" smooth="yes"/>
      <point x="184" y="284" type="line" smooth="yes"/>
      <point x="194" y="278"/>
      <point x="202" y="277"/>
      <point x="212" y="282" type="curve" smooth="yes"/>
      <point x="252" y="300"/>
      <point x="278" y="308"/>
      <point x="307" y="308" type="curve" smooth="yes"/>
      <point x="380" y="308"/>
      <point x="412" y="264"/>
      <point x="412" y="224" type="curve" smooth="yes"/>
      <point x="412" y="176"/>
      <point x="374" y="136"/>
      <point x="302" y="136" type="curve" smooth="yes"/>
      <point x="244" y="136"/>
      <point x="205" y="167"/>
      <point x="163" y="219" type="curve" smooth="yes"/>
      <point x="155" y="229"/>
      <point x="143" y="230"/>
      <point x="132" y="223" type="curve" smooth="yes"/>
      <point x="30" y="154" type="line" smooth="yes"/>
      <point x="16" y="145"/>
      <point x="16" y="127"/>
      <point x="28" y="114" type="curve" smooth="yes"/>
      <point x="104" y="32"/>
      <point x="185" y="-7"/>
      <point x="311" y="-7" type="curve" smooth="yes"/>
      <point x="509" y="-7"/>
      <point x="621" y="78"/>
      <point x="621" y="222" type="curve" smooth="yes"/>
      <point x="621" y="376"/>
      <point x="513" y="457"/>
      <point x="362" y="457" type="curve" smooth="yes"/>
      <point x="324" y="457"/>
      <point x="286" y="450"/>
      <point x="240" y="437" type="curve" smooth="yes"/>
      <point x="229" y="434"/>
      <point x="224" y="440"/>
      <point x="225" y="450" type="curve" smooth="yes"/>
      <point x="231" y="511" type="line" smooth="yes"/>
      <point x="232" y="523"/>
      <point x="239" y="528"/>
      <point x="251" y="528" type="curve" smooth="yes"/>
      <point x="533" y="528" type="line" smooth="yes"/>
      <point x="551" y="528"/>
      <point x="559" y="533"/>
      <point x="560" y="549" type="curve" smooth="yes"/>
      <point x="566" y="673" type="line" smooth="yes"/>
      <point x="567" y="696"/>
      <point x="565" y="700"/>
      <point x="538" y="700" type="curve" smooth="yes"/>
      <point x="129" y="700" type="line" smooth="yes"/>
    </contour>
  </outline>
</glyph>
<glyph name="six" format="1">
  <advance width="703"/>
  <unicode hex="0036"/>
  <outline>
    <contour>
      <point x="185" y="750"/>
      <point x="36" y="578"/>
      <point x="36" y="350" type="curve" smooth="yes"/>
      <point x="36" y="136"/>
      <point x="169" y="-8"/>
      <point x="366" y="-8" type="curve" smooth="yes"/>
      <point x="543" y="-8"/>
      <point x="675" y="97"/>
      <point x="675" y="240" type="curve" smooth="yes"/>
      <point x="675" y="370"/>
      <point x="567" y="461"/>
      <point x="414" y="461" type="curve" smooth="yes"/>
      <point x="371" y="461"/>
      <point x="332" y="451"/>
      <point x="286" y="431" type="curve" smooth="yes"/>
      <point x="267" y="423"/>
      <point x="261" y="428"/>
      <point x="261" y="450" type="curve" smooth="yes"/>
      <point x="261" y="529"/>
      <point x="317" y="600"/>
      <point x="380" y="600" type="curve" smooth="yes"/>
      <point x="415" y="600"/>
      <point x="442" y="578"/>
      <point x="466" y="534" type="curve" smooth="yes"/>
      <point x="472" y="522"/>
      <point x="478" y="518"/>
      <point x="488" y="521" type="curve" smooth="yes"/>
      <point x="631" y="563" type="line" smooth="yes"/>
      <point x="642" y="566"/>
      <point x="646" y="575"/>
      <point x="643" y="590" type="curve" smooth="yes"/>
      <point x="622" y="672"/>
      <point x="509" y="750"/>
      <point x="383" y="750" type="curve" smooth="yes"/>
    </contour>
    <contour>
      <point x="423" y="317"/>
      <point x="459" y="276"/>
      <point x="459" y="236" type="curve" smooth="yes"/>
      <point x="459" y="178"/>
      <point x="417" y="136"/>
      <point x="358" y="136" type="curve" smooth="yes"/>
      <point x="303" y="136"/>
      <point x="263" y="197"/>
      <point x="263" y="272" type="curve" smooth="yes"/>
      <point x="263" y="280"/>
      <point x="267" y="288"/>
      <point x="273" y="291" type="curve" smooth="yes"/>
      <point x="301" y="307"/>
      <point x="335" y="317"/>
      <point x="360" y="317" type="curve" smooth="yes"/>
    </contour>
  </outline>
</glyph>
<glyph name="seven" format="1">
  <advance width="579"/>
  <unicode hex="0037"/>
  <outline>
    <contour>
      <point x="26" y="742"/>
      <point x="15" y="736"/>
      <point x="14" y="725" type="curve" smooth="yes"/>
      <point x="0" y="587" type="line" smooth="yes"/>
      <point x="-1" y="572"/>
      <point x="6" y="562"/>
      <point x="27" y="562" type="curve" smooth="yes"/>
      <point x="332" y="562" type="line" smooth="yes"/>
      <point x="348" y="562"/>
      <point x="347" y="554"/>
      <point x="341" y="544" type="curve" smooth="yes"/>
      <point x="186" y="296"/>
      <point x="136" y="177"/>
      <point x="92" y="29" type="curve" smooth="yes"/>
      <point x="87" y="11"/>
      <point x="94" y="0"/>
      <point x="112" y="0" type="curve" smooth="yes"/>
      <point x="323" y="0" type="line" smooth="yes"/>
      <point x="339" y="0"/>
      <point x="347" y="10"/>
      <point x="348" y="33" type="curve" smooth="yes"/>
      <point x="354" y="168"/>
      <point x="431" y="406"/>
      <point x="543" y="578" type="curve" smooth="yes"/>
      <point x="555" y="596"/>
      <point x="574" y="633"/>
      <point x="575" y="647" type="curve" smooth="yes"/>
      <point x="579" y="714" type="line" smooth="yes"/>
      <point x="580" y="729"/>
      <point x="567" y="742"/>
      <point x="542" y="742" type="curve" smooth="yes"/>
      <point x="44" y="742" type="line" smooth="yes"/>
    </contour>
  </outline>
</glyph>
<glyph name="eight" format="1">
  <advance width="650"/>
  <unicode hex="0038"/>
  <outline>
    <contour>
      <point x="264" y="702"/>
      <point x="252" y="700"/>
      <point x="246" y="699" type="curve" smooth="yes"/>
      <point x="241" y="697"/>
      <point x="231" y="695"/>
      <point x="224" y="694" type="curve" smooth="yes"/>
      <point x="217" y="692"/>
      <point x="204" y="688"/>
      <point x="196" y="684" type="curve" smooth="yes"/>
      <point x="187" y="680"/>
      <point x="179" y="677"/>
      <point x="178" y="677" type="curve" smooth="yes"/>
      <point x="174" y="677"/>
      <point x="151" y="664"/>
      <point x="138" y="654" type="curve" smooth="yes"/>
      <point x="113" y="635"/>
      <point x="90" y="612"/>
      <point x="79" y="594" type="curve" smooth="yes"/>
      <point x="70" y="578"/>
      <point x="62" y="561"/>
      <point x="61" y="553" type="curve" smooth="yes"/>
      <point x="60" y="549"/>
      <point x="58" y="541"/>
      <point x="56" y="537" type="curve" smooth="yes"/>
      <point x="54" y="531"/>
      <point x="52" y="523"/>
      <point x="52" y="515" type="curve" smooth="yes"/>
      <point x="52" y="508"/>
      <point x="51" y="496"/>
      <point x="51" y="489" type="curve" smooth="yes"/>
      <point x="50" y="480"/>
      <point x="50" y="470"/>
      <point x="53" y="454" type="curve" smooth="yes"/>
      <point x="56" y="436"/>
      <point x="58" y="429"/>
      <point x="67" y="412" type="curve" smooth="yes"/>
      <point x="73" y="401"/>
      <point x="80" y="388"/>
      <point x="84" y="384" type="curve" smooth="yes"/>
      <point x="107" y="359"/>
      <point x="119" y="348"/>
      <point x="131" y="340" type="curve" smooth="yes"/>
      <point x="149" y="329"/>
      <point x="150" y="326"/>
      <point x="134" y="317" type="curve" smooth="yes"/>
      <point x="128" y="314"/>
      <point x="121" y="311"/>
      <point x="117" y="310" type="curve" smooth="yes"/>
      <point x="114" y="309"/>
      <point x="108" y="306"/>
      <point x="104" y="303" type="curve" smooth="yes"/>
      <point x="101" y="300"/>
      <point x="93" y="294"/>
      <point x="86" y="289" type="curve" smooth="yes"/>
      <point x="70" y="278"/>
      <point x="52" y="258"/>
      <point x="44" y="243" type="curve" smooth="yes"/>
      <point x="42" y="239"/>
      <point x="38" y="229"/>
      <point x="36" y="218" type="curve" smooth="yes"/>
      <point x="31" y="203"/>
      <point x="30" y="195"/>
      <point x="29" y="172" type="curve" smooth="yes"/>
      <point x="29" y="145"/>
      <point x="29" y="143"/>
      <point x="34" y="128" type="curve" smooth="yes"/>
      <point x="42" y="104"/>
      <point x="53" y="88"/>
      <point x="74" y="67" type="curve" smooth="yes"/>
      <point x="84" y="57"/>
      <point x="96" y="47"/>
      <point x="99" y="45" type="curve" smooth="yes"/>
      <point x="102" y="44"/>
      <point x="108" y="40"/>
      <point x="114" y="36" type="curve" smooth="yes"/>
      <point x="122" y="30"/>
      <point x="139" y="23"/>
      <point x="156" y="18" type="curve" smooth="yes"/>
      <point x="159" y="17"/>
      <point x="163" y="15"/>
      <point x="164" y="14" type="curve" smooth="yes"/>
      <point x="170" y="10"/>
      <point x="206" y="2"/>
      <point x="238" y="-2" type="curve" smooth="yes"/>
      <point x="246" y="-3"/>
      <point x="255" y="-4"/>
      <point x="259" y="-6" type="curve" smooth="yes"/>
      <point x="274" y="-10"/>
      <point x="396" y="-5"/>
      <point x="416" y="0" type="curve" smooth="yes"/>
      <point x="420" y="2"/>
      <point x="427" y="3"/>
      <point x="432" y="4" type="curve" smooth="yes"/>
      <point x="467" y="12"/>
      <point x="494" y="20"/>
      <point x="509" y="29" type="curve" smooth="yes"/>
      <point x="516" y="32"/>
      <point x="528" y="39"/>
      <point x="536" y="44" type="curve" smooth="yes"/>
      <point x="557" y="55"/>
      <point x="564" y="60"/>
      <point x="579" y="76" type="curve" smooth="yes"/>
      <point x="606" y="104"/>
      <point x="617" y="121"/>
      <point x="626" y="154" type="curve" smooth="yes"/>
      <point x="631" y="169"/>
      <point x="632" y="175"/>
      <point x="631" y="194" type="curve" smooth="yes"/>
      <point x="631" y="207"/>
      <point x="630" y="220"/>
      <point x="629" y="224" type="curve" smooth="yes"/>
      <point x="628" y="228"/>
      <point x="626" y="237"/>
      <point x="625" y="243" type="curve" smooth="yes"/>
      <point x="621" y="271"/>
      <point x="605" y="302"/>
      <point x="582" y="323" type="curve" smooth="yes"/>
      <point x="568" y="337"/>
      <point x="541" y="359"/>
      <point x="533" y="363" type="curve" smooth="yes"/>
      <point x="498" y="381"/>
      <point x="496" y="385"/>
      <point x="514" y="396" type="curve" smooth="yes"/>
      <point x="529" y="406"/>
      <point x="537" y="411"/>
      <point x="546" y="420" type="curve" smooth="yes"/>
      <point x="552" y="426"/>
      <point x="559" y="431"/>
      <point x="562" y="433" type="curve" smooth="yes"/>
      <point x="565" y="435"/>
      <point x="572" y="442"/>
      <point x="577" y="448" type="curve" smooth="yes"/>
      <point x="591" y="465"/>
      <point x="597" y="485"/>
      <point x="598" y="519" type="curve" smooth="yes"/>
      <point x="598" y="535"/>
      <point x="598" y="548"/>
      <point x="596" y="553" type="curve" smooth="yes"/>
      <point x="590" y="573"/>
      <point x="577" y="594"/>
      <point x="550" y="625" type="curve" smooth="yes"/>
      <point x="541" y="635"/>
      <point x="513" y="659"/>
      <point x="507" y="662" type="curve" smooth="yes"/>
      <point x="504" y="663"/>
      <point x="499" y="666"/>
      <point x="496" y="668" type="curve" smooth="yes"/>
      <point x="493" y="671"/>
      <point x="490" y="673"/>
      <point x="489" y="673" type="curve" smooth="yes"/>
      <point x="488" y="673"/>
      <point x="482" y="675"/>
      <point x="476" y="678" type="curve" smooth="yes"/>
      <point x="470" y="680"/>
      <point x="459" y="684"/>
      <point x="453" y="685" type="curve" smooth="yes"/>
      <point x="447" y="687"/>
      <point x="435" y="691"/>
      <point x="427" y="693" type="curve" smooth="yes"/>
      <point x="418" y="696"/>
      <point x="409" y="698"/>
      <point x="405" y="698" type="curve" smooth="yes"/>
      <point x="401" y="698"/>
      <point x="395" y="699"/>
      <point x="393" y="700" type="curve" smooth="yes"/>
      <point x="381" y="705"/>
      <point x="299" y="707"/>
      <point x="274" y="703" type="curve" smooth="yes"/>
    </contour>
    <contour>
      <point x="374" y="567"/>
      <point x="392" y="558"/>
      <point x="402" y="550" type="curve" smooth="yes"/>
      <point x="406" y="546"/>
      <point x="412" y="538"/>
      <point x="415" y="532" type="curve" smooth="yes"/>
      <point x="423" y="517"/>
      <point x="424" y="496"/>
      <point x="417" y="480" type="curve" smooth="yes"/>
      <point x="412" y="465"/>
      <point x="399" y="451"/>
      <point x="387" y="444" type="curve" smooth="yes"/>
      <point x="381" y="441"/>
      <point x="376" y="438"/>
      <point x="375" y="437" type="curve" smooth="yes"/>
      <point x="372" y="434"/>
      <point x="360" y="435"/>
      <point x="352" y="438" type="curve" smooth="yes"/>
      <point x="347" y="440"/>
      <point x="341" y="442"/>
      <point x="337" y="443" type="curve" smooth="yes"/>
      <point x="333" y="443"/>
      <point x="328" y="445"/>
      <point x="326" y="446" type="curve" smooth="yes"/>
      <point x="324" y="447"/>
      <point x="315" y="451"/>
      <point x="307" y="453" type="curve" smooth="yes"/>
      <point x="274" y="465"/>
      <point x="253" y="478"/>
      <point x="247" y="490" type="curve" smooth="yes"/>
      <point x="241" y="502"/>
      <point x="239" y="520"/>
      <point x="241" y="530" type="curve" smooth="yes"/>
      <point x="244" y="540"/>
      <point x="264" y="561"/>
      <point x="273" y="563" type="curve" smooth="yes"/>
      <point x="277" y="564"/>
      <point x="281" y="565"/>
      <point x="282" y="566" type="curve" smooth="yes"/>
      <point x="295" y="574"/>
      <point x="334" y="576"/>
      <point x="358" y="570" type="curve" smooth="yes"/>
    </contour>
    <contour>
      <point x="300" y="269"/>
      <point x="303" y="267"/>
      <point x="305" y="267" type="curve" smooth="yes"/>
      <point x="307" y="267"/>
      <point x="313" y="266"/>
      <point x="318" y="264" type="curve" smooth="yes"/>
      <point x="324" y="261"/>
      <point x="336" y="257"/>
      <point x="346" y="254" type="curve" smooth="yes"/>
      <point x="356" y="252"/>
      <point x="364" y="249"/>
      <point x="365" y="248" type="curve" smooth="yes"/>
      <point x="366" y="247"/>
      <point x="370" y="246"/>
      <point x="373" y="245" type="curve" smooth="yes"/>
      <point x="382" y="243"/>
      <point x="407" y="226"/>
      <point x="415" y="217" type="curve" smooth="yes"/>
      <point x="424" y="206"/>
      <point x="427" y="192"/>
      <point x="424" y="175" type="curve" smooth="yes"/>
      <point x="422" y="156"/>
      <point x="415" y="146"/>
      <point x="400" y="138" type="curve" smooth="yes"/>
      <point x="376" y="126"/>
      <point x="358" y="122"/>
      <point x="333" y="123" type="curve" smooth="yes"/>
      <point x="309" y="123"/>
      <point x="279" y="128"/>
      <point x="263" y="132" type="curve" smooth="yes"/>
      <point x="248" y="137"/>
      <point x="245" y="139"/>
      <point x="234" y="150" type="curve" smooth="yes"/>
      <point x="227" y="157"/>
      <point x="219" y="165"/>
      <point x="217" y="166" type="curve" smooth="yes"/>
      <point x="214" y="168"/>
      <point x="211" y="173"/>
      <point x="209" y="178" type="curve" smooth="yes"/>
      <point x="207" y="186"/>
      <point x="207" y="187"/>
      <point x="210" y="191" type="curve" smooth="yes"/>
      <point x="212" y="194"/>
      <point x="216" y="204"/>
      <point x="219" y="213" type="curve" smooth="yes"/>
      <point x="222" y="222"/>
      <point x="226" y="232"/>
      <point x="228" y="235" type="curve" smooth="yes"/>
      <point x="235" y="245"/>
      <point x="255" y="263"/>
      <point x="266" y="269" type="curve" smooth="yes"/>
      <point x="274" y="274"/>
      <point x="277" y="275"/>
      <point x="284" y="274" type="curve" smooth="yes"/>
      <point x="289" y="273"/>
      <point x="295" y="272"/>
      <point x="297" y="270" type="curve" smooth="yes"/>
    </contour>
  </outline>
</glyph>
<glyph name="nine" format="1">
  <advance width="650"/>
  <unicode hex="0039"/>
  <outline>
    <contour>
      <point x="499" y="-8"/>
      <point x="631" y="154"/>
      <point x="631" y="360" type="curve" smooth="yes"/>
      <point x="631" y="572"/>
      <point x="505" y="708"/>
      <point x="319" y="708" type="curve" smooth="yes"/>
      <point x="152" y="708"/>
      <point x="27" y="608"/>
      <point x="27" y="473" type="curve" smooth="yes"/>
      <point x="27" y="351"/>
      <point x="129" y="265"/>
      <point x="274" y="265" type="curve" smooth="yes"/>
      <point x="314" y="265"/>
      <point x="354" y="274"/>
      <point x="398" y="293" type="curve" smooth="yes"/>
      <point x="416" y="301"/>
      <point x="421" y="296"/>
      <point x="421" y="275" type="curve" smooth="yes"/>
      <point x="421" y="201"/>
      <point x="369" y="130"/>
      <point x="310" y="130" type="curve" smooth="yes"/>
      <point x="277" y="130"/>
      <point x="248" y="152"/>
      <point x="226" y="194" type="curve" smooth="yes"/>
      <point x="220" y="205"/>
      <point x="214" y="209"/>
      <point x="205" y="206" type="curve" smooth="yes"/>
      <point x="70" y="167" type="line" smooth="yes"/>
      <point x="60" y="164"/>
      <point x="56" y="155"/>
      <point x="59" y="141" type="curve" smooth="yes"/>
      <point x="78" y="64"/>
      <point x="184" y="-8"/>
      <point x="303" y="-8" type="curve" smooth="yes"/>
    </contour>
    <contour>
      <point x="265" y="399"/>
      <point x="233" y="441"/>
      <point x="233" y="479" type="curve" smooth="yes"/>
      <point x="233" y="529"/>
      <point x="272" y="575"/>
      <point x="328" y="575" type="curve" smooth="yes"/>
      <point x="383" y="575"/>
      <point x="416" y="512"/>
      <point x="416" y="441" type="curve" smooth="yes"/>
      <point x="416" y="434"/>
      <point x="413" y="426"/>
      <point x="407" y="423" type="curve" smooth="yes"/>
      <point x="380" y="408"/>
      <point x="348" y="399"/>
      <point x="325" y="399" type="curve" smooth="yes"/>
    </contour>
  </outline>
</glyph>
<glyph name="colon" format="1">
  <advance width="250"/>
  <unicode hex="003A"/>
  <outline>
    <contour>
      <point x="23" y="490"/>
      <point x="23" y="487"/>
      <point x="23" y="401" type="curve" smooth="yes"/>
      <point x="23" y="357"/>
      <point x="24" y="320"/>
      <point x="25" y="318" type="curve" smooth="yes"/>
      <point x="27" y="312"/>
      <point x="33" y="310"/>
      <point x="48" y="310" type="curve" smooth="yes"/>
      <point x="68" y="311"/>
      <point x="99" y="311"/>
      <point x="159" y="310" type="curve" smooth="yes"/>
      <point x="213" y="309" type="line"/>
      <point x="218" y="314" type="line"/>
      <point x="222" y="319" type="line"/>
      <point x="222" y="401" type="line" smooth="yes"/>
      <point x="222" y="462"/>
      <point x="222" y="484"/>
      <point x="220" y="487" type="curve" smooth="yes"/>
      <point x="215" y="493"/>
      <point x="193" y="497"/>
      <point x="163" y="496" type="curve" smooth="yes"/>
      <point x="120" y="495"/>
      <point x="61" y="495"/>
      <point x="50" y="496" type="curve" smooth="yes"/>
      <point x="43" y="497"/>
      <point x="38" y="497"/>
      <point x="34" y="495" type="curve" smooth="yes"/>
    </contour>
    <contour>
      <point x="79" y="190"/>
      <point x="70" y="189"/>
      <point x="63" y="190" type="curve" smooth="yes"/>
      <point x="56" y="190"/>
      <point x="48" y="190"/>
      <point x="45" y="189" type="curve" smooth="yes"/>
      <point x="43" y="188"/>
      <point x="38" y="187"/>
      <point x="35" y="187" type="curve" smooth="yes"/>
      <point x="26" y="185"/>
      <point x="25" y="178"/>
      <point x="25" y="107" type="curve" smooth="yes"/>
      <point x="24" y="72"/>
      <point x="23" y="37"/>
      <point x="23" y="32" type="curve" smooth="yes"/>
      <point x="21" y="20"/>
      <point x="25" y="10"/>
      <point x="32" y="5" type="curve" smooth="yes"/>
      <point x="38" y="1"/>
      <point x="64" y="-1"/>
      <point x="81" y="1" type="curve" smooth="yes"/>
      <point x="89" y="2"/>
      <point x="121" y="2"/>
      <point x="152" y="2" type="curve" smooth="yes"/>
      <point x="207" y="1"/>
      <point x="209" y="1"/>
      <point x="215" y="5" type="curve" smooth="yes"/>
      <point x="223" y="10"/>
      <point x="225" y="17"/>
      <point x="223" y="29" type="curve" smooth="yes"/>
      <point x="223" y="34"/>
      <point x="222" y="68"/>
      <point x="222" y="105" type="curve" smooth="yes"/>
      <point x="222" y="149"/>
      <point x="222" y="175"/>
      <point x="220" y="179" type="curve" smooth="yes"/>
      <point x="217" y="191"/>
      <point x="214" y="191"/>
      <point x="152" y="191" type="curve" smooth="yes"/>
      <point x="122" y="191"/>
      <point x="95" y="191"/>
      <point x="94" y="192" type="curve" smooth="yes"/>
      <point x="92" y="192"/>
      <point x="87" y="192"/>
      <point x="83" y="191" type="curve" smooth="yes"/>
    </contour>
  </outline>
</glyph>
<glyph name="equal" format="1">
  <advance width="600"/>
  <unicode hex="003D"/>
  <outline>
    <contour>
      <point x="562" y="532"/>
      <point x="555" y="540"/>
      <point x="544" y="540" type="curve" smooth="yes"/>
      <point x="59" y="540" type="line" smooth="yes"/>
      <point x="47" y="540"/>
      <point x="40" y="532"/>
      <point x="40" y="517" type="curve" smooth="yes"/>
      <point x="40" y="424" type="line" smooth="yes"/>
      <point x="40" y="407"/>
      <point x="46" y="399"/>
      <point x="66" y="399" type="curve" smooth="yes"/>
      <point x="529" y="399" type="line" smooth="yes"/>
      <point x="552" y="399"/>
      <point x="562" y="407"/>
      <point x="562" y="427" type="curve" smooth="yes"/>
      <point x="562" y="520" type="line" smooth="yes"/>
    </contour>
    <contour>
      <point x="562" y="291"/>
      <point x="555" y="299"/>
      <point x="544" y="299" type="curve" smooth="yes"/>
      <point x="59" y="299" type="line" smooth="yes"/>
      <point x="47" y="299"/>
      <point x="40" y="291"/>
      <point x="40" y="276" type="curve" smooth="yes"/>
      <point x="40" y="183" type="line" smooth="yes"/>
      <point x="40" y="166"/>
      <point x="46" y="158"/>
      <point x="66" y="158" type="curve" smooth="yes"/>
      <point x="529" y="158" type="line" smooth="yes"/>
      <point x="552" y="158"/>
      <point x="562" y="166"/>
      <point x="562" y="186" type="curve" smooth="yes"/>
      <point x="562" y="279" type="line" smooth="yes"/>
    </contour>
  </outline>
</glyph>
<glyph name="greater" format="1">
  <advance width="599"/>
  <unicode hex="003E"/>
  <outline>
    <contour>
      <point x="55" y="114" type="line" smooth="yes"/>
      <point x="55" y="88"/>
      <point x="72" y="81"/>
      <point x="93" y="89" type="curve" smooth="yes"/>
      <point x="536" y="259" type="line" smooth="yes"/>
      <point x="552" y="265"/>
      <point x="564" y="275"/>
      <point x="564" y="293" type="curve" smooth="yes"/>
      <point x="564" y="404" type="line" smooth="yes"/>
      <point x="564" y="424"/>
      <point x="553" y="434"/>
      <point x="536" y="440" type="curve" smooth="yes"/>
      <point x="92" y="611" type="line" smooth="yes"/>
      <point x="72" y="619"/>
      <point x="55" y="605"/>
      <point x="55" y="586" type="curve" smooth="yes"/>
      <point x="55" y="490" type="line" smooth="yes"/>
      <point x="55" y="468"/>
      <point x="69" y="455"/>
      <point x="100" y="443" type="curve" smooth="yes"/>
      <point x="353" y="348" type="line"/>
      <point x="100" y="256" type="line" smooth="yes"/>
      <point x="68" y="244"/>
      <point x="55" y="234"/>
      <point x="55" y="210" type="curve" smooth="yes"/>
    </contour>
  </outline>
</glyph>
<glyph name="question" format="1">
  <advance width="500"/>
  <unicode hex="003F"/>
  <outline>
    <contour>
      <point x="330" y="179"/>
      <point x="324" y="186"/>
      <point x="313" y="186" type="curve" smooth="yes"/>
      <point x="150" y="186" type="line" smooth="yes"/>
      <point x="139" y="186"/>
      <point x="132" y="179"/>
      <point x="132" y="165" type="curve" smooth="yes"/>
      <point x="132" y="24" type="line" smooth="yes"/>
      <point x="132" y="8"/>
      <point x="138" y="0"/>
      <point x="157" y="0" type="curve" smooth="yes"/>
      <point x="299" y="0" type="line" smooth="yes"/>
      <point x="321" y="0"/>
      <point x="330" y="8"/>
      <point x="330" y="27" type="curve" smooth="yes"/>
      <point x="330" y="167" type="line" smooth="yes"/>
    </contour>
    <contour>
      <point x="120" y="505" type="line" smooth="yes"/>
      <point x="134" y="502"/>
      <point x="139" y="504"/>
      <point x="144" y="516" type="curve" smooth="yes"/>
      <point x="164" y="564"/>
      <point x="201" y="589"/>
      <point x="241" y="589" type="curve" smooth="yes"/>
      <point x="274" y="589"/>
      <point x="302" y="569"/>
      <point x="302" y="539" type="curve" smooth="yes"/>
      <point x="302" y="472"/>
      <point x="159" y="438"/>
      <point x="159" y="281" type="curve" smooth="yes"/>
      <point x="159" y="263"/>
      <point x="168" y="254"/>
      <point x="183" y="254" type="curve" smooth="yes"/>
      <point x="282" y="254" type="line" smooth="yes"/>
      <point x="295" y="254"/>
      <point x="306" y="264"/>
      <point x="306" y="277" type="curve" smooth="yes"/>
      <point x="306" y="401"/>
      <point x="486" y="409"/>
      <point x="486" y="549" type="curve" smooth="yes"/>
      <point x="486" y="635"/>
      <point x="379" y="708"/>
      <point x="243" y="708" type="curve" smooth="yes"/>
      <point x="116" y="708"/>
      <point x="30" y="658"/>
      <point x="-10" y="557" type="curve" smooth="yes"/>
      <point x="-14" y="547"/>
      <point x="-13" y="534"/>
      <point x="-1" y="531" type="curve" smooth="yes"/>
    </contour>
  </outline>
</glyph>
<glyph name="at" format="1">
  <advance width="834"/>
  <unicode hex="0040"/>
  <outline>
    <contour>
      <point x="678" y="-40"/>
      <point x="683" y="-34"/>
      <point x="677" y="-26" type="curve" smooth="yes"/>
      <point x="637" y="28" type="line" smooth="yes"/>
      <point x="633" y="34"/>
      <point x="627" y="36"/>
      <point x="616" y="29" type="curve" smooth="yes"/>
      <point x="571" y="1"/>
      <point x="532" y="-21"/>
      <point x="445" y="-21" type="curve" smooth="yes"/>
      <point x="266" y="-21"/>
      <point x="146" y="74"/>
      <point x="146" y="265" type="curve" smooth="yes"/>
      <point x="146" y="424"/>
      <point x="229" y="560"/>
      <point x="450" y="560" type="curve" smooth="yes"/>
      <point x="586" y="560"/>
      <point x="708" y="508"/>
      <point x="708" y="332" type="curve" smooth="yes"/>
      <point x="708" y="228"/>
      <point x="666" y="185"/>
      <point x="631" y="185" type="curve" smooth="yes"/>
      <point x="614" y="185"/>
      <point x="600" y="196"/>
      <point x="607" y="235" type="curve" smooth="yes"/>
      <point x="642" y="441" type="line" smooth="yes"/>
      <point x="643" y="447"/>
      <point x="640" y="449"/>
      <point x="634" y="449" type="curve" smooth="yes"/>
      <point x="547" y="449" type="line" smooth="yes"/>
      <point x="541" y="449"/>
      <point x="537" y="447"/>
      <point x="536" y="442" type="curve" smooth="yes"/>
      <point x="535" y="437" type="line" smooth="yes"/>
      <point x="533" y="430"/>
      <point x="529" y="429"/>
      <point x="525" y="433" type="curve" smooth="yes"/>
      <point x="502" y="454"/>
      <point x="478" y="475"/>
      <point x="422" y="475" type="curve" smooth="yes"/>
      <point x="292" y="475"/>
      <point x="213" y="363"/>
      <point x="213" y="244" type="curve" smooth="yes"/>
      <point x="212" y="136"/>
      <point x="280" y="67"/>
      <point x="372" y="67" type="curve" smooth="yes"/>
      <point x="426" y="67"/>
      <point x="472" y="90"/>
      <point x="502" y="123" type="curve" smooth="yes"/>
      <point x="508" y="130"/>
      <point x="509" y="131"/>
      <point x="515" y="124" type="curve" smooth="yes"/>
      <point x="527" y="110"/>
      <point x="554" y="81"/>
      <point x="617" y="81" type="curve" smooth="yes"/>
      <point x="737" y="81"/>
      <point x="817" y="187"/>
      <point x="817" y="338" type="curve" smooth="yes"/>
      <point x="817" y="565"/>
      <point x="636" y="661"/>
      <point x="450" y="661" type="curve" smooth="yes"/>
      <point x="191" y="661"/>
      <point x="33" y="477"/>
      <point x="33" y="262" type="curve" smooth="yes"/>
      <point x="33" y="55"/>
      <point x="180" y="-113"/>
      <point x="428" y="-113" type="curve" smooth="yes"/>
      <point x="540" y="-113"/>
      <point x="628" y="-79"/>
      <point x="670" y="-46" type="curve" smooth="yes"/>
    </contour>
    <contour>
      <point x="345" y="318"/>
      <point x="387" y="364"/>
      <point x="432" y="364" type="curve" smooth="yes"/>
      <point x="475" y="364"/>
      <point x="497" y="323"/>
      <point x="497" y="283" type="curve" smooth="yes"/>
      <point x="497" y="232"/>
      <point x="460" y="178"/>
      <point x="408" y="178" type="curve" smooth="yes"/>
      <point x="364" y="178"/>
      <point x="345" y="218"/>
      <point x="345" y="258" type="curve" smooth="yes"/>
    </contour>
  </outline>
</glyph>
<glyph name="A" format="1">
  <advance width="710"/>
  <unicode hex="0041"/>
  <outline>
    <contour>
      <point x="242" y="742"/>
      <point x="235" y="735"/>
      <point x="230" y="719" type="curve" smooth="yes"/>
      <point x="-4" y="37" type="line" smooth="yes"/>
      <point x="-12" y="15"/>
      <point x="-4" y="0"/>
      <point x="11" y="0" type="curve" smooth="yes"/>
      <point x="163" y="0" type="line" smooth="yes"/>
      <point x="177" y="0"/>
      <point x="184" y="7"/>
      <point x="187" y="15" type="curve" smooth="yes"/>
      <point x="225" y="133" type="line" smooth="yes"/>
      <point x="227" y="140"/>
      <point x="232" y="144"/>
      <point x="240" y="144" type="curve" smooth="yes"/>
      <point x="441" y="144" type="line" smooth="yes"/>
      <point x="451" y="144"/>
      <point x="453" y="139"/>
      <point x="456" y="132" type="curve" smooth="yes"/>
      <point x="492" y="17" type="line" smooth="yes"/>
      <point x="496" y="4"/>
      <point x="504" y="0"/>
      <point x="514" y="0" type="curve" smooth="yes"/>
      <point x="710" y="0" type="line" smooth="yes"/>
      <point x="725" y="0"/>
      <point x="729" y="20"/>
      <point x="724" y="34" type="curve" smooth="yes"/>
      <point x="492" y="715" type="line" smooth="yes"/>
      <point x="487" y="731"/>
      <point x="474" y="742"/>
      <point x="457" y="742" type="curve" smooth="yes"/>
      <point x="259" y="742" type="line" smooth="yes"/>
    </contour>
    <contour>
      <point x="404" y="321"/>
      <point x="402" y="314"/>
      <point x="391" y="314" type="curve" smooth="yes"/>
      <point x="288" y="314" type="line" smooth="yes"/>
      <point x="276" y="314"/>
      <point x="273" y="322"/>
      <point x="278" y="335" type="curve" smooth="yes"/>
      <point x="334" y="505" type="line" smooth="yes"/>
      <point x="336" y="512"/>
      <point x="342" y="512"/>
      <point x="345" y="505" type="curve" smooth="yes"/>
      <point x="400" y="334" type="line" smooth="yes"/>
    </contour>
    <contour>
      <point x="694" y="10" type="move" name="ogonek"/>
    </contour>
    <contour>
      <point x="355" y="742" type="move" name="top"/>
    </contour>
  </outline>
</glyph>
<glyph name="B" format="1">
  <advance width="740"/>
  <unicode hex="0042"/>
  <outline>
    <contour>
      <point x="55" y="0"/>
      <point x="46" y="10"/>
      <point x="46" y="22" type="curve" smooth="yes"/>
      <point x="46" y="716" type="line" smooth="yes"/>
      <point x="46" y="731"/>
      <point x="56" y="742"/>
      <point x="71" y="742" type="curve" smooth="yes"/>
      <point x="387" y="742" type="line" smooth="yes"/>
      <point x="594" y="742"/>
      <point x="704" y="675"/>
      <point x="704" y="546" type="curve" smooth="yes"/>
      <point x="704" y="477"/>
      <point x="673" y="432"/>
      <point x="573" y="386" type="curve" smooth="yes"/>
      <point x="570" y="385"/>
      <point x="570" y="380"/>
      <point x="573" y="379" type="curve" smooth="yes"/>
      <point x="683" y="338"/>
      <point x="722" y="287"/>
      <point x="722" y="202" type="curve" smooth="yes"/>
      <point x="722" y="65"/>
      <point x="619" y="0"/>
      <point x="403" y="0" type="curve" smooth="yes"/>
      <point x="69" y="0" type="line" smooth="yes"/>
    </contour>
    <contour>
      <point x="273" y="459"/>
      <point x="277" y="452"/>
      <point x="290" y="452" type="curve" smooth="yes"/>
      <point x="403" y="452" type="line" smooth="yes"/>
      <point x="450" y="452"/>
      <point x="480" y="481"/>
      <point x="480" y="520" type="curve" smooth="yes"/>
      <point x="480" y="564"/>
      <point x="443" y="592"/>
      <point x="396" y="592" type="curve" smooth="yes"/>
      <point x="296" y="592" type="line" smooth="yes"/>
      <point x="279" y="592"/>
      <point x="273" y="587"/>
      <point x="273" y="572" type="curve" smooth="yes"/>
      <point x="273" y="474" type="line" smooth="yes"/>
    </contour>
    <contour>
      <point x="273" y="157"/>
      <point x="277" y="150"/>
      <point x="290" y="150" type="curve" smooth="yes"/>
      <point x="398" y="150" type="line" smooth="yes"/>
      <point x="456" y="150"/>
      <point x="486" y="188"/>
      <point x="486" y="227" type="curve" smooth="yes"/>
      <point x="486" y="268"/>
      <point x="453" y="298"/>
      <point x="403" y="298" type="curve" smooth="yes"/>
      <point x="296" y="298" type="line" smooth="yes"/>
      <point x="279" y="298"/>
      <point x="273" y="292"/>
      <point x="273" y="277" type="curve" smooth="yes"/>
      <point x="273" y="172" type="line" smooth="yes"/>
    </contour>
  </outline>
</glyph>
<glyph name="C" format="1">
  <advance width="756"/>
  <unicode hex="0043"/>
  <outline>
    <contour>
      <point x="561" y="750"/>
      <point x="682" y="655"/>
      <point x="708" y="522" type="curve" smooth="yes"/>
      <point x="714" y="494"/>
      <point x="710" y="489"/>
      <point x="695" y="487" type="curve"/>
      <point x="520" y="476" type="line"/>
      <point x="505" y="476"/>
      <point x="503" y="481"/>
      <point x="501" y="495" type="curve" smooth="yes"/>
      <point x="490" y="550"/>
      <point x="464" y="595"/>
      <point x="398" y="595" type="curve" smooth="yes"/>
      <point x="323" y="595"/>
      <point x="275" y="537"/>
      <point x="275" y="377" type="curve" smooth="yes"/>
      <point x="275" y="215"/>
      <point x="324" y="157"/>
      <point x="405" y="157" type="curve" smooth="yes"/>
      <point x="472" y="157"/>
      <point x="515" y="186"/>
      <point x="550" y="271" type="curve" smooth="yes"/>
      <point x="554" y="279"/>
      <point x="562" y="282"/>
      <point x="578" y="279" type="curve" smooth="yes"/>
      <point x="703" y="254" type="line" smooth="yes"/>
      <point x="710" y="252"/>
      <point x="721" y="247"/>
      <point x="717" y="221" type="curve" smooth="yes"/>
      <point x="707" y="167"/>
      <point x="621" y="-8"/>
      <point x="390" y="-8" type="curve" smooth="yes"/>
      <point x="175" y="-8"/>
      <point x="36" y="145"/>
      <point x="36" y="371" type="curve" smooth="yes"/>
      <point x="36" y="596"/>
      <point x="175" y="750"/>
      <point x="392" y="750" type="curve" smooth="yes"/>
    </contour>
  </outline>
</glyph>
<glyph name="D" format="1">
  <advance width="700"/>
  <unicode hex="0044"/>
  <outline>
    <contour>
      <point x="49" y="696"/>
      <point x="45" y="692"/>
      <point x="41" y="684" type="curve" smooth="yes"/>
      <point x="39" y="678"/>
      <point x="38" y="657"/>
      <point x="37" y="551" type="curve" smooth="yes"/>
      <point x="37" y="375"/>
      <point x="36" y="223"/>
      <point x="37" y="126" type="curve" smooth="yes"/>
      <point x="37" y="81"/>
      <point x="36" y="37"/>
      <point x="36" y="30" type="curve" smooth="yes"/>
      <point x="35" y="18"/>
      <point x="35" y="15"/>
      <point x="38" y="11" type="curve" smooth="yes"/>
      <point x="47" y="0"/>
      <point x="53" y="-1"/>
      <point x="90" y="0" type="curve" smooth="yes"/>
      <point x="170" y="3"/>
      <point x="249" y="4"/>
      <point x="306" y="3" type="curve" smooth="yes"/>
      <point x="312" y="3"/>
      <point x="356" y="5"/>
      <point x="376" y="6" type="curve" smooth="yes"/>
      <point x="408" y="9"/>
      <point x="451" y="17"/>
      <point x="461" y="23" type="curve" smooth="yes"/>
      <point x="465" y="25"/>
      <point x="470" y="27"/>
      <point x="474" y="28" type="curve" smooth="yes"/>
      <point x="477" y="28"/>
      <point x="481" y="30"/>
      <point x="482" y="31" type="curve" smooth="yes"/>
      <point x="483" y="31"/>
      <point x="489" y="34"/>
      <point x="495" y="36" type="curve" smooth="yes"/>
      <point x="514" y="44"/>
      <point x="519" y="46"/>
      <point x="541" y="61" type="curve" smooth="yes"/>
      <point x="578" y="85"/>
      <point x="611" y="119"/>
      <point x="631" y="152" type="curve" smooth="yes"/>
      <point x="635" y="158"/>
      <point x="641" y="168"/>
      <point x="645" y="175" type="curve" smooth="yes"/>
      <point x="654" y="188"/>
      <point x="674" y="246"/>
      <point x="674" y="257" type="curve" smooth="yes"/>
      <point x="674" y="260"/>
      <point x="675" y="269"/>
      <point x="676" y="276" type="curve" smooth="yes"/>
      <point x="681" y="311"/>
      <point x="682" y="325"/>
      <point x="682" y="358" type="curve" smooth="yes"/>
      <point x="683" y="397"/>
      <point x="680" y="419"/>
      <point x="670" y="458" type="curve" smooth="yes"/>
      <point x="663" y="482"/>
      <point x="651" y="515"/>
      <point x="644" y="523" type="curve" smooth="yes"/>
      <point x="641" y="527"/>
      <point x="637" y="534"/>
      <point x="635" y="539" type="curve" smooth="yes"/>
      <point x="633" y="544"/>
      <point x="627" y="554"/>
      <point x="621" y="560" type="curve" smooth="yes"/>
      <point x="616" y="566"/>
      <point x="610" y="574"/>
      <point x="608" y="577" type="curve" smooth="yes"/>
      <point x="596" y="591"/>
      <point x="587" y="600"/>
      <point x="575" y="609" type="curve" smooth="yes"/>
      <point x="568" y="614"/>
      <point x="559" y="620"/>
      <point x="556" y="624" type="curve" smooth="yes"/>
      <point x="533" y="643"/>
      <point x="477" y="669"/>
      <point x="446" y="675" type="curve" smooth="yes"/>
      <point x="439" y="677"/>
      <point x="421" y="680"/>
      <point x="406" y="683" type="curve" smooth="yes"/>
      <point x="375" y="690"/>
      <point x="356" y="692"/>
      <point x="301" y="693" type="curve" smooth="yes"/>
      <point x="246" y="694"/>
      <point x="108" y="698"/>
      <point x="98" y="698" type="curve" smooth="yes"/>
      <point x="94" y="699"/>
      <point x="85" y="700"/>
      <point x="79" y="700" type="curve" smooth="yes"/>
      <point x="72" y="701"/>
      <point x="63" y="700"/>
      <point x="59" y="699" type="curve" smooth="yes"/>
    </contour>
    <contour>
      <point x="308" y="550"/>
      <point x="318" y="549"/>
      <point x="322" y="549" type="curve" smooth="yes"/>
      <point x="361" y="542"/>
      <point x="365" y="540"/>
      <point x="388" y="527" type="curve" smooth="yes"/>
      <point x="420" y="508"/>
      <point x="447" y="473"/>
      <point x="454" y="442" type="curve" smooth="yes"/>
      <point x="455" y="436"/>
      <point x="457" y="429"/>
      <point x="458" y="426" type="curve" smooth="yes"/>
      <point x="462" y="416"/>
      <point x="462" y="404"/>
      <point x="462" y="353" type="curve" smooth="yes"/>
      <point x="462" y="310"/>
      <point x="461" y="296"/>
      <point x="459" y="287" type="curve" smooth="yes"/>
      <point x="457" y="281"/>
      <point x="456" y="273"/>
      <point x="456" y="270" type="curve" smooth="yes"/>
      <point x="456" y="263"/>
      <point x="446" y="240"/>
      <point x="435" y="222" type="curve" smooth="yes"/>
      <point x="426" y="206"/>
      <point x="409" y="187"/>
      <point x="397" y="179" type="curve" smooth="yes"/>
      <point x="383" y="170"/>
      <point x="361" y="160"/>
      <point x="352" y="158" type="curve" smooth="yes"/>
      <point x="347" y="158"/>
      <point x="341" y="156"/>
      <point x="338" y="155" type="curve" smooth="yes"/>
      <point x="329" y="153"/>
      <point x="302" y="149"/>
      <point x="280" y="148" type="curve" smooth="yes"/>
      <point x="253" y="147"/>
      <point x="253" y="147"/>
      <point x="253" y="174" type="curve" smooth="yes"/>
      <point x="252" y="291"/>
      <point x="253" y="433"/>
      <point x="254" y="434" type="curve" smooth="yes"/>
      <point x="255" y="435"/>
      <point x="254" y="459"/>
      <point x="253" y="487" type="curve" smooth="yes"/>
      <point x="252" y="538"/>
      <point x="252" y="548"/>
      <point x="257" y="551" type="curve" smooth="yes"/>
      <point x="258" y="552"/>
      <point x="264" y="552"/>
      <point x="271" y="552" type="curve" smooth="yes"/>
      <point x="278" y="551"/>
      <point x="290" y="551"/>
      <point x="299" y="550" type="curve" smooth="yes"/>
    </contour>
  </outline>
</glyph>
<glyph name="E" format="1">
  <advance width="620"/>
  <unicode hex="0045"/>
  <outline>
    <contour>
      <point x="61" y="693"/>
      <point x="50" y="690"/>
      <point x="48" y="688" type="curve" smooth="yes"/>
      <point x="46" y="687"/>
      <point x="45" y="681"/>
      <point x="45" y="673" type="curve" smooth="yes"/>
      <point x="45" y="666"/>
      <point x="44" y="659"/>
      <point x="43" y="658" type="curve" smooth="yes"/>
      <point x="42" y="657"/>
      <point x="41" y="534"/>
      <point x="41" y="385" type="curve" smooth="yes"/>
      <point x="41" y="237"/>
      <point x="40" y="92"/>
      <point x="40" y="64" type="curve" smooth="yes"/>
      <point x="40" y="36"/>
      <point x="40" y="12"/>
      <point x="41" y="10" type="curve" smooth="yes"/>
      <point x="42" y="8"/>
      <point x="46" y="5"/>
      <point x="50" y="3" type="curve" smooth="yes"/>
      <point x="57" y="0"/>
      <point x="65" y="0"/>
      <point x="103" y="0" type="curve" smooth="yes"/>
      <point x="167" y="1"/>
      <point x="435" y="1"/>
      <point x="509" y="1" type="curve" smooth="yes"/>
      <point x="579" y="0"/>
      <point x="585" y="1"/>
      <point x="590" y="12" type="curve" smooth="yes"/>
      <point x="592" y="16"/>
      <point x="594" y="34"/>
      <point x="596" y="74" type="curve" smooth="yes"/>
      <point x="600" y="140"/>
      <point x="599" y="145"/>
      <point x="587" y="153" type="curve" smooth="yes"/>
      <point x="579" y="157"/>
      <point x="579" y="157"/>
      <point x="542" y="156" type="curve" smooth="yes"/>
      <point x="522" y="155"/>
      <point x="474" y="155"/>
      <point x="435" y="155" type="curve" smooth="yes"/>
      <point x="381" y="155"/>
      <point x="364" y="154"/>
      <point x="358" y="152" type="curve" smooth="yes"/>
      <point x="353" y="150"/>
      <point x="349" y="150"/>
      <point x="347" y="151" type="curve" smooth="yes"/>
      <point x="345" y="152"/>
      <point x="329" y="154"/>
      <point x="310" y="154" type="curve" smooth="yes"/>
      <point x="283" y="154"/>
      <point x="275" y="154"/>
      <point x="273" y="152" type="curve" smooth="yes"/>
      <point x="271" y="150"/>
      <point x="270" y="150"/>
      <point x="269" y="151" type="curve" smooth="yes"/>
      <point x="268" y="152"/>
      <point x="266" y="153"/>
      <point x="263" y="153" type="curve" smooth="yes"/>
      <point x="254" y="153"/>
      <point x="253" y="156"/>
      <point x="253" y="202" type="curve" smooth="yes"/>
      <point x="253" y="246"/>
      <point x="256" y="268"/>
      <point x="260" y="273" type="curve" smooth="yes"/>
      <point x="263" y="276"/>
      <point x="287" y="276"/>
      <point x="408" y="275" type="curve" smooth="yes"/>
      <point x="459" y="275"/>
      <point x="461" y="275"/>
      <point x="464" y="290" type="curve" smooth="yes"/>
      <point x="467" y="302"/>
      <point x="466" y="404"/>
      <point x="463" y="413" type="curve" smooth="yes"/>
      <point x="460" y="423"/>
      <point x="454" y="426"/>
      <point x="430" y="428" type="curve" smooth="yes"/>
      <point x="417" y="429"/>
      <point x="406" y="430"/>
      <point x="404" y="430" type="curve" smooth="yes"/>
      <point x="369" y="428"/>
      <point x="356" y="428"/>
      <point x="303" y="428" type="curve" smooth="yes"/>
      <point x="251" y="429"/>
      <point x="255" y="425"/>
      <point x="256" y="481" type="curve" smooth="yes"/>
      <point x="256" y="541"/>
      <point x="257" y="543"/>
      <point x="282" y="543" type="curve" smooth="yes"/>
      <point x="288" y="543"/>
      <point x="347" y="543"/>
      <point x="413" y="542" type="curve" smooth="yes"/>
      <point x="480" y="541"/>
      <point x="542" y="541"/>
      <point x="552" y="540" type="curve" smooth="yes"/>
      <point x="573" y="539"/>
      <point x="581" y="542"/>
      <point x="585" y="553" type="curve" smooth="yes"/>
      <point x="587" y="557"/>
      <point x="587" y="579"/>
      <point x="587" y="621" type="curve" smooth="yes"/>
      <point x="587" y="683" type="line"/>
      <point x="582" y="689" type="line"/>
      <point x="576" y="694" type="line"/>
      <point x="502" y="693" type="line" smooth="yes"/>
      <point x="461" y="693"/>
      <point x="424" y="693"/>
      <point x="420" y="693" type="curve" smooth="yes"/>
      <point x="341" y="692"/>
      <point x="125" y="696"/>
      <point x="106" y="698" type="curve" smooth="yes"/>
      <point x="103" y="698"/>
      <point x="88" y="697"/>
      <point x="75" y="695" type="curve" smooth="yes"/>
    </contour>
  </outline>
</glyph>
<glyph name="F" format="1">
  <advance width="628"/>
  <unicode hex="0046"/>
  <outline>
    <contour>
      <point x="49" y="734"/>
      <point x="57" y="742"/>
      <point x="68" y="742" type="curve" smooth="yes"/>
      <point x="598" y="742" type="line" smooth="yes"/>
      <point x="610" y="742"/>
      <point x="616" y="734"/>
      <point x="616" y="721" type="curve" smooth="yes"/>
      <point x="615" y="605" type="line" smooth="yes"/>
      <point x="615" y="589"/>
      <point x="608" y="578"/>
      <point x="590" y="578" type="curve" smooth="yes"/>
      <point x="296" y="578" type="line" smooth="yes"/>
      <point x="280" y="578"/>
      <point x="273" y="572"/>
      <point x="273" y="559" type="curve" smooth="yes"/>
      <point x="273" y="465" type="line" smooth="yes"/>
      <point x="273" y="451"/>
      <point x="280" y="445"/>
      <point x="291" y="445" type="curve" smooth="yes"/>
      <point x="474" y="445" type="line" smooth="yes"/>
      <point x="488" y="445"/>
      <point x="494" y="438"/>
      <point x="494" y="425" type="curve" smooth="yes"/>
      <point x="494" y="303" type="line" smooth="yes"/>
      <point x="494" y="293"/>
      <point x="490" y="286"/>
      <point x="476" y="286" type="curve" smooth="yes"/>
      <point x="289" y="286" type="line" smooth="yes"/>
      <point x="279" y="286"/>
      <point x="273" y="280"/>
      <point x="273" y="271" type="curve" smooth="yes"/>
      <point x="273" y="29" type="line" smooth="yes"/>
      <point x="273" y="8"/>
      <point x="263" y="0"/>
      <point x="240" y="0" type="curve" smooth="yes"/>
      <point x="72" y="0" type="line"/>
      <point x="51" y="0"/>
      <point x="45" y="8"/>
      <point x="45" y="25" type="curve" smooth="yes"/>
      <point x="49" y="719" type="line" smooth="yes"/>
    </contour>
  </outline>
</glyph>
<glyph name="G" format="1">
  <advance width="720"/>
  <unicode hex="0047"/>
  <outline>
    <contour>
      <point x="465" y="163"/>
      <point x="432" y="138"/>
      <point x="377" y="138" type="curve" smooth="yes"/>
      <point x="305" y="138"/>
      <point x="256" y="182"/>
      <point x="256" y="353" type="curve" smooth="yes"/>
      <point x="256" y="514"/>
      <point x="299" y="564"/>
      <point x="369" y="564" type="curve" smooth="yes"/>
      <point x="437" y="564"/>
      <point x="470" y="516"/>
      <point x="480" y="464" type="curve" smooth="yes"/>
      <point x="482" y="452"/>
      <point x="483" y="446"/>
      <point x="498" y="446" type="curve"/>
      <point x="660" y="470" type="line"/>
      <point x="675" y="472"/>
      <point x="679" y="477"/>
      <point x="673" y="503" type="curve" smooth="yes"/>
      <point x="650" y="604"/>
      <point x="544" y="708"/>
      <point x="374" y="708" type="curve" smooth="yes"/>
      <point x="174" y="708"/>
      <point x="33" y="565"/>
      <point x="33" y="347" type="curve" smooth="yes"/>
      <point x="33" y="137"/>
      <point x="164" y="-8"/>
      <point x="362" y="-8" type="curve" smooth="yes"/>
      <point x="473" y="-8"/>
      <point x="521" y="38"/>
      <point x="555" y="71" type="curve" smooth="yes"/>
      <point x="560" y="76"/>
      <point x="563" y="76"/>
      <point x="565" y="73" type="curve" smooth="yes"/>
      <point x="603" y="18" type="line" smooth="yes"/>
      <point x="612" y="5"/>
      <point x="622" y="0"/>
      <point x="633" y="0" type="curve" smooth="yes"/>
      <point x="669" y="0" type="line" smooth="yes"/>
      <point x="679" y="0"/>
      <point x="685" y="8"/>
      <point x="685" y="16" type="curve" smooth="yes"/>
      <point x="685" y="325" type="line" smooth="yes"/>
      <point x="685" y="342"/>
      <point x="673" y="354"/>
      <point x="649" y="354" type="curve" smooth="yes"/>
      <point x="385" y="356" type="line" smooth="yes"/>
      <point x="371" y="356"/>
      <point x="365" y="349"/>
      <point x="365" y="340" type="curve" smooth="yes"/>
      <point x="365" y="249" type="line" smooth="yes"/>
      <point x="365" y="233"/>
      <point x="371" y="228"/>
      <point x="384" y="228" type="curve" smooth="yes"/>
      <point x="473" y="228" type="line" smooth="yes"/>
      <point x="482" y="228"/>
      <point x="485" y="223"/>
      <point x="481" y="212" type="curve" smooth="yes"/>
    </contour>
  </outline>
</glyph>
<glyph name="H" format="1">
  <advance width="730"/>
  <unicode hex="0048"/>
  <outline>
    <contour>
      <point x="281" y="280" type="line" smooth="yes"/>
      <point x="272" y="280"/>
      <point x="266" y="274"/>
      <point x="266" y="266" type="curve" smooth="yes"/>
      <point x="266" y="27" type="line" smooth="yes"/>
      <point x="266" y="8"/>
      <point x="257" y="0"/>
      <point x="235" y="0" type="curve" smooth="yes"/>
      <point x="76" y="0" type="line"/>
      <point x="57" y="0"/>
      <point x="51" y="8"/>
      <point x="51" y="24" type="curve" smooth="yes"/>
      <point x="55" y="679" type="line" smooth="yes"/>
      <point x="55" y="693"/>
      <point x="62" y="700"/>
      <point x="73" y="700" type="curve" smooth="yes"/>
      <point x="249" y="700" type="line" smooth="yes"/>
      <point x="260" y="700"/>
      <point x="266" y="693"/>
      <point x="266" y="681" type="curve" smooth="yes"/>
      <point x="266" y="462" type="line" smooth="yes"/>
      <point x="266" y="449"/>
      <point x="273" y="443"/>
      <point x="283" y="443" type="curve" smooth="yes"/>
      <point x="441" y="443" type="line" smooth="yes"/>
      <point x="451" y="443"/>
      <point x="458" y="449"/>
      <point x="458" y="462" type="curve" smooth="yes"/>
      <point x="458" y="681" type="line" smooth="yes"/>
      <point x="458" y="693"/>
      <point x="464" y="700"/>
      <point x="475" y="700" type="curve" smooth="yes"/>
      <point x="651" y="700" type="line" smooth="yes"/>
      <point x="662" y="700"/>
      <point x="669" y="693"/>
      <point x="669" y="679" type="curve" smooth="yes"/>
      <point x="673" y="24" type="line" smooth="yes"/>
      <point x="673" y="8"/>
      <point x="667" y="0"/>
      <point x="648" y="0" type="curve"/>
      <point x="489" y="0" type="line" smooth="yes"/>
      <point x="467" y="0"/>
      <point x="458" y="8"/>
      <point x="458" y="27" type="curve" smooth="yes"/>
      <point x="458" y="266" type="line" smooth="yes"/>
      <point x="458" y="274"/>
      <point x="452" y="280"/>
      <point x="443" y="280" type="curve" smooth="yes"/>
    </contour>
  </outline>
</glyph>
<glyph name="I" format="1">
  <advance width="320"/>
  <unicode hex="0049"/>
  <outline>
    <contour>
      <point x="59" y="702"/>
      <point x="54" y="698"/>
      <point x="52" y="686" type="curve" smooth="yes"/>
      <point x="50" y="680"/>
      <point x="50" y="624"/>
      <point x="51" y="497" type="curve" smooth="yes"/>
      <point x="52" y="270"/>
      <point x="52" y="296"/>
      <point x="51" y="146" type="curve" smooth="yes"/>
      <point x="50" y="24"/>
      <point x="50" y="17"/>
      <point x="54" y="12" type="curve" smooth="yes"/>
      <point x="60" y="0"/>
      <point x="54" y="1"/>
      <point x="230" y="0" type="curve" smooth="yes"/>
      <point x="251" y="0"/>
      <point x="262" y="2"/>
      <point x="267" y="8" type="curve" smooth="yes"/>
      <point x="271" y="12"/>
      <point x="274" y="50"/>
      <point x="271" y="66" type="curve" smooth="yes"/>
      <point x="270" y="72"/>
      <point x="270" y="92"/>
      <point x="270" y="112" type="curve" smooth="yes"/>
      <point x="271" y="131"/>
      <point x="272" y="149"/>
      <point x="272" y="152" type="curve" smooth="yes"/>
      <point x="272" y="154"/>
      <point x="271" y="277"/>
      <point x="271" y="424" type="curve" smooth="yes"/>
      <point x="271" y="692" type="line"/>
      <point x="265" y="697" type="line"/>
      <point x="260" y="703" type="line"/>
      <point x="201" y="703" type="line" smooth="yes"/>
      <point x="169" y="703"/>
      <point x="128" y="704"/>
      <point x="112" y="704" type="curve" smooth="yes"/>
      <point x="95" y="705"/>
      <point x="77" y="704"/>
      <point x="71" y="704" type="curve" smooth="yes"/>
    </contour>
  </outline>
</glyph>
<glyph name="J" format="1">
  <advance width="440"/>
  <unicode hex="004A"/>
  <outline>
    <contour>
      <point x="190" y="713"/>
      <point x="185" y="710"/>
      <point x="182" y="707" type="curve" smooth="yes"/>
      <point x="178" y="702"/>
      <point x="178" y="701"/>
      <point x="178" y="660" type="curve" smooth="yes"/>
      <point x="179" y="636"/>
      <point x="179" y="539"/>
      <point x="179" y="442" type="curve" smooth="yes"/>
      <point x="179" y="346"/>
      <point x="179" y="263"/>
      <point x="179" y="260" type="curve" smooth="yes"/>
      <point x="179" y="233"/>
      <point x="170" y="207"/>
      <point x="156" y="194" type="curve" smooth="yes"/>
      <point x="140" y="178"/>
      <point x="106" y="171"/>
      <point x="76" y="177" type="curve" smooth="yes"/>
      <point x="50" y="182"/>
      <point x="44" y="182"/>
      <point x="40" y="180" type="curve" smooth="yes"/>
      <point x="33" y="176"/>
      <point x="31" y="168"/>
      <point x="28" y="145" type="curve" smooth="yes"/>
      <point x="27" y="132"/>
      <point x="26" y="118"/>
      <point x="25" y="113" type="curve" smooth="yes"/>
      <point x="25" y="109"/>
      <point x="23" y="88"/>
      <point x="22" y="68" type="curve" smooth="yes"/>
      <point x="20" y="34"/>
      <point x="20" y="31"/>
      <point x="24" y="25" type="curve" smooth="yes"/>
      <point x="29" y="16"/>
      <point x="39" y="10"/>
      <point x="48" y="10" type="curve" smooth="yes"/>
      <point x="52" y="10"/>
      <point x="63" y="8"/>
      <point x="72" y="6" type="curve" smooth="yes"/>
      <point x="120" y="-5"/>
      <point x="227" y="-1"/>
      <point x="268" y="14" type="curve" smooth="yes"/>
      <point x="274" y="16"/>
      <point x="281" y="19"/>
      <point x="285" y="20" type="curve" smooth="yes"/>
      <point x="295" y="23"/>
      <point x="325" y="38"/>
      <point x="331" y="44" type="curve" smooth="yes"/>
      <point x="335" y="47"/>
      <point x="341" y="52"/>
      <point x="344" y="55" type="curve" smooth="yes"/>
      <point x="360" y="67"/>
      <point x="381" y="100"/>
      <point x="384" y="121" type="curve" smooth="yes"/>
      <point x="385" y="125"/>
      <point x="387" y="132"/>
      <point x="389" y="136" type="curve" smooth="yes"/>
      <point x="393" y="144"/>
      <point x="393" y="152"/>
      <point x="396" y="202" type="curve" smooth="yes"/>
      <point x="399" y="280"/>
      <point x="398" y="694"/>
      <point x="395" y="702" type="curve" smooth="yes"/>
      <point x="390" y="714"/>
      <point x="388" y="714"/>
      <point x="290" y="715" type="curve" smooth="yes"/>
      <point x="241" y="715"/>
      <point x="198" y="715"/>
      <point x="194" y="714" type="curve" smooth="yes"/>
    </contour>
  </outline>
</glyph>
<glyph name="K" format="1">
  <advance width="701"/>
  <unicode hex="004B"/>
  <outline>
    <contour>
      <point x="31" y="698"/>
      <point x="23" y="694"/>
      <point x="21" y="686" type="curve" smooth="yes"/>
      <point x="20" y="684"/>
      <point x="20" y="648"/>
      <point x="20" y="606" type="curve" smooth="yes"/>
      <point x="20" y="565"/>
      <point x="20" y="506"/>
      <point x="20" y="475" type="curve" smooth="yes"/>
      <point x="20" y="443"/>
      <point x="20" y="415"/>
      <point x="20" y="411" type="curve" smooth="yes"/>
      <point x="20" y="408"/>
      <point x="20" y="325"/>
      <point x="20" y="229" type="curve" smooth="yes"/>
      <point x="20" y="132"/>
      <point x="20" y="46"/>
      <point x="20" y="37" type="curve" smooth="yes"/>
      <point x="20" y="15"/>
      <point x="21" y="11"/>
      <point x="30" y="5" type="curve" smooth="yes"/>
      <point x="37" y="0" type="line"/>
      <point x="132" y="0" type="line"/>
      <point x="227" y="1" type="line"/>
      <point x="233" y="6" type="line"/>
      <point x="238" y="12" type="line"/>
      <point x="237" y="72" type="line" smooth="yes"/>
      <point x="235" y="177"/>
      <point x="235" y="177"/>
      <point x="241" y="188" type="curve" smooth="yes"/>
      <point x="244" y="193"/>
      <point x="250" y="200"/>
      <point x="253" y="204" type="curve" smooth="yes"/>
      <point x="257" y="208"/>
      <point x="266" y="220"/>
      <point x="273" y="231" type="curve" smooth="yes"/>
      <point x="281" y="242"/>
      <point x="292" y="257"/>
      <point x="298" y="263" type="curve" smooth="yes"/>
      <point x="322" y="291"/>
      <point x="325" y="293"/>
      <point x="329" y="283" type="curve" smooth="yes"/>
      <point x="330" y="280"/>
      <point x="333" y="275"/>
      <point x="335" y="272" type="curve" smooth="yes"/>
      <point x="337" y="270"/>
      <point x="340" y="262"/>
      <point x="342" y="257" type="curve" smooth="yes"/>
      <point x="347" y="243"/>
      <point x="371" y="191"/>
      <point x="383" y="166" type="curve" smooth="yes"/>
      <point x="388" y="155"/>
      <point x="393" y="145"/>
      <point x="393" y="143" type="curve" smooth="yes"/>
      <point x="393" y="142"/>
      <point x="395" y="136"/>
      <point x="398" y="129" type="curve" smooth="yes"/>
      <point x="402" y="123"/>
      <point x="405" y="116"/>
      <point x="406" y="113" type="curve" smooth="yes"/>
      <point x="406" y="110"/>
      <point x="411" y="99"/>
      <point x="417" y="88" type="curve" smooth="yes"/>
      <point x="430" y="59"/>
      <point x="439" y="38"/>
      <point x="443" y="23" type="curve" smooth="yes"/>
      <point x="444" y="17"/>
      <point x="452" y="9"/>
      <point x="460" y="4" type="curve" smooth="yes"/>
      <point x="466" y="0"/>
      <point x="470" y="0"/>
      <point x="520" y="1" type="curve" smooth="yes"/>
      <point x="549" y="2"/>
      <point x="594" y="2"/>
      <point x="619" y="2" type="curve" smooth="yes"/>
      <point x="644" y="1"/>
      <point x="668" y="1"/>
      <point x="671" y="2" type="curve" smooth="yes"/>
      <point x="684" y="6"/>
      <point x="684" y="17"/>
      <point x="671" y="44" type="curve" smooth="yes"/>
      <point x="667" y="53"/>
      <point x="660" y="65"/>
      <point x="657" y="70" type="curve" smooth="yes"/>
      <point x="654" y="75"/>
      <point x="650" y="81"/>
      <point x="649" y="84" type="curve" smooth="yes"/>
      <point x="649" y="86"/>
      <point x="645" y="94"/>
      <point x="642" y="101" type="curve" smooth="yes"/>
      <point x="630" y="127"/>
      <point x="614" y="160"/>
      <point x="601" y="186" type="curve" smooth="yes"/>
      <point x="594" y="201"/>
      <point x="585" y="220"/>
      <point x="582" y="228" type="curve" smooth="yes"/>
      <point x="579" y="236"/>
      <point x="574" y="247"/>
      <point x="571" y="251" type="curve" smooth="yes"/>
      <point x="569" y="256"/>
      <point x="566" y="261"/>
      <point x="566" y="263" type="curve" smooth="yes"/>
      <point x="566" y="265"/>
      <point x="564" y="269"/>
      <point x="562" y="274" type="curve" smooth="yes"/>
      <point x="560" y="278"/>
      <point x="554" y="289"/>
      <point x="549" y="298" type="curve" smooth="yes"/>
      <point x="544" y="307"/>
      <point x="540" y="316"/>
      <point x="538" y="318" type="curve" smooth="yes"/>
      <point x="537" y="319"/>
      <point x="534" y="326"/>
      <point x="531" y="332" type="curve" smooth="yes"/>
      <point x="529" y="339"/>
      <point x="526" y="345"/>
      <point x="524" y="347" type="curve" smooth="yes"/>
      <point x="523" y="349"/>
      <point x="518" y="359"/>
      <point x="513" y="369" type="curve" smooth="yes"/>
      <point x="508" y="380"/>
      <point x="503" y="390"/>
      <point x="502" y="392" type="curve" smooth="yes"/>
      <point x="500" y="395"/>
      <point x="499" y="398"/>
      <point x="492" y="414" type="curve" smooth="yes"/>
      <point x="489" y="420"/>
      <point x="485" y="427"/>
      <point x="482" y="432" type="curve" smooth="yes"/>
      <point x="475" y="442"/>
      <point x="467" y="461"/>
      <point x="467" y="466" type="curve" smooth="yes"/>
      <point x="467" y="473"/>
      <point x="472" y="482"/>
      <point x="484" y="495" type="curve" smooth="yes"/>
      <point x="498" y="511"/>
      <point x="504" y="518"/>
      <point x="520" y="539" type="curve" smooth="yes"/>
      <point x="527" y="548"/>
      <point x="540" y="565"/>
      <point x="550" y="577" type="curve" smooth="yes"/>
      <point x="560" y="588"/>
      <point x="574" y="606"/>
      <point x="581" y="615" type="curve" smooth="yes"/>
      <point x="588" y="625"/>
      <point x="598" y="637"/>
      <point x="604" y="642" type="curve" smooth="yes"/>
      <point x="619" y="658"/>
      <point x="632" y="676"/>
      <point x="634" y="682" type="curve" smooth="yes"/>
      <point x="635" y="690"/>
      <point x="631" y="695"/>
      <point x="618" y="699" type="curve" smooth="yes"/>
      <point x="610" y="701"/>
      <point x="595" y="702"/>
      <point x="528" y="701" type="curve" smooth="yes"/>
      <point x="468" y="700"/>
      <point x="446" y="699"/>
      <point x="442" y="697" type="curve" smooth="yes"/>
      <point x="436" y="694"/>
      <point x="416" y="672"/>
      <point x="408" y="658" type="curve" smooth="yes"/>
      <point x="405" y="653"/>
      <point x="395" y="638"/>
      <point x="386" y="626" type="curve" smooth="yes"/>
      <point x="378" y="613"/>
      <point x="367" y="599"/>
      <point x="364" y="593" type="curve" smooth="yes"/>
      <point x="360" y="588"/>
      <point x="353" y="578"/>
      <point x="347" y="571" type="curve" smooth="yes"/>
      <point x="342" y="564"/>
      <point x="332" y="551"/>
      <point x="327" y="543" type="curve" smooth="yes"/>
      <point x="321" y="534"/>
      <point x="315" y="525"/>
      <point x="312" y="523" type="curve" smooth="yes"/>
      <point x="310" y="521"/>
      <point x="303" y="511"/>
      <point x="297" y="503" type="curve" smooth="yes"/>
      <point x="292" y="495"/>
      <point x="281" y="481"/>
      <point x="275" y="472" type="curve" smooth="yes"/>
      <point x="268" y="464"/>
      <point x="258" y="450"/>
      <point x="253" y="441" type="curve" smooth="yes"/>
      <point x="242" y="425"/>
      <point x="240" y="424"/>
      <point x="235" y="427" type="curve" smooth="yes"/>
      <point x="230" y="430"/>
      <point x="232" y="599"/>
      <point x="238" y="664" type="curve" smooth="yes"/>
      <point x="240" y="688"/>
      <point x="237" y="694"/>
      <point x="220" y="698" type="curve" smooth="yes"/>
      <point x="211" y="700"/>
      <point x="67" y="702"/>
      <point x="47" y="700" type="curve" smooth="yes"/>
    </contour>
  </outline>
</glyph>
<glyph name="M" format="1">
  <advance width="967"/>
  <unicode hex="004D"/>
  <outline>
    <contour>
      <point x="546" y="18" type="line" smooth="yes"/>
      <point x="543" y="7"/>
      <point x="533" y="0"/>
      <point x="522" y="0" type="curve" smooth="yes"/>
      <point x="414" y="0" type="line" smooth="yes"/>
      <point x="402" y="0"/>
      <point x="394" y="5"/>
      <point x="389" y="18" type="curve" smooth="yes"/>
      <point x="243" y="476" type="line" smooth="yes"/>
      <point x="238" y="492"/>
      <point x="235" y="488"/>
      <point x="235" y="475" type="curve" smooth="yes"/>
      <point x="242" y="22" type="line" smooth="yes"/>
      <point x="242" y="4"/>
      <point x="238" y="0"/>
      <point x="220" y="0" type="curve" smooth="yes"/>
      <point x="79" y="0" type="line" smooth="yes"/>
      <point x="63" y="0"/>
      <point x="53" y="11"/>
      <point x="53" y="28" type="curve" smooth="yes"/>
      <point x="53" y="719" type="line" smooth="yes"/>
      <point x="53" y="735"/>
      <point x="59" y="742"/>
      <point x="74" y="742" type="curve" smooth="yes"/>
      <point x="353" y="742" type="line" smooth="yes"/>
      <point x="370" y="742"/>
      <point x="376" y="738"/>
      <point x="381" y="724" type="curve" smooth="yes"/>
      <point x="486" y="414" type="line" smooth="yes"/>
      <point x="490" y="400"/>
      <point x="493" y="398"/>
      <point x="499" y="414" type="curve" smooth="yes"/>
      <point x="591" y="713" type="line" smooth="yes"/>
      <point x="596" y="731"/>
      <point x="604" y="742"/>
      <point x="618" y="742" type="curve" smooth="yes"/>
      <point x="906" y="742" type="line" smooth="yes"/>
      <point x="918" y="742"/>
      <point x="924" y="734"/>
      <point x="924" y="721" type="curve" smooth="yes"/>
      <point x="924" y="29" type="line" smooth="yes"/>
      <point x="924" y="8"/>
      <point x="915" y="0"/>
      <point x="892" y="0" type="curve" smooth="yes"/>
      <point x="725" y="0" type="line" smooth="yes"/>
      <point x="705" y="0"/>
      <point x="699" y="8"/>
      <point x="699" y="25" type="curve" smooth="yes"/>
      <point x="703" y="474" type="line" smooth="yes"/>
      <point x="703" y="485"/>
      <point x="698" y="489"/>
      <point x="693" y="477" type="curve" smooth="yes"/>
    </contour>
  </outline>
</glyph>
<glyph name="N" format="1">
  <advance width="658"/>
  <unicode hex="004E"/>
  <outline>
    <contour>
      <point x="31" y="696"/>
      <point x="26" y="693"/>
      <point x="24" y="687" type="curve" smooth="yes"/>
      <point x="22" y="682"/>
      <point x="21" y="628"/>
      <point x="21" y="411" type="curve" smooth="yes"/>
      <point x="22" y="92"/>
      <point x="22" y="114"/>
      <point x="21" y="61" type="curve" smooth="yes"/>
      <point x="20" y="14"/>
      <point x="20" y="9"/>
      <point x="30" y="4" type="curve" smooth="yes"/>
      <point x="36" y="1"/>
      <point x="47" y="0"/>
      <point x="109" y="0" type="curve" smooth="yes"/>
      <point x="148" y="0"/>
      <point x="184" y="0"/>
      <point x="187" y="1" type="curve" smooth="yes"/>
      <point x="198" y="4"/>
      <point x="198" y="6"/>
      <point x="197" y="60" type="curve" smooth="yes"/>
      <point x="194" y="160"/>
      <point x="193" y="368"/>
      <point x="196" y="372" type="curve" smooth="yes"/>
      <point x="197" y="374"/>
      <point x="199" y="373"/>
      <point x="203" y="368" type="curve" smooth="yes"/>
      <point x="207" y="364"/>
      <point x="209" y="360"/>
      <point x="209" y="359" type="curve" smooth="yes"/>
      <point x="209" y="358"/>
      <point x="216" y="349"/>
      <point x="224" y="339" type="curve" smooth="yes"/>
      <point x="240" y="320"/>
      <point x="279" y="269"/>
      <point x="289" y="255" type="curve" smooth="yes"/>
      <point x="292" y="251"/>
      <point x="298" y="243"/>
      <point x="303" y="237" type="curve" smooth="yes"/>
      <point x="315" y="221"/>
      <point x="325" y="207"/>
      <point x="337" y="188" type="curve" smooth="yes"/>
      <point x="348" y="172"/>
      <point x="351" y="169"/>
      <point x="370" y="145" type="curve" smooth="yes"/>
      <point x="381" y="132"/>
      <point x="405" y="98"/>
      <point x="423" y="72" type="curve" smooth="yes"/>
      <point x="429" y="63"/>
      <point x="435" y="55"/>
      <point x="437" y="53" type="curve" smooth="yes"/>
      <point x="440" y="50"/>
      <point x="445" y="43"/>
      <point x="449" y="36" type="curve" smooth="yes"/>
      <point x="458" y="20"/>
      <point x="468" y="9"/>
      <point x="477" y="6" type="curve" smooth="yes"/>
      <point x="483" y="3"/>
      <point x="501" y="3"/>
      <point x="586" y="2" type="curve" smooth="yes"/>
      <point x="619" y="2"/>
      <point x="624" y="2"/>
      <point x="629" y="5" type="curve" smooth="yes"/>
      <point x="636" y="10"/>
      <point x="638" y="14"/>
      <point x="638" y="26" type="curve" smooth="yes"/>
      <point x="638" y="31"/>
      <point x="638" y="182"/>
      <point x="638" y="361" type="curve" smooth="yes"/>
      <point x="637" y="662"/>
      <point x="637" y="688"/>
      <point x="634" y="691" type="curve" smooth="yes"/>
      <point x="627" y="698"/>
      <point x="618" y="699"/>
      <point x="548" y="699" type="curve" smooth="yes"/>
      <point x="473" y="698"/>
      <point x="473" y="698"/>
      <point x="467" y="687" type="curve" smooth="yes"/>
      <point x="464" y="680"/>
      <point x="464" y="674"/>
      <point x="465" y="616" type="curve" smooth="yes"/>
      <point x="467" y="559"/>
      <point x="468" y="374"/>
      <point x="467" y="368" type="curve" smooth="yes"/>
      <point x="465" y="362"/>
      <point x="459" y="360"/>
      <point x="457" y="365" type="curve" smooth="yes"/>
      <point x="456" y="369"/>
      <point x="439" y="393"/>
      <point x="429" y="406" type="curve" smooth="yes"/>
      <point x="426" y="410"/>
      <point x="417" y="422"/>
      <point x="411" y="431" type="curve" smooth="yes"/>
      <point x="405" y="440"/>
      <point x="394" y="454"/>
      <point x="388" y="462" type="curve" smooth="yes"/>
      <point x="374" y="477"/>
      <point x="368" y="486"/>
      <point x="360" y="499" type="curve" smooth="yes"/>
      <point x="357" y="504"/>
      <point x="351" y="512"/>
      <point x="347" y="517" type="curve" smooth="yes"/>
      <point x="337" y="528"/>
      <point x="330" y="536"/>
      <point x="330" y="539" type="curve" smooth="yes"/>
      <point x="330" y="540"/>
      <point x="325" y="547"/>
      <point x="320" y="553" type="curve" smooth="yes"/>
      <point x="314" y="560"/>
      <point x="309" y="567"/>
      <point x="308" y="568" type="curve" smooth="yes"/>
      <point x="306" y="574"/>
      <point x="290" y="596"/>
      <point x="285" y="602" type="curve" smooth="yes"/>
      <point x="280" y="606"/>
      <point x="274" y="614"/>
      <point x="263" y="633" type="curve" smooth="yes"/>
      <point x="256" y="644"/>
      <point x="238" y="669"/>
      <point x="227" y="683" type="curve" smooth="yes"/>
      <point x="215" y="699"/>
      <point x="218" y="699"/>
      <point x="125" y="699" type="curve" smooth="yes"/>
      <point x="80" y="699"/>
      <point x="41" y="698"/>
      <point x="39" y="698" type="curve" smooth="yes"/>
    </contour>
  </outline>
</glyph>
<glyph name="O" format="1">
  <advance width="786"/>
  <unicode hex="004F"/>
  <outline>
    <contour>
      <point x="177" y="752"/>
      <point x="34" y="601"/>
      <point x="34" y="369" type="curve" smooth="yes"/>
      <point x="34" y="138"/>
      <point x="173" y="-10"/>
      <point x="394" y="-10" type="curve" smooth="yes"/>
      <point x="612" y="-10"/>
      <point x="752" y="139"/>
      <point x="752" y="369" type="curve" smooth="yes"/>
      <point x="752" y="601"/>
      <point x="609" y="752"/>
      <point x="394" y="752" type="curve" smooth="yes"/>
    </contour>
    <contour>
      <point x="305" y="146"/>
      <point x="272" y="206"/>
      <point x="272" y="366" type="curve" smooth="yes"/>
      <point x="272" y="531"/>
      <point x="307" y="598"/>
      <point x="394" y="598" type="curve" smooth="yes"/>
      <point x="479" y="598"/>
      <point x="514" y="531"/>
      <point x="514" y="366" type="curve" smooth="yes"/>
      <point x="514" y="206"/>
      <point x="481" y="146"/>
      <point x="394" y="146" type="curve" smooth="yes"/>
    </contour>
  </outline>
</glyph>
<glyph name="P" format="1">
  <advance width="700"/>
  <unicode hex="0050"/>
  <outline>
    <contour>
      <point x="60" y="704"/>
      <point x="52" y="698"/>
      <point x="48" y="689" type="curve" smooth="yes"/>
      <point x="47" y="687"/>
      <point x="47" y="654"/>
      <point x="47" y="612" type="curve" smooth="yes"/>
      <point x="47" y="573"/>
      <point x="47" y="462"/>
      <point x="48" y="367" type="curve" smooth="yes"/>
      <point x="48" y="271"/>
      <point x="48" y="182"/>
      <point x="48" y="169" type="curve" smooth="yes"/>
      <point x="48" y="155"/>
      <point x="48" y="123"/>
      <point x="47" y="98" type="curve" smooth="yes"/>
      <point x="45" y="15"/>
      <point x="45" y="12"/>
      <point x="58" y="5" type="curve" smooth="yes"/>
      <point x="64" y="1"/>
      <point x="68" y="0"/>
      <point x="85" y="0" type="curve" smooth="yes"/>
      <point x="97" y="0"/>
      <point x="117" y="1"/>
      <point x="130" y="2" type="curve" smooth="yes"/>
      <point x="162" y="3"/>
      <point x="160" y="3"/>
      <point x="184" y="1" type="curve" smooth="yes"/>
      <point x="196" y="0"/>
      <point x="216" y="0"/>
      <point x="228" y="0" type="curve" smooth="yes"/>
      <point x="267" y="1"/>
      <point x="269" y="4"/>
      <point x="270" y="50" type="curve" smooth="yes"/>
      <point x="270" y="68"/>
      <point x="269" y="93"/>
      <point x="269" y="105" type="curve" smooth="yes"/>
      <point x="268" y="118"/>
      <point x="267" y="139"/>
      <point x="266" y="151" type="curve" smooth="yes"/>
      <point x="265" y="177"/>
      <point x="265" y="253"/>
      <point x="266" y="260" type="curve" smooth="yes"/>
      <point x="267" y="262"/>
      <point x="269" y="265"/>
      <point x="271" y="265" type="curve" smooth="yes"/>
      <point x="273" y="266"/>
      <point x="293" y="266"/>
      <point x="316" y="265" type="curve" smooth="yes"/>
      <point x="338" y="264"/>
      <point x="373" y="264"/>
      <point x="393" y="264" type="curve" smooth="yes"/>
      <point x="427" y="264"/>
      <point x="437" y="265"/>
      <point x="457" y="267" type="curve" smooth="yes"/>
      <point x="461" y="268"/>
      <point x="475" y="270"/>
      <point x="487" y="271" type="curve" smooth="yes"/>
      <point x="517" y="275"/>
      <point x="542" y="283"/>
      <point x="570" y="296" type="curve" smooth="yes"/>
      <point x="578" y="300"/>
      <point x="594" y="310"/>
      <point x="603" y="318" type="curve" smooth="yes"/>
      <point x="609" y="322"/>
      <point x="615" y="328"/>
      <point x="618" y="329" type="curve" smooth="yes"/>
      <point x="621" y="331"/>
      <point x="627" y="337"/>
      <point x="631" y="343" type="curve" smooth="yes"/>
      <point x="635" y="349"/>
      <point x="642" y="356"/>
      <point x="646" y="360" type="curve" smooth="yes"/>
      <point x="650" y="364"/>
      <point x="658" y="378"/>
      <point x="664" y="390" type="curve" smooth="yes"/>
      <point x="672" y="408"/>
      <point x="675" y="416"/>
      <point x="679" y="436" type="curve" smooth="yes"/>
      <point x="693" y="506"/>
      <point x="677" y="574"/>
      <point x="634" y="620" type="curve" smooth="yes"/>
      <point x="616" y="639"/>
      <point x="580" y="665"/>
      <point x="562" y="671" type="curve" smooth="yes"/>
      <point x="557" y="673"/>
      <point x="550" y="675"/>
      <point x="547" y="677" type="curve" smooth="yes"/>
      <point x="530" y="683"/>
      <point x="494" y="693"/>
      <point x="472" y="697" type="curve" smooth="yes"/>
      <point x="465" y="698"/>
      <point x="453" y="700"/>
      <point x="446" y="701" type="curve" smooth="yes"/>
      <point x="433" y="704"/>
      <point x="419" y="705"/>
      <point x="402" y="705" type="curve" smooth="yes"/>
      <point x="381" y="706"/>
      <point x="316" y="706"/>
      <point x="298" y="705" type="curve" smooth="yes"/>
      <point x="288" y="705"/>
      <point x="271" y="704"/>
      <point x="261" y="704" type="curve" smooth="yes"/>
      <point x="251" y="704"/>
      <point x="226" y="704"/>
      <point x="206" y="704" type="curve" smooth="yes"/>
      <point x="185" y="705"/>
      <point x="166" y="705"/>
      <point x="164" y="705" type="curve" smooth="yes"/>
      <point x="161" y="704"/>
      <point x="141" y="705"/>
      <point x="120" y="705" type="curve" smooth="yes"/>
      <point x="98" y="706"/>
      <point x="76" y="706"/>
      <point x="71" y="705" type="curve" smooth="yes"/>
    </contour>
    <contour>
      <point x="388" y="553"/>
      <point x="398" y="552"/>
      <point x="401" y="551" type="curve" smooth="yes"/>
      <point x="404" y="550"/>
      <point x="407" y="549"/>
      <point x="407" y="550" type="curve" smooth="yes"/>
      <point x="408" y="551"/>
      <point x="417" y="546"/>
      <point x="426" y="541" type="curve" smooth="yes"/>
      <point x="453" y="526"/>
      <point x="461" y="512"/>
      <point x="460" y="483" type="curve" smooth="yes"/>
      <point x="460" y="473"/>
      <point x="459" y="467"/>
      <point x="454" y="457" type="curve" smooth="yes"/>
      <point x="448" y="443"/>
      <point x="444" y="439"/>
      <point x="430" y="430" type="curve" smooth="yes"/>
      <point x="413" y="420"/>
      <point x="404" y="419"/>
      <point x="346" y="416" type="curve" smooth="yes"/>
      <point x="317" y="415"/>
      <point x="293" y="414"/>
      <point x="292" y="414" type="curve" smooth="yes"/>
      <point x="292" y="414"/>
      <point x="287" y="415"/>
      <point x="282" y="415" type="curve" smooth="yes"/>
      <point x="267" y="418"/>
      <point x="267" y="419"/>
      <point x="266" y="468" type="curve" smooth="yes"/>
      <point x="265" y="519"/>
      <point x="266" y="543"/>
      <point x="271" y="549" type="curve" smooth="yes"/>
      <point x="273" y="553"/>
      <point x="277" y="553"/>
      <point x="296" y="554" type="curve" smooth="yes"/>
      <point x="308" y="554"/>
      <point x="319" y="555"/>
      <point x="319" y="555" type="curve" smooth="yes"/>
      <point x="320" y="556"/>
      <point x="360" y="555"/>
      <point x="379" y="554" type="curve" smooth="yes"/>
    </contour>
  </outline>
</glyph>
<glyph name="Q" format="1">
  <advance width="730"/>
  <unicode hex="0051"/>
  <outline>
    <contour>
      <point x="303" y="706"/>
      <point x="282" y="703"/>
      <point x="271" y="698" type="curve" smooth="yes"/>
      <point x="266" y="697"/>
      <point x="253" y="693"/>
      <point x="243" y="690" type="curve" smooth="yes"/>
      <point x="223" y="685"/>
      <point x="202" y="675"/>
      <point x="187" y="665" type="curve" smooth="yes"/>
      <point x="182" y="662"/>
      <point x="175" y="658"/>
      <point x="172" y="657" type="curve" smooth="yes"/>
      <point x="169" y="655"/>
      <point x="162" y="651"/>
      <point x="158" y="646" type="curve" smooth="yes"/>
      <point x="153" y="642"/>
      <point x="144" y="636"/>
      <point x="139" y="632" type="curve" smooth="yes"/>
      <point x="134" y="628"/>
      <point x="125" y="619"/>
      <point x="119" y="612" type="curve" smooth="yes"/>
      <point x="114" y="605"/>
      <point x="105" y="595"/>
      <point x="100" y="590" type="curve" smooth="yes"/>
      <point x="78" y="564"/>
      <point x="43" y="490"/>
      <point x="37" y="454" type="curve" smooth="yes"/>
      <point x="28" y="403"/>
      <point x="25" y="340"/>
      <point x="29" y="301" type="curve" smooth="yes"/>
      <point x="34" y="250"/>
      <point x="49" y="193"/>
      <point x="64" y="166" type="curve" smooth="yes"/>
      <point x="67" y="161"/>
      <point x="70" y="155"/>
      <point x="70" y="154" type="curve" smooth="yes"/>
      <point x="70" y="152"/>
      <point x="74" y="146"/>
      <point x="79" y="139" type="curve" smooth="yes"/>
      <point x="112" y="97"/>
      <point x="118" y="89"/>
      <point x="127" y="82" type="curve" smooth="yes"/>
      <point x="140" y="70"/>
      <point x="156" y="57"/>
      <point x="168" y="49" type="curve" smooth="yes"/>
      <point x="174" y="45"/>
      <point x="185" y="38"/>
      <point x="192" y="33" type="curve" smooth="yes"/>
      <point x="199" y="28"/>
      <point x="209" y="23"/>
      <point x="213" y="22" type="curve" smooth="yes"/>
      <point x="217" y="20"/>
      <point x="222" y="18"/>
      <point x="223" y="17" type="curve" smooth="yes"/>
      <point x="229" y="13"/>
      <point x="258" y="4"/>
      <point x="282" y="-2" type="curve" smooth="yes"/>
      <point x="308" y="-8"/>
      <point x="310" y="-8"/>
      <point x="358" y="-8" type="curve" smooth="yes"/>
      <point x="391" y="-8"/>
      <point x="414" y="-8"/>
      <point x="426" y="-6" type="curve" smooth="yes"/>
      <point x="443" y="-3" type="line"/>
      <point x="454" y="-15" type="line" smooth="yes"/>
      <point x="503" y="-70"/>
      <point x="511" y="-77"/>
      <point x="537" y="-90" type="curve" smooth="yes"/>
      <point x="577" y="-110"/>
      <point x="621" y="-121"/>
      <point x="665" y="-121" type="curve" smooth="yes"/>
      <point x="691" y="-121"/>
      <point x="700" y="-117"/>
      <point x="704" y="-105" type="curve" smooth="yes"/>
      <point x="708" y="-93"/>
      <point x="708" y="13"/>
      <point x="704" y="19" type="curve" smooth="yes"/>
      <point x="701" y="25"/>
      <point x="697" y="27"/>
      <point x="676" y="31" type="curve" smooth="yes"/>
      <point x="644" y="38"/>
      <point x="609" y="58"/>
      <point x="605" y="72" type="curve" smooth="yes"/>
      <point x="604" y="78"/>
      <point x="606" y="83"/>
      <point x="620" y="97" type="curve" smooth="yes"/>
      <point x="631" y="109"/>
      <point x="647" y="129"/>
      <point x="653" y="139" type="curve" smooth="yes"/>
      <point x="655" y="142"/>
      <point x="658" y="147"/>
      <point x="660" y="150" type="curve" smooth="yes"/>
      <point x="662" y="153"/>
      <point x="667" y="163"/>
      <point x="672" y="172" type="curve" smooth="yes"/>
      <point x="676" y="182"/>
      <point x="681" y="189"/>
      <point x="682" y="190" type="curve" smooth="yes"/>
      <point x="684" y="190"/>
      <point x="685" y="194"/>
      <point x="685" y="199" type="curve" smooth="yes"/>
      <point x="685" y="204"/>
      <point x="688" y="219"/>
      <point x="692" y="232" type="curve" smooth="yes"/>
      <point x="705" y="286"/>
      <point x="710" y="374"/>
      <point x="701" y="419" type="curve" smooth="yes"/>
      <point x="699" y="431"/>
      <point x="697" y="446"/>
      <point x="696" y="453" type="curve" smooth="yes"/>
      <point x="691" y="493"/>
      <point x="662" y="555"/>
      <point x="635" y="585" type="curve" smooth="yes"/>
      <point x="633" y="588"/>
      <point x="629" y="593"/>
      <point x="625" y="598" type="curve" smooth="yes"/>
      <point x="619" y="607"/>
      <point x="602" y="622"/>
      <point x="587" y="632" type="curve" smooth="yes"/>
      <point x="581" y="636"/>
      <point x="572" y="642"/>
      <point x="567" y="647" type="curve" smooth="yes"/>
      <point x="541" y="671"/>
      <point x="513" y="687"/>
      <point x="496" y="687" type="curve" smooth="yes"/>
      <point x="493" y="687"/>
      <point x="488" y="689"/>
      <point x="485" y="691" type="curve" smooth="yes"/>
      <point x="479" y="696"/>
      <point x="445" y="704"/>
      <point x="421" y="706" type="curve" smooth="yes"/>
      <point x="396" y="709"/>
      <point x="352" y="710"/>
      <point x="329" y="708" type="curve" smooth="yes"/>
    </contour>
    <contour>
      <point x="424" y="554"/>
      <point x="441" y="540"/>
      <point x="457" y="514" type="curve" smooth="yes"/>
      <point x="474" y="485"/>
      <point x="475" y="479"/>
      <point x="480" y="420" type="curve" smooth="yes"/>
      <point x="483" y="389"/>
      <point x="483" y="375"/>
      <point x="482" y="325" type="curve" smooth="yes"/>
      <point x="479" y="260"/>
      <point x="478" y="252"/>
      <point x="470" y="225" type="curve" smooth="yes"/>
      <point x="460" y="196"/>
      <point x="447" y="173"/>
      <point x="433" y="162" type="curve" smooth="yes"/>
      <point x="419" y="151"/>
      <point x="411" y="146"/>
      <point x="399" y="143" type="curve" smooth="yes"/>
      <point x="387" y="140"/>
      <point x="349" y="139"/>
      <point x="338" y="142" type="curve" smooth="yes"/>
      <point x="298" y="152"/>
      <point x="273" y="184"/>
      <point x="261" y="239" type="curve" smooth="yes"/>
      <point x="255" y="270"/>
      <point x="254" y="286"/>
      <point x="254" y="355" type="curve" smooth="yes"/>
      <point x="255" y="441"/>
      <point x="258" y="464"/>
      <point x="275" y="502" type="curve" smooth="yes"/>
      <point x="284" y="521"/>
      <point x="296" y="536"/>
      <point x="311" y="546" type="curve" smooth="yes"/>
      <point x="325" y="555"/>
      <point x="337" y="560"/>
      <point x="356" y="562" type="curve" smooth="yes"/>
      <point x="377" y="564"/>
      <point x="384" y="564"/>
      <point x="397" y="561" type="curve" smooth="yes"/>
    </contour>
  </outline>
</glyph>
<glyph name="R" format="1">
  <advance width="700"/>
  <unicode hex="0052"/>
  <outline>
    <contour>
      <point x="60" y="699"/>
      <point x="56" y="696"/>
      <point x="53" y="693" type="curve" smooth="yes"/>
      <point x="50" y="688"/>
      <point x="50" y="684"/>
      <point x="49" y="634" type="curve" smooth="yes"/>
      <point x="49" y="604"/>
      <point x="49" y="566"/>
      <point x="50" y="549" type="curve" smooth="yes"/>
      <point x="51" y="532"/>
      <point x="51" y="510"/>
      <point x="50" y="500" type="curve" smooth="yes"/>
      <point x="49" y="491"/>
      <point x="49" y="454"/>
      <point x="49" y="420" type="curve" smooth="yes"/>
      <point x="49" y="299"/>
      <point x="48" y="132"/>
      <point x="47" y="84" type="curve" smooth="yes"/>
      <point x="46" y="19"/>
      <point x="46" y="16"/>
      <point x="49" y="11" type="curve" smooth="yes"/>
      <point x="55" y="2"/>
      <point x="60" y="0"/>
      <point x="84" y="1" type="curve" smooth="yes"/>
      <point x="96" y="1"/>
      <point x="139" y="0"/>
      <point x="178" y="0" type="curve" smooth="yes"/>
      <point x="243" y="0"/>
      <point x="251" y="0"/>
      <point x="257" y="3" type="curve" smooth="yes"/>
      <point x="260" y="5"/>
      <point x="264" y="9"/>
      <point x="265" y="12" type="curve" smooth="yes"/>
      <point x="267" y="17"/>
      <point x="266" y="201"/>
      <point x="264" y="227" type="curve" smooth="yes"/>
      <point x="262" y="247"/>
      <point x="265" y="276"/>
      <point x="269" y="281" type="curve" smooth="yes"/>
      <point x="279" y="293"/>
      <point x="349" y="291"/>
      <point x="349" y="279" type="curve" smooth="yes"/>
      <point x="349" y="277"/>
      <point x="350" y="274"/>
      <point x="352" y="270" type="curve" smooth="yes"/>
      <point x="354" y="267"/>
      <point x="356" y="261"/>
      <point x="358" y="257" type="curve" smooth="yes"/>
      <point x="364" y="236"/>
      <point x="396" y="145"/>
      <point x="403" y="129" type="curve" smooth="yes"/>
      <point x="406" y="119"/>
      <point x="412" y="104"/>
      <point x="414" y="96" type="curve" smooth="yes"/>
      <point x="422" y="71"/>
      <point x="438" y="23"/>
      <point x="442" y="16" type="curve" smooth="yes"/>
      <point x="448" y="2"/>
      <point x="447" y="2"/>
      <point x="562" y="1" type="curve" smooth="yes"/>
      <point x="665" y="1" type="line"/>
      <point x="671" y="6" type="line" smooth="yes"/>
      <point x="679" y="13"/>
      <point x="679" y="23"/>
      <point x="669" y="42" type="curve" smooth="yes"/>
      <point x="665" y="50"/>
      <point x="661" y="58"/>
      <point x="660" y="61" type="curve" smooth="yes"/>
      <point x="659" y="63"/>
      <point x="656" y="71"/>
      <point x="652" y="78" type="curve" smooth="yes"/>
      <point x="649" y="85"/>
      <point x="645" y="94"/>
      <point x="643" y="99" type="curve" smooth="yes"/>
      <point x="642" y="103"/>
      <point x="637" y="113"/>
      <point x="633" y="122" type="curve" smooth="yes"/>
      <point x="629" y="130"/>
      <point x="626" y="137"/>
      <point x="626" y="138" type="curve" smooth="yes"/>
      <point x="626" y="139"/>
      <point x="622" y="148"/>
      <point x="613" y="169" type="curve" smooth="yes"/>
      <point x="611" y="173"/>
      <point x="610" y="176"/>
      <point x="610" y="177" type="curve" smooth="yes"/>
      <point x="610" y="178"/>
      <point x="604" y="193"/>
      <point x="590" y="225" type="curve" smooth="yes"/>
      <point x="573" y="263"/>
      <point x="569" y="273"/>
      <point x="569" y="275" type="curve" smooth="yes"/>
      <point x="569" y="277"/>
      <point x="568" y="279"/>
      <point x="567" y="281" type="curve" smooth="yes"/>
      <point x="563" y="285"/>
      <point x="552" y="312"/>
      <point x="552" y="316" type="curve" smooth="yes"/>
      <point x="552" y="321"/>
      <point x="560" y="327"/>
      <point x="569" y="330" type="curve" smooth="yes"/>
      <point x="574" y="331"/>
      <point x="578" y="334"/>
      <point x="579" y="335" type="curve" smooth="yes"/>
      <point x="580" y="336"/>
      <point x="582" y="338"/>
      <point x="583" y="338" type="curve" smooth="yes"/>
      <point x="586" y="338"/>
      <point x="608" y="351"/>
      <point x="621" y="361" type="curve" smooth="yes"/>
      <point x="638" y="375"/>
      <point x="653" y="394"/>
      <point x="666" y="420" type="curve" smooth="yes"/>
      <point x="680" y="447"/>
      <point x="688" y="484"/>
      <point x="684" y="504" type="curve" smooth="yes"/>
      <point x="683" y="510"/>
      <point x="683" y="516"/>
      <point x="683" y="518" type="curve" smooth="yes"/>
      <point x="685" y="521"/>
      <point x="678" y="555"/>
      <point x="673" y="568" type="curve" smooth="yes"/>
      <point x="671" y="573"/>
      <point x="666" y="583"/>
      <point x="662" y="589" type="curve" smooth="yes"/>
      <point x="655" y="602"/>
      <point x="623" y="635"/>
      <point x="602" y="650" type="curve" smooth="yes"/>
      <point x="586" y="662"/>
      <point x="560" y="677"/>
      <point x="554" y="677" type="curve" smooth="yes"/>
      <point x="552" y="677"/>
      <point x="549" y="678"/>
      <point x="549" y="679" type="curve" smooth="yes"/>
      <point x="548" y="680"/>
      <point x="544" y="681"/>
      <point x="539" y="682" type="curve" smooth="yes"/>
      <point x="533" y="682"/>
      <point x="526" y="684"/>
      <point x="523" y="686" type="curve" smooth="yes"/>
      <point x="519" y="687"/>
      <point x="514" y="689"/>
      <point x="511" y="689" type="curve" smooth="yes"/>
      <point x="508" y="689"/>
      <point x="503" y="689"/>
      <point x="500" y="690" type="curve" smooth="yes"/>
      <point x="493" y="693"/>
      <point x="458" y="697"/>
      <point x="427" y="698" type="curve" smooth="yes"/>
      <point x="411" y="698"/>
      <point x="386" y="699"/>
      <point x="369" y="700" type="curve" smooth="yes"/>
      <point x="353" y="701"/>
      <point x="334" y="701"/>
      <point x="326" y="701" type="curve" smooth="yes"/>
      <point x="319" y="701"/>
      <point x="296" y="701"/>
      <point x="275" y="701" type="curve" smooth="yes"/>
      <point x="254" y="701"/>
      <point x="221" y="700"/>
      <point x="203" y="700" type="curve" smooth="yes"/>
      <point x="160" y="700"/>
      <point x="162" y="700"/>
      <point x="112" y="701" type="curve" smooth="yes"/>
      <point x="85" y="702"/>
      <point x="67" y="702"/>
      <point x="63" y="700" type="curve" smooth="yes"/>
    </contour>
    <contour>
      <point x="406" y="556"/>
      <point x="412" y="554"/>
      <point x="414" y="554" type="curve" smooth="yes"/>
      <point x="426" y="554"/>
      <point x="452" y="533"/>
      <point x="458" y="517" type="curve" smooth="yes"/>
      <point x="463" y="505"/>
      <point x="462" y="480"/>
      <point x="457" y="468" type="curve" smooth="yes"/>
      <point x="446" y="445"/>
      <point x="423" y="431"/>
      <point x="396" y="431" type="curve" smooth="yes"/>
      <point x="389" y="431"/>
      <point x="376" y="431"/>
      <point x="367" y="430" type="curve" smooth="yes"/>
      <point x="358" y="429"/>
      <point x="346" y="430"/>
      <point x="339" y="431" type="curve" smooth="yes"/>
      <point x="332" y="432"/>
      <point x="314" y="432"/>
      <point x="298" y="431" type="curve" smooth="yes"/>
      <point x="272" y="430"/>
      <point x="270" y="431"/>
      <point x="266" y="434" type="curve" smooth="yes"/>
      <point x="263" y="437"/>
      <point x="263" y="440"/>
      <point x="264" y="487" type="curve" smooth="yes"/>
      <point x="265" y="545"/>
      <point x="266" y="553"/>
      <point x="271" y="557" type="curve" smooth="yes"/>
      <point x="276" y="561"/>
      <point x="280" y="561"/>
      <point x="338" y="561" type="curve" smooth="yes"/>
      <point x="387" y="561"/>
      <point x="394" y="561"/>
      <point x="401" y="558" type="curve" smooth="yes"/>
    </contour>
  </outline>
</glyph>
<glyph name="S" format="1">
  <advance width="703"/>
  <unicode hex="0053"/>
  <outline>
    <contour>
      <point x="505" y="529"/>
      <point x="511" y="528"/>
      <point x="521" y="535" type="curve" smooth="yes"/>
      <point x="630" y="614" type="line" smooth="yes"/>
      <point x="643" y="624"/>
      <point x="636" y="635"/>
      <point x="630" y="644" type="curve" smooth="yes"/>
      <point x="584" y="709"/>
      <point x="471" y="754"/>
      <point x="350" y="754" type="curve" smooth="yes"/>
      <point x="163" y="754"/>
      <point x="44" y="645"/>
      <point x="44" y="515" type="curve" smooth="yes"/>
      <point x="44" y="410"/>
      <point x="120" y="323"/>
      <point x="240" y="293" type="curve" smooth="yes"/>
      <point x="392" y="256" type="line" smooth="yes"/>
      <point x="435" y="246"/>
      <point x="455" y="226"/>
      <point x="455" y="202" type="curve" smooth="yes"/>
      <point x="455" y="166"/>
      <point x="407" y="144"/>
      <point x="344" y="144" type="curve" smooth="yes"/>
      <point x="255" y="144"/>
      <point x="216" y="167"/>
      <point x="172" y="224" type="curve" smooth="yes"/>
      <point x="164" y="234"/>
      <point x="152" y="238"/>
      <point x="134" y="226" type="curve" smooth="yes"/>
      <point x="31" y="155" type="line" smooth="yes"/>
      <point x="17" y="144"/>
      <point x="17" y="136"/>
      <point x="25" y="122" type="curve" smooth="yes"/>
      <point x="72" y="43"/>
      <point x="205" y="-10"/>
      <point x="351" y="-10" type="curve" smooth="yes"/>
      <point x="548" y="-10"/>
      <point x="671" y="86"/>
      <point x="671" y="234" type="curve" smooth="yes"/>
      <point x="671" y="337"/>
      <point x="613" y="421"/>
      <point x="488" y="452" type="curve" smooth="yes"/>
      <point x="322" y="495" type="line" smooth="yes"/>
      <point x="272" y="507"/>
      <point x="258" y="528"/>
      <point x="258" y="546" type="curve" smooth="yes"/>
      <point x="258" y="571"/>
      <point x="285" y="597"/>
      <point x="360" y="597" type="curve" smooth="yes"/>
      <point x="438" y="597"/>
      <point x="467" y="569"/>
      <point x="491" y="543" type="curve" smooth="yes"/>
    </contour>
  </outline>
</glyph>
<glyph name="T" format="1">
  <advance width="660"/>
  <unicode hex="0054"/>
  <outline>
    <contour>
      <point x="45" y="700" type="line" smooth="yes"/>
      <point x="29" y="700"/>
      <point x="22" y="691"/>
      <point x="22" y="679" type="curve" smooth="yes"/>
      <point x="22" y="566" type="line" smooth="yes"/>
      <point x="22" y="553"/>
      <point x="30" y="548"/>
      <point x="43" y="548" type="curve" smooth="yes"/>
      <point x="211" y="548" type="line" smooth="yes"/>
      <point x="219" y="548"/>
      <point x="222" y="545"/>
      <point x="222" y="535" type="curve" smooth="yes"/>
      <point x="222" y="19" type="line" smooth="yes"/>
      <point x="222" y="7"/>
      <point x="228" y="0"/>
      <point x="239" y="0" type="curve" smooth="yes"/>
      <point x="415" y="0" type="line" smooth="yes"/>
      <point x="426" y="0"/>
      <point x="433" y="7"/>
      <point x="433" y="21" type="curve" smooth="yes"/>
      <point x="436" y="539" type="line"/>
      <point x="437" y="546"/>
      <point x="440" y="548"/>
      <point x="447" y="548" type="curve" smooth="yes"/>
      <point x="616" y="548" type="line" smooth="yes"/>
      <point x="629" y="548"/>
      <point x="637" y="553"/>
      <point x="637" y="566" type="curve" smooth="yes"/>
      <point x="637" y="679" type="line" smooth="yes"/>
      <point x="637" y="691"/>
      <point x="630" y="700"/>
      <point x="614" y="700" type="curve" smooth="yes"/>
    </contour>
  </outline>
</glyph>
<glyph name="U" format="1">
  <advance width="756"/>
  <unicode hex="0055"/>
  <outline>
    <contour>
      <point x="704" y="721" type="line" smooth="yes"/>
      <point x="704" y="734"/>
      <point x="698" y="742"/>
      <point x="686" y="742" type="curve" smooth="yes"/>
      <point x="540" y="742" type="line" smooth="yes"/>
      <point x="528" y="742"/>
      <point x="521" y="734"/>
      <point x="521" y="719" type="curve" smooth="yes"/>
      <point x="517" y="290" type="line" smooth="yes"/>
      <point x="515" y="179"/>
      <point x="466" y="147"/>
      <point x="405" y="147" type="curve" smooth="yes"/>
      <point x="340" y="147"/>
      <point x="291" y="185"/>
      <point x="291" y="287" type="curve" smooth="yes"/>
      <point x="291" y="721" type="line" smooth="yes"/>
      <point x="291" y="734"/>
      <point x="285" y="742"/>
      <point x="273" y="742" type="curve" smooth="yes"/>
      <point x="82" y="742" type="line" smooth="yes"/>
      <point x="71" y="742"/>
      <point x="63" y="734"/>
      <point x="63" y="719" type="curve" smooth="yes"/>
      <point x="58" y="311" type="line" smooth="yes"/>
      <point x="56" y="102"/>
      <point x="145" y="-12"/>
      <point x="384" y="-12" type="curve" smooth="yes"/>
      <point x="575" y="-12"/>
      <point x="704" y="60"/>
      <point x="704" y="291" type="curve" smooth="yes"/>
    </contour>
  </outline>
</glyph>
<glyph name="V" format="1">
  <advance width="700"/>
  <unicode hex="0056"/>
  <outline>
    <contour>
      <point x="17" y="694"/>
      <point x="16" y="682"/>
      <point x="25" y="656" type="curve" smooth="yes"/>
      <point x="28" y="646"/>
      <point x="35" y="626"/>
      <point x="41" y="610" type="curve" smooth="yes"/>
      <point x="46" y="595"/>
      <point x="53" y="575"/>
      <point x="56" y="567" type="curve" smooth="yes"/>
      <point x="62" y="550"/>
      <point x="62" y="553"/>
      <point x="82" y="490" type="curve" smooth="yes"/>
      <point x="91" y="463"/>
      <point x="101" y="436"/>
      <point x="104" y="428" type="curve" smooth="yes"/>
      <point x="113" y="404"/>
      <point x="122" y="377"/>
      <point x="122" y="374" type="curve" smooth="yes"/>
      <point x="122" y="372"/>
      <point x="124" y="367"/>
      <point x="126" y="363" type="curve" smooth="yes"/>
      <point x="128" y="359"/>
      <point x="133" y="344"/>
      <point x="138" y="329" type="curve" smooth="yes"/>
      <point x="142" y="315"/>
      <point x="149" y="292"/>
      <point x="154" y="278" type="curve" smooth="yes"/>
      <point x="159" y="264"/>
      <point x="166" y="245"/>
      <point x="169" y="236" type="curve" smooth="yes"/>
      <point x="172" y="227"/>
      <point x="177" y="214"/>
      <point x="180" y="208" type="curve" smooth="yes"/>
      <point x="182" y="201"/>
      <point x="186" y="188"/>
      <point x="189" y="178" type="curve" smooth="yes"/>
      <point x="191" y="169"/>
      <point x="194" y="159"/>
      <point x="195" y="157" type="curve" smooth="yes"/>
      <point x="197" y="155"/>
      <point x="202" y="141"/>
      <point x="206" y="127" type="curve" smooth="yes"/>
      <point x="211" y="112"/>
      <point x="217" y="93"/>
      <point x="220" y="84" type="curve" smooth="yes"/>
      <point x="230" y="57"/>
      <point x="236" y="39"/>
      <point x="238" y="30" type="curve" smooth="yes"/>
      <point x="240" y="19"/>
      <point x="248" y="8"/>
      <point x="257" y="4" type="curve" smooth="yes"/>
      <point x="262" y="2"/>
      <point x="273" y="1"/>
      <point x="295" y="1" type="curve" smooth="yes"/>
      <point x="312" y="0"/>
      <point x="327" y="0"/>
      <point x="328" y="0" type="curve" smooth="yes"/>
      <point x="329" y="0"/>
      <point x="354" y="1"/>
      <point x="384" y="1" type="curve" smooth="yes"/>
      <point x="443" y="2"/>
      <point x="446" y="3"/>
      <point x="454" y="13" type="curve" smooth="yes"/>
      <point x="456" y="16"/>
      <point x="459" y="20"/>
      <point x="460" y="21" type="curve" smooth="yes"/>
      <point x="462" y="23"/>
      <point x="473" y="56"/>
      <point x="485" y="94" type="curve" smooth="yes"/>
      <point x="489" y="105"/>
      <point x="493" y="118"/>
      <point x="495" y="123" type="curve" smooth="yes"/>
      <point x="497" y="128"/>
      <point x="499" y="136"/>
      <point x="501" y="142" type="curve" smooth="yes"/>
      <point x="502" y="148"/>
      <point x="507" y="162"/>
      <point x="511" y="173" type="curve" smooth="yes"/>
      <point x="515" y="183"/>
      <point x="520" y="197"/>
      <point x="522" y="204" type="curve" smooth="yes"/>
      <point x="524" y="210"/>
      <point x="529" y="227"/>
      <point x="534" y="240" type="curve" smooth="yes"/>
      <point x="539" y="254"/>
      <point x="544" y="270"/>
      <point x="546" y="276" type="curve" smooth="yes"/>
      <point x="547" y="283"/>
      <point x="549" y="291"/>
      <point x="551" y="295" type="curve" smooth="yes"/>
      <point x="558" y="310"/>
      <point x="568" y="338"/>
      <point x="576" y="363" type="curve" smooth="yes"/>
      <point x="580" y="376"/>
      <point x="586" y="395"/>
      <point x="590" y="406" type="curve" smooth="yes"/>
      <point x="599" y="427"/>
      <point x="609" y="456"/>
      <point x="617" y="486" type="curve" smooth="yes"/>
      <point x="621" y="498"/>
      <point x="626" y="512"/>
      <point x="628" y="518" type="curve" smooth="yes"/>
      <point x="634" y="529"/>
      <point x="641" y="549"/>
      <point x="647" y="569" type="curve" smooth="yes"/>
      <point x="649" y="577"/>
      <point x="653" y="588"/>
      <point x="655" y="592" type="curve" smooth="yes"/>
      <point x="659" y="603"/>
      <point x="666" y="622"/>
      <point x="669" y="639" type="curve" smooth="yes"/>
      <point x="671" y="646"/>
      <point x="675" y="656"/>
      <point x="677" y="662" type="curve" smooth="yes"/>
      <point x="682" y="672"/>
      <point x="684" y="685"/>
      <point x="680" y="689" type="curve" smooth="yes"/>
      <point x="679" y="690"/>
      <point x="674" y="693"/>
      <point x="669" y="695" type="curve" smooth="yes"/>
      <point x="661" y="697"/>
      <point x="651" y="698"/>
      <point x="593" y="697" type="curve" smooth="yes"/>
      <point x="528" y="697"/>
      <point x="524" y="697"/>
      <point x="510" y="690" type="curve" smooth="yes"/>
      <point x="505" y="688"/>
      <point x="497" y="667"/>
      <point x="493" y="648" type="curve" smooth="yes"/>
      <point x="492" y="644"/>
      <point x="490" y="637"/>
      <point x="488" y="632" type="curve" smooth="yes"/>
      <point x="486" y="627"/>
      <point x="484" y="619"/>
      <point x="482" y="614" type="curve" smooth="yes"/>
      <point x="481" y="609"/>
      <point x="478" y="600"/>
      <point x="475" y="594" type="curve" smooth="yes"/>
      <point x="473" y="587"/>
      <point x="470" y="575"/>
      <point x="467" y="567" type="curve" smooth="yes"/>
      <point x="464" y="553"/>
      <point x="459" y="541"/>
      <point x="456" y="534" type="curve" smooth="yes"/>
      <point x="455" y="532"/>
      <point x="454" y="528"/>
      <point x="454" y="526" type="curve" smooth="yes"/>
      <point x="454" y="523"/>
      <point x="450" y="510"/>
      <point x="446" y="496" type="curve" smooth="yes"/>
      <point x="441" y="482"/>
      <point x="437" y="466"/>
      <point x="435" y="460" type="curve" smooth="yes"/>
      <point x="431" y="442"/>
      <point x="429" y="436"/>
      <point x="424" y="423" type="curve" smooth="yes"/>
      <point x="421" y="416"/>
      <point x="419" y="409"/>
      <point x="419" y="408" type="curve" smooth="yes"/>
      <point x="419" y="406"/>
      <point x="416" y="396"/>
      <point x="412" y="385" type="curve" smooth="yes"/>
      <point x="408" y="374"/>
      <point x="402" y="355"/>
      <point x="398" y="343" type="curve" smooth="yes"/>
      <point x="395" y="330"/>
      <point x="390" y="315"/>
      <point x="388" y="309" type="curve" smooth="yes"/>
      <point x="384" y="298"/>
      <point x="376" y="274"/>
      <point x="372" y="258" type="curve" smooth="yes"/>
      <point x="368" y="245"/>
      <point x="365" y="248"/>
      <point x="359" y="271" type="curve" smooth="yes"/>
      <point x="357" y="278"/>
      <point x="354" y="287"/>
      <point x="352" y="291" type="curve" smooth="yes"/>
      <point x="350" y="295"/>
      <point x="348" y="303"/>
      <point x="347" y="308" type="curve" smooth="yes"/>
      <point x="346" y="314"/>
      <point x="342" y="324"/>
      <point x="339" y="331" type="curve" smooth="yes"/>
      <point x="335" y="339"/>
      <point x="333" y="345"/>
      <point x="333" y="353" type="curve" smooth="yes"/>
      <point x="333" y="361"/>
      <point x="327" y="380"/>
      <point x="321" y="392" type="curve" smooth="yes"/>
      <point x="320" y="394"/>
      <point x="319" y="398"/>
      <point x="319" y="401" type="curve" smooth="yes"/>
      <point x="319" y="403"/>
      <point x="317" y="411"/>
      <point x="315" y="418" type="curve" smooth="yes"/>
      <point x="312" y="424"/>
      <point x="307" y="439"/>
      <point x="304" y="449" type="curve" smooth="yes"/>
      <point x="301" y="460"/>
      <point x="294" y="481"/>
      <point x="289" y="496" type="curve" smooth="yes"/>
      <point x="285" y="510"/>
      <point x="280" y="525"/>
      <point x="279" y="529" type="curve" smooth="yes"/>
      <point x="278" y="535"/>
      <point x="272" y="557"/>
      <point x="268" y="570" type="curve" smooth="yes"/>
      <point x="265" y="579"/>
      <point x="259" y="600"/>
      <point x="254" y="617" type="curve" smooth="yes"/>
      <point x="251" y="628"/>
      <point x="243" y="652"/>
      <point x="236" y="676" type="curve" smooth="yes"/>
      <point x="233" y="687"/>
      <point x="229" y="692"/>
      <point x="222" y="696" type="curve" smooth="yes"/>
      <point x="220" y="697"/>
      <point x="198" y="698"/>
      <point x="156" y="699" type="curve" smooth="yes"/>
      <point x="122" y="700"/>
      <point x="82" y="700"/>
      <point x="67" y="701" type="curve" smooth="yes"/>
      <point x="46" y="701"/>
      <point x="38" y="701"/>
      <point x="31" y="699" type="curve" smooth="yes"/>
    </contour>
  </outline>
</glyph>
<glyph name="W" format="1">
  <advance width="960"/>
  <unicode hex="0057"/>
  <outline>
    <contour>
      <point x="-6" y="702"/>
      <point x="-15" y="697"/>
      <point x="-17" y="691" type="curve" smooth="yes"/>
      <point x="-20" y="686"/>
      <point x="-18" y="664"/>
      <point x="-14" y="655" type="curve" smooth="yes"/>
      <point x="-12" y="650"/>
      <point x="5" y="596"/>
      <point x="12" y="570" type="curve" smooth="yes"/>
      <point x="15" y="561"/>
      <point x="23" y="537"/>
      <point x="29" y="519" type="curve" smooth="yes"/>
      <point x="35" y="500"/>
      <point x="41" y="481"/>
      <point x="42" y="476" type="curve" smooth="yes"/>
      <point x="51" y="445"/>
      <point x="58" y="421"/>
      <point x="62" y="412" type="curve" smooth="yes"/>
      <point x="64" y="407"/>
      <point x="67" y="397"/>
      <point x="68" y="391" type="curve" smooth="yes"/>
      <point x="70" y="380"/>
      <point x="77" y="359"/>
      <point x="84" y="338" type="curve" smooth="yes"/>
      <point x="87" y="329"/>
      <point x="94" y="304"/>
      <point x="102" y="275" type="curve" smooth="yes"/>
      <point x="103" y="270"/>
      <point x="106" y="261"/>
      <point x="108" y="254" type="curve" smooth="yes"/>
      <point x="118" y="226"/>
      <point x="129" y="189"/>
      <point x="134" y="173" type="curve" smooth="yes"/>
      <point x="136" y="163"/>
      <point x="140" y="151"/>
      <point x="141" y="145" type="curve" smooth="yes"/>
      <point x="143" y="140"/>
      <point x="146" y="127"/>
      <point x="149" y="117" type="curve" smooth="yes"/>
      <point x="152" y="107"/>
      <point x="155" y="95"/>
      <point x="157" y="90" type="curve" smooth="yes"/>
      <point x="158" y="85"/>
      <point x="161" y="75"/>
      <point x="163" y="67" type="curve" smooth="yes"/>
      <point x="165" y="60"/>
      <point x="169" y="45"/>
      <point x="172" y="34" type="curve" smooth="yes"/>
      <point x="181" y="4"/>
      <point x="187" y="0"/>
      <point x="223" y="0" type="curve" smooth="yes"/>
      <point x="363" y="1"/>
      <point x="365" y="2"/>
      <point x="372" y="12" type="curve" smooth="yes"/>
      <point x="376" y="16"/>
      <point x="387" y="54"/>
      <point x="395" y="90" type="curve" smooth="yes"/>
      <point x="396" y="96"/>
      <point x="399" y="104"/>
      <point x="400" y="109" type="curve" smooth="yes"/>
      <point x="405" y="125"/>
      <point x="413" y="152"/>
      <point x="420" y="175" type="curve" smooth="yes"/>
      <point x="428" y="207"/>
      <point x="430" y="211"/>
      <point x="441" y="247" type="curve" smooth="yes"/>
      <point x="446" y="265"/>
      <point x="452" y="282"/>
      <point x="453" y="285" type="curve" smooth="yes"/>
      <point x="455" y="288"/>
      <point x="456" y="292"/>
      <point x="456" y="295" type="curve" smooth="yes"/>
      <point x="456" y="297"/>
      <point x="460" y="309"/>
      <point x="464" y="322" type="curve" smooth="yes"/>
      <point x="468" y="334"/>
      <point x="473" y="351"/>
      <point x="475" y="358" type="curve" smooth="yes"/>
      <point x="479" y="369"/>
      <point x="481" y="373"/>
      <point x="483" y="373" type="curve" smooth="yes"/>
      <point x="486" y="373"/>
      <point x="488" y="370"/>
      <point x="491" y="358" type="curve" smooth="yes"/>
      <point x="493" y="351"/>
      <point x="496" y="340"/>
      <point x="498" y="335" type="curve" smooth="yes"/>
      <point x="500" y="330"/>
      <point x="501" y="325"/>
      <point x="501" y="323" type="curve" smooth="yes"/>
      <point x="501" y="322"/>
      <point x="503" y="317"/>
      <point x="505" y="311" type="curve" smooth="yes"/>
      <point x="509" y="300"/>
      <point x="522" y="259"/>
      <point x="523" y="251" type="curve" smooth="yes"/>
      <point x="525" y="244"/>
      <point x="533" y="215"/>
      <point x="543" y="185" type="curve" smooth="yes"/>
      <point x="547" y="174"/>
      <point x="551" y="159"/>
      <point x="552" y="152" type="curve" smooth="yes"/>
      <point x="554" y="145"/>
      <point x="560" y="122"/>
      <point x="566" y="101" type="curve" smooth="yes"/>
      <point x="572" y="81"/>
      <point x="578" y="59"/>
      <point x="579" y="55" type="curve" smooth="yes"/>
      <point x="583" y="36"/>
      <point x="589" y="17"/>
      <point x="592" y="13" type="curve" smooth="yes"/>
      <point x="601" y="4"/>
      <point x="604" y="3"/>
      <point x="666" y="3" type="curve" smooth="yes"/>
      <point x="699" y="2"/>
      <point x="728" y="1"/>
      <point x="733" y="0" type="curve" smooth="yes"/>
      <point x="741" y="-2"/>
      <point x="744" y="-1"/>
      <point x="758" y="2" type="curve" smooth="yes"/>
      <point x="766" y="4"/>
      <point x="775" y="8"/>
      <point x="777" y="10" type="curve" smooth="yes"/>
      <point x="783" y="15"/>
      <point x="793" y="42"/>
      <point x="795" y="55" type="curve" smooth="yes"/>
      <point x="797" y="69"/>
      <point x="813" y="124"/>
      <point x="831" y="178" type="curve" smooth="yes"/>
      <point x="834" y="188"/>
      <point x="838" y="200"/>
      <point x="839" y="206" type="curve" smooth="yes"/>
      <point x="843" y="219"/>
      <point x="850" y="245"/>
      <point x="858" y="269" type="curve" smooth="yes"/>
      <point x="864" y="289"/>
      <point x="873" y="320"/>
      <point x="879" y="342" type="curve" smooth="yes"/>
      <point x="881" y="353"/>
      <point x="884" y="362"/>
      <point x="899" y="406" type="curve" smooth="yes"/>
      <point x="902" y="414"/>
      <point x="906" y="426"/>
      <point x="908" y="433" type="curve" smooth="yes"/>
      <point x="915" y="464"/>
      <point x="919" y="477"/>
      <point x="923" y="488" type="curve" smooth="yes"/>
      <point x="926" y="495"/>
      <point x="930" y="509"/>
      <point x="933" y="521" type="curve" smooth="yes"/>
      <point x="936" y="532"/>
      <point x="939" y="543"/>
      <point x="941" y="546" type="curve" smooth="yes"/>
      <point x="942" y="549"/>
      <point x="946" y="561"/>
      <point x="950" y="574" type="curve" smooth="yes"/>
      <point x="956" y="597"/>
      <point x="964" y="624"/>
      <point x="972" y="646" type="curve" smooth="yes"/>
      <point x="984" y="679"/>
      <point x="982" y="692"/>
      <point x="963" y="698" type="curve" smooth="yes"/>
      <point x="954" y="701"/>
      <point x="909" y="701"/>
      <point x="903" y="698" type="curve" smooth="yes"/>
      <point x="900" y="697"/>
      <point x="897" y="697"/>
      <point x="892" y="698" type="curve" smooth="yes"/>
      <point x="888" y="700"/>
      <point x="872" y="701"/>
      <point x="856" y="701" type="curve" smooth="yes"/>
      <point x="819" y="701"/>
      <point x="813" y="699"/>
      <point x="808" y="678" type="curve" smooth="yes"/>
      <point x="807" y="673"/>
      <point x="801" y="649"/>
      <point x="795" y="626" type="curve" smooth="yes"/>
      <point x="789" y="603"/>
      <point x="783" y="581"/>
      <point x="781" y="577" type="curve" smooth="yes"/>
      <point x="780" y="573"/>
      <point x="777" y="565"/>
      <point x="777" y="560" type="curve" smooth="yes"/>
      <point x="776" y="555"/>
      <point x="774" y="548"/>
      <point x="772" y="543" type="curve" smooth="yes"/>
      <point x="770" y="539"/>
      <point x="767" y="529"/>
      <point x="766" y="522" type="curve" smooth="yes"/>
      <point x="757" y="483"/>
      <point x="754" y="470"/>
      <point x="751" y="459" type="curve" smooth="yes"/>
      <point x="739" y="424"/>
      <point x="735" y="411"/>
      <point x="732" y="399" type="curve" smooth="yes"/>
      <point x="730" y="391"/>
      <point x="728" y="381"/>
      <point x="727" y="376" type="curve" smooth="yes"/>
      <point x="726" y="372"/>
      <point x="724" y="364"/>
      <point x="722" y="359" type="curve" smooth="yes"/>
      <point x="721" y="354"/>
      <point x="718" y="343"/>
      <point x="716" y="335" type="curve" smooth="yes"/>
      <point x="714" y="322"/>
      <point x="713" y="320"/>
      <point x="709" y="320" type="curve" smooth="yes"/>
      <point x="705" y="320"/>
      <point x="704" y="322"/>
      <point x="696" y="348" type="curve" smooth="yes"/>
      <point x="692" y="363"/>
      <point x="687" y="378"/>
      <point x="686" y="381" type="curve" smooth="yes"/>
      <point x="681" y="396"/>
      <point x="679" y="404"/>
      <point x="675" y="421" type="curve" smooth="yes"/>
      <point x="672" y="431"/>
      <point x="667" y="449"/>
      <point x="664" y="459" type="curve" smooth="yes"/>
      <point x="658" y="478"/>
      <point x="651" y="500"/>
      <point x="648" y="516" type="curve" smooth="yes"/>
      <point x="647" y="520"/>
      <point x="642" y="535"/>
      <point x="638" y="549" type="curve" smooth="yes"/>
      <point x="633" y="563"/>
      <point x="627" y="586"/>
      <point x="623" y="601" type="curve" smooth="yes"/>
      <point x="598" y="694"/>
      <point x="598" y="694"/>
      <point x="587" y="700" type="curve" smooth="yes"/>
      <point x="580" y="704"/>
      <point x="574" y="704"/>
      <point x="503" y="705" type="curve" smooth="yes"/>
      <point x="426" y="705" type="line"/>
      <point x="419" y="700" type="line" smooth="yes"/>
      <point x="415" y="698"/>
      <point x="411" y="694"/>
      <point x="410" y="693" type="curve" smooth="yes"/>
      <point x="408" y="689"/>
      <point x="386" y="612"/>
      <point x="378" y="581" type="curve" smooth="yes"/>
      <point x="374" y="563"/>
      <point x="367" y="542"/>
      <point x="363" y="530" type="curve" smooth="yes"/>
      <point x="362" y="526"/>
      <point x="359" y="516"/>
      <point x="358" y="510" type="curve" smooth="yes"/>
      <point x="356" y="504"/>
      <point x="353" y="491"/>
      <point x="350" y="483" type="curve" smooth="yes"/>
      <point x="347" y="474"/>
      <point x="345" y="465"/>
      <point x="345" y="463" type="curve" smooth="yes"/>
      <point x="345" y="461"/>
      <point x="341" y="447"/>
      <point x="337" y="432" type="curve" smooth="yes"/>
      <point x="333" y="417"/>
      <point x="328" y="398"/>
      <point x="325" y="390" type="curve" smooth="yes"/>
      <point x="323" y="382"/>
      <point x="320" y="371"/>
      <point x="319" y="367" type="curve" smooth="yes"/>
      <point x="317" y="362"/>
      <point x="314" y="350"/>
      <point x="311" y="341" type="curve" smooth="yes"/>
      <point x="308" y="331"/>
      <point x="305" y="324"/>
      <point x="304" y="324" type="curve" smooth="yes"/>
      <point x="299" y="324"/>
      <point x="294" y="336"/>
      <point x="277" y="400" type="curve" smooth="yes"/>
      <point x="275" y="407"/>
      <point x="269" y="427"/>
      <point x="264" y="444" type="curve" smooth="yes"/>
      <point x="259" y="461"/>
      <point x="254" y="479"/>
      <point x="253" y="484" type="curve" smooth="yes"/>
      <point x="252" y="488"/>
      <point x="249" y="501"/>
      <point x="246" y="512" type="curve" smooth="yes"/>
      <point x="242" y="523"/>
      <point x="238" y="538"/>
      <point x="236" y="545" type="curve" smooth="yes"/>
      <point x="234" y="553"/>
      <point x="231" y="562"/>
      <point x="229" y="566" type="curve" smooth="yes"/>
      <point x="228" y="569"/>
      <point x="226" y="576"/>
      <point x="225" y="580" type="curve" smooth="yes"/>
      <point x="224" y="585"/>
      <point x="221" y="596"/>
      <point x="218" y="606" type="curve" smooth="yes"/>
      <point x="211" y="631"/>
      <point x="208" y="641"/>
      <point x="206" y="653" type="curve" smooth="yes"/>
      <point x="204" y="669"/>
      <point x="195" y="691"/>
      <point x="190" y="696" type="curve" smooth="yes"/>
      <point x="181" y="705"/>
      <point x="170" y="706"/>
      <point x="90" y="705" type="curve" smooth="yes"/>
      <point x="48" y="705"/>
      <point x="11" y="705"/>
      <point x="6" y="704" type="curve" smooth="yes"/>
    </contour>
  </outline>
</glyph>
<glyph name="Y" format="1">
  <advance width="700"/>
  <unicode hex="0059"/>
  <outline>
    <contour>
      <point x="-2" y="701"/>
      <point x="-5" y="692"/>
      <point x="16" y="662" type="curve" smooth="yes"/>
      <point x="22" y="652"/>
      <point x="31" y="638"/>
      <point x="36" y="631" type="curve" smooth="yes"/>
      <point x="40" y="623"/>
      <point x="49" y="610"/>
      <point x="54" y="601" type="curve" smooth="yes"/>
      <point x="60" y="593"/>
      <point x="69" y="577"/>
      <point x="75" y="567" type="curve" smooth="yes"/>
      <point x="99" y="527"/>
      <point x="108" y="513"/>
      <point x="112" y="507" type="curve" smooth="yes"/>
      <point x="115" y="503"/>
      <point x="123" y="489"/>
      <point x="131" y="476" type="curve" smooth="yes"/>
      <point x="147" y="447"/>
      <point x="162" y="423"/>
      <point x="175" y="405" type="curve" smooth="yes"/>
      <point x="180" y="397"/>
      <point x="185" y="390"/>
      <point x="186" y="388" type="curve" smooth="yes"/>
      <point x="187" y="386"/>
      <point x="195" y="374"/>
      <point x="204" y="359" type="curve" smooth="yes"/>
      <point x="227" y="324"/>
      <point x="238" y="305"/>
      <point x="241" y="296" type="curve" smooth="yes"/>
      <point x="243" y="291"/>
      <point x="244" y="281"/>
      <point x="243" y="260" type="curve" smooth="yes"/>
      <point x="241" y="168"/>
      <point x="240" y="15"/>
      <point x="242" y="11" type="curve" smooth="yes"/>
      <point x="243" y="9"/>
      <point x="248" y="6"/>
      <point x="252" y="4" type="curve" smooth="yes"/>
      <point x="260" y="0"/>
      <point x="263" y="0"/>
      <point x="334" y="0" type="curve" smooth="yes"/>
      <point x="374" y="0"/>
      <point x="414" y="0"/>
      <point x="422" y="0" type="curve" smooth="yes"/>
      <point x="440" y="-1"/>
      <point x="448" y="2"/>
      <point x="455" y="12" type="curve" smooth="yes"/>
      <point x="460" y="18" type="line"/>
      <point x="459" y="115" type="line" smooth="yes"/>
      <point x="459" y="168"/>
      <point x="458" y="231"/>
      <point x="458" y="256" type="curve" smooth="yes"/>
      <point x="457" y="281"/>
      <point x="458" y="305"/>
      <point x="459" y="310" type="curve" smooth="yes"/>
      <point x="460" y="315"/>
      <point x="464" y="324"/>
      <point x="469" y="331" type="curve" smooth="yes"/>
      <point x="484" y="355"/>
      <point x="491" y="365"/>
      <point x="494" y="369" type="curve" smooth="yes"/>
      <point x="496" y="371"/>
      <point x="501" y="380"/>
      <point x="505" y="389" type="curve" smooth="yes"/>
      <point x="510" y="397"/>
      <point x="517" y="409"/>
      <point x="520" y="414" type="curve" smooth="yes"/>
      <point x="524" y="420"/>
      <point x="527" y="426"/>
      <point x="528" y="428" type="curve" smooth="yes"/>
      <point x="528" y="430"/>
      <point x="530" y="433"/>
      <point x="532" y="433" type="curve" smooth="yes"/>
      <point x="533" y="434"/>
      <point x="536" y="438"/>
      <point x="538" y="443" type="curve" smooth="yes"/>
      <point x="540" y="447"/>
      <point x="544" y="453"/>
      <point x="547" y="456" type="curve" smooth="yes"/>
      <point x="550" y="458"/>
      <point x="552" y="461"/>
      <point x="552" y="463" type="curve" smooth="yes"/>
      <point x="552" y="464"/>
      <point x="555" y="470"/>
      <point x="559" y="475" type="curve" smooth="yes"/>
      <point x="562" y="480"/>
      <point x="567" y="489"/>
      <point x="570" y="493" type="curve" smooth="yes"/>
      <point x="578" y="506"/>
      <point x="595" y="533"/>
      <point x="598" y="537" type="curve" smooth="yes"/>
      <point x="600" y="539"/>
      <point x="603" y="544"/>
      <point x="605" y="549" type="curve" smooth="yes"/>
      <point x="608" y="553"/>
      <point x="612" y="560"/>
      <point x="615" y="564" type="curve" smooth="yes"/>
      <point x="618" y="569"/>
      <point x="625" y="580"/>
      <point x="631" y="590" type="curve" smooth="yes"/>
      <point x="637" y="599"/>
      <point x="646" y="613"/>
      <point x="651" y="620" type="curve" smooth="yes"/>
      <point x="656" y="627"/>
      <point x="659" y="633"/>
      <point x="659" y="634" type="curve" smooth="yes"/>
      <point x="659" y="634"/>
      <point x="663" y="641"/>
      <point x="668" y="648" type="curve" smooth="yes"/>
      <point x="673" y="656"/>
      <point x="679" y="666"/>
      <point x="680" y="671" type="curve" smooth="yes"/>
      <point x="682" y="675"/>
      <point x="685" y="681"/>
      <point x="687" y="684" type="curve" smooth="yes"/>
      <point x="692" y="690"/>
      <point x="692" y="695"/>
      <point x="685" y="700" type="curve" smooth="yes"/>
      <point x="680" y="704"/>
      <point x="679" y="704"/>
      <point x="627" y="703" type="curve" smooth="yes"/>
      <point x="598" y="703"/>
      <point x="561" y="703"/>
      <point x="544" y="703" type="curve" smooth="yes"/>
      <point x="512" y="704"/>
      <point x="507" y="703"/>
      <point x="499" y="695" type="curve" smooth="yes"/>
      <point x="498" y="693"/>
      <point x="488" y="677"/>
      <point x="479" y="660" type="curve" smooth="yes"/>
      <point x="470" y="643"/>
      <point x="461" y="626"/>
      <point x="459" y="624" type="curve" smooth="yes"/>
      <point x="457" y="621"/>
      <point x="453" y="613"/>
      <point x="449" y="606" type="curve" smooth="yes"/>
      <point x="445" y="599"/>
      <point x="440" y="590"/>
      <point x="436" y="585" type="curve" smooth="yes"/>
      <point x="428" y="572"/>
      <point x="386" y="493"/>
      <point x="378" y="473" type="curve" smooth="yes"/>
      <point x="375" y="465"/>
      <point x="369" y="463"/>
      <point x="366" y="468" type="curve" smooth="yes"/>
      <point x="363" y="471"/>
      <point x="356" y="485"/>
      <point x="339" y="520" type="curve" smooth="yes"/>
      <point x="332" y="535"/>
      <point x="321" y="555"/>
      <point x="314" y="566" type="curve" smooth="yes"/>
      <point x="308" y="577"/>
      <point x="302" y="588"/>
      <point x="300" y="591" type="curve" smooth="yes"/>
      <point x="299" y="593"/>
      <point x="295" y="600"/>
      <point x="291" y="606" type="curve" smooth="yes"/>
      <point x="277" y="629"/>
      <point x="271" y="641"/>
      <point x="260" y="660" type="curve" smooth="yes"/>
      <point x="247" y="685"/>
      <point x="239" y="695"/>
      <point x="234" y="698" type="curve" smooth="yes"/>
      <point x="231" y="700"/>
      <point x="209" y="701"/>
      <point x="156" y="701" type="curve" smooth="yes"/>
      <point x="116" y="701"/>
      <point x="75" y="702"/>
      <point x="65" y="704" type="curve" smooth="yes"/>
      <point x="55" y="705"/>
      <point x="46" y="705"/>
      <point x="45" y="705" type="curve" smooth="yes"/>
      <point x="45" y="705"/>
      <point x="38" y="704"/>
      <point x="30" y="704" type="curve" smooth="yes"/>
    </contour>
  </outline>
</glyph>
<glyph name="Z" format="1">
  <advance width="671"/>
  <unicode hex="005A"/>
  <outline>
    <contour>
      <point x="327" y="180" type="line" smooth="yes"/>
      <point x="320" y="169"/>
      <point x="330" y="166"/>
      <point x="339" y="166" type="curve" smooth="yes"/>
      <point x="636" y="166" type="line" smooth="yes"/>
      <point x="650" y="166"/>
      <point x="658" y="161"/>
      <point x="658" y="147" type="curve" smooth="yes"/>
      <point x="658" y="22" type="line" smooth="yes"/>
      <point x="658" y="10"/>
      <point x="651" y="0"/>
      <point x="634" y="0" type="curve" smooth="yes"/>
      <point x="33" y="0" type="line" smooth="yes"/>
      <point x="13" y="0"/>
      <point x="7" y="5"/>
      <point x="7" y="25" type="curve" smooth="yes"/>
      <point x="7" y="70" type="line" smooth="yes"/>
      <point x="7" y="91"/>
      <point x="9" y="94"/>
      <point x="28" y="121" type="curve" smooth="yes"/>
      <point x="336" y="561" type="line" smooth="yes"/>
      <point x="343" y="572"/>
      <point x="341" y="577"/>
      <point x="327" y="577" type="curve" smooth="yes"/>
      <point x="62" y="577" type="line" smooth="yes"/>
      <point x="45" y="577"/>
      <point x="40" y="583"/>
      <point x="40" y="601" type="curve" smooth="yes"/>
      <point x="40" y="721" type="line" smooth="yes"/>
      <point x="40" y="734"/>
      <point x="47" y="742"/>
      <point x="58" y="742" type="curve" smooth="yes"/>
      <point x="645" y="742" type="line" smooth="yes"/>
      <point x="657" y="742"/>
      <point x="664" y="734"/>
      <point x="664" y="722" type="curve" smooth="yes"/>
      <point x="664" y="671" type="line" smooth="yes"/>
      <point x="664" y="656"/>
      <point x="660" y="648"/>
      <point x="647" y="630" type="curve" smooth="yes"/>
    </contour>
  </outline>
</glyph>
<glyph name="bracketleft" format="1">
  <advance width="336"/>
  <unicode hex="005B"/>
  <outline>
    <contour>
      <point x="46" y="-139" type="line" smooth="yes"/>
      <point x="46" y="-155"/>
      <point x="57" y="-165"/>
      <point x="75" y="-165" type="curve" smooth="yes"/>
      <point x="303" y="-165" type="line" smooth="yes"/>
      <point x="316" y="-165"/>
      <point x="321" y="-160"/>
      <point x="321" y="-147" type="curve" smooth="yes"/>
      <point x="321" y="-74" type="line" smooth="yes"/>
      <point x="321" y="-63"/>
      <point x="315" y="-58"/>
      <point x="303" y="-58" type="curve" smooth="yes"/>
      <point x="226" y="-58" type="line" smooth="yes"/>
      <point x="210" y="-58"/>
      <point x="205" y="-55"/>
      <point x="205" y="-37" type="curve" smooth="yes"/>
      <point x="205" y="608" type="line" smooth="yes"/>
      <point x="205" y="627"/>
      <point x="213" y="635"/>
      <point x="230" y="635" type="curve" smooth="yes"/>
      <point x="306" y="635" type="line" smooth="yes"/>
      <point x="315" y="635"/>
      <point x="321" y="640"/>
      <point x="321" y="649" type="curve" smooth="yes"/>
      <point x="321" y="729" type="line" smooth="yes"/>
      <point x="321" y="738"/>
      <point x="317" y="742"/>
      <point x="306" y="742" type="curve" smooth="yes"/>
      <point x="72" y="742" type="line" smooth="yes"/>
      <point x="53" y="742"/>
      <point x="46" y="735"/>
      <point x="46" y="720" type="curve" smooth="yes"/>
    </contour>
  </outline>
</glyph>
<glyph name="asciicircum" format="1">
  <advance width="475"/>
  <unicode hex="005E"/>
  <outline>
    <contour>
      <point x="329" y="120"/>
      <point x="341" y="120"/>
      <point x="353" y="120" type="curve" smooth="yes"/>
      <point x="426" y="120" type="line" smooth="yes"/>
      <point x="440" y="120"/>
      <point x="434" y="123"/>
      <point x="428" y="138" type="curve" smooth="yes"/>
      <point x="271" y="505" type="line" smooth="yes"/>
      <point x="251" y="553"/>
      <point x="222" y="550"/>
      <point x="202" y="504" type="curve" smooth="yes"/>
      <point x="45" y="138" type="line" smooth="yes"/>
      <point x="40" y="127"/>
      <point x="36" y="120"/>
      <point x="48" y="120" type="curve" smooth="yes"/>
      <point x="120" y="120" type="line" smooth="yes"/>
      <point x="133" y="120"/>
      <point x="142" y="120"/>
      <point x="146" y="129" type="curve" smooth="yes"/>
      <point x="224" y="319" type="line" smooth="yes"/>
      <point x="228" y="330"/>
      <point x="243" y="330"/>
      <point x="248" y="319" type="curve" smooth="yes"/>
      <point x="326" y="129" type="line" smooth="yes"/>
    </contour>
  </outline>
</glyph>
<glyph name="underscore" format="1">
  <advance width="562"/>
  <unicode hex="005F"/>
  <outline>
    <contour>
      <point x="522" y="-28"/>
      <point x="515" y="-20"/>
      <point x="504" y="-20" type="curve" smooth="yes"/>
      <point x="59" y="-20" type="line" smooth="yes"/>
      <point x="47" y="-20"/>
      <point x="40" y="-28"/>
      <point x="40" y="-43" type="curve" smooth="yes"/>
      <point x="40" y="-116" type="line" smooth="yes"/>
      <point x="40" y="-133"/>
      <point x="46" y="-141"/>
      <point x="66" y="-141" type="curve" smooth="yes"/>
      <point x="489" y="-141" type="line" smooth="yes"/>
      <point x="512" y="-141"/>
      <point x="522" y="-133"/>
      <point x="522" y="-113" type="curve" smooth="yes"/>
      <point x="522" y="-40" type="line" smooth="yes"/>
    </contour>
  </outline>
</glyph>
<glyph name="grave" format="1">
  <advance width="320"/>
  <unicode hex="0060"/>
  <outline>
    <contour>
      <point x="12" y="658" type="line" smooth="yes"/>
      <point x="6" y="643"/>
      <point x="11" y="631"/>
      <point x="31" y="626" type="curve" smooth="yes"/>
      <point x="264" y="570" type="line" smooth="yes"/>
      <point x="281" y="566"/>
      <point x="287" y="569"/>
      <point x="293" y="583" type="curve" smooth="yes"/>
      <point x="308" y="626" type="line" smooth="yes"/>
      <point x="313" y="638"/>
      <point x="309" y="646"/>
      <point x="300" y="650" type="curve" smooth="yes"/>
      <point x="62" y="751" type="line" smooth="yes"/>
      <point x="53" y="755"/>
      <point x="45" y="750"/>
      <point x="41" y="739" type="curve" smooth="yes"/>
    </contour>
    <contour>
      <point x="160" y="530" type="move" name="_top"/>
    </contour>
  </outline>
</glyph>
<glyph name="a" format="1">
  <advance width="530"/>
  <unicode hex="0061"/>
  <outline>
    <contour>
      <point x="318" y="43"/>
      <point x="321" y="44"/>
      <point x="325" y="24" type="curve" smooth="yes"/>
      <point x="327" y="10"/>
      <point x="329" y="0"/>
      <point x="350" y="0" type="curve" smooth="yes"/>
      <point x="461" y="0" type="line" smooth="yes"/>
      <point x="491" y="0"/>
      <point x="517" y="5"/>
      <point x="510" y="27" type="curve" smooth="yes"/>
      <point x="503" y="48"/>
      <point x="499" y="64"/>
      <point x="499" y="92" type="curve" smooth="yes"/>
      <point x="499" y="352" type="line" smooth="yes"/>
      <point x="499" y="451"/>
      <point x="447" y="507"/>
      <point x="269" y="507" type="curve" smooth="yes"/>
      <point x="125" y="507"/>
      <point x="71" y="470"/>
      <point x="35" y="397" type="curve" smooth="yes"/>
      <point x="30" y="387"/>
      <point x="33" y="369"/>
      <point x="42" y="367" type="curve" smooth="yes"/>
      <point x="165" y="343" type="line" smooth="yes"/>
      <point x="182" y="340"/>
      <point x="186" y="341"/>
      <point x="191" y="353" type="curve" smooth="yes"/>
      <point x="207" y="388"/>
      <point x="238" y="397"/>
      <point x="264" y="397" type="curve" smooth="yes"/>
      <point x="302" y="397"/>
      <point x="320" y="378"/>
      <point x="320" y="343" type="curve" smooth="yes"/>
      <point x="320" y="327" type="line" smooth="yes"/>
      <point x="320" y="315"/>
      <point x="311" y="313"/>
      <point x="303" y="313" type="curve" smooth="yes"/>
      <point x="108" y="307"/>
      <point x="9" y="240"/>
      <point x="9" y="135" type="curve" smooth="yes"/>
      <point x="9" y="49"/>
      <point x="66" y="-9"/>
      <point x="173" y="-9" type="curve" smooth="yes"/>
      <point x="223" y="-9"/>
      <point x="251" y="4"/>
      <point x="296" y="30" type="curve" smooth="yes"/>
    </contour>
    <contour>
      <point x="320" y="151" type="line" smooth="yes"/>
      <point x="320" y="135"/>
      <point x="314" y="127"/>
      <point x="305" y="120" type="curve" smooth="yes"/>
      <point x="292" y="110"/>
      <point x="271" y="102"/>
      <point x="249" y="102" type="curve" smooth="yes"/>
      <point x="212" y="102"/>
      <point x="193" y="120"/>
      <point x="193" y="147" type="curve" smooth="yes"/>
      <point x="193" y="200"/>
      <point x="273" y="221"/>
      <point x="303" y="221" type="curve" smooth="yes"/>
      <point x="314" y="221"/>
      <point x="320" y="215"/>
      <point x="320" y="204" type="curve" smooth="yes"/>
    </contour>
  </outline>
</glyph>
